<mxfile host="app.diagrams.net" modified="2023-01-03T11:06:44.758Z" agent="5.0 (Windows NT 10.0; Win64; x64) AppleWebKit/537.36 (KHTML, like Gecko) Chrome/108.0.0.0 Safari/537.36" etag="Kr84G3ApxOgFtuXPl850" version="20.7.2" type="github">
  <diagram id="voFs1cuZO9YIWc2jyn0K" name="Страница 1">
    <mxGraphModel dx="1562" dy="869" grid="1" gridSize="10" guides="1" tooltips="1" connect="1" arrows="1" fold="1" page="1" pageScale="1" pageWidth="4681" pageHeight="3300" math="0" shadow="0">
      <root>
        <mxCell id="0" />
        <mxCell id="1" parent="0" />
        <mxCell id="1ylkWFcsWydQvVdOaWhc-454" value="" style="rounded=0;whiteSpace=wrap;html=1;strokeColor=#000000;fillColor=none;dashed=1;" parent="1" vertex="1">
          <mxGeometry x="490" y="199.5" width="265" height="120.5" as="geometry" />
        </mxCell>
        <mxCell id="1ylkWFcsWydQvVdOaWhc-451" value="" style="rounded=0;whiteSpace=wrap;html=1;strokeColor=#000000;fillColor=none;dashed=1;" parent="1" vertex="1">
          <mxGeometry x="200" y="39.5" width="305" height="120.5" as="geometry" />
        </mxCell>
        <mxCell id="1ylkWFcsWydQvVdOaWhc-203" value="" style="rounded=0;whiteSpace=wrap;html=1;fillColor=none;strokeColor=#999999;" parent="1" vertex="1">
          <mxGeometry x="300" y="550" width="420" height="120" as="geometry" />
        </mxCell>
        <mxCell id="REEH5sua70is87sAmdiB-3" value="" style="rounded=0;whiteSpace=wrap;html=1;fillColor=none;dashed=1;" parent="1" vertex="1">
          <mxGeometry x="935" y="354" width="785" height="636" as="geometry" />
        </mxCell>
        <mxCell id="1ylkWFcsWydQvVdOaWhc-449" value="" style="rounded=0;whiteSpace=wrap;html=1;strokeColor=#000000;fillColor=none;dashed=1;" parent="1" vertex="1">
          <mxGeometry x="1050" y="39.5" width="488" height="280.5" as="geometry" />
        </mxCell>
        <mxCell id="1ylkWFcsWydQvVdOaWhc-444" value="" style="rounded=0;whiteSpace=wrap;html=1;strokeColor=#000000;fillColor=none;dashed=1;" parent="1" vertex="1">
          <mxGeometry x="1730" y="188.5" width="463" height="451.5" as="geometry" />
        </mxCell>
        <mxCell id="1ylkWFcsWydQvVdOaWhc-446" value="" style="rounded=0;whiteSpace=wrap;html=1;fillColor=none;strokeColor=#999999;" parent="1" vertex="1">
          <mxGeometry x="1081" y="532" width="420" height="148" as="geometry" />
        </mxCell>
        <mxCell id="1ylkWFcsWydQvVdOaWhc-205" value="" style="rounded=0;whiteSpace=wrap;html=1;fillColor=none;strokeColor=#999999;" parent="1" vertex="1">
          <mxGeometry x="299" y="715" width="420" height="155" as="geometry" />
        </mxCell>
        <mxCell id="1ylkWFcsWydQvVdOaWhc-371" value="" style="rounded=0;whiteSpace=wrap;html=1;fillColor=none;strokeColor=#999999;" parent="1" vertex="1">
          <mxGeometry x="1081.5" y="716" width="420" height="118" as="geometry" />
        </mxCell>
        <mxCell id="1ylkWFcsWydQvVdOaWhc-209" value="" style="rounded=0;whiteSpace=wrap;html=1;fillColor=none;strokeColor=#999999;" parent="1" vertex="1">
          <mxGeometry x="300" y="370" width="420" height="130" as="geometry" />
        </mxCell>
        <mxCell id="1ylkWFcsWydQvVdOaWhc-76" value="" style="rounded=0;whiteSpace=wrap;html=1;fillColor=none;dashed=1;" parent="1" vertex="1">
          <mxGeometry x="80" y="354" width="847" height="826" as="geometry" />
        </mxCell>
        <mxCell id="LB4oUW9Qehg8nWZua1mU-1" value="" style="sketch=0;points=[[0.5,0,0],[1,0.5,0],[0.5,1,0],[0,0.5,0],[0.145,0.145,0],[0.8555,0.145,0],[0.855,0.8555,0],[0.145,0.855,0]];verticalLabelPosition=bottom;html=1;verticalAlign=top;aspect=fixed;align=center;pointerEvents=1;shape=mxgraph.cisco19.rect;prIcon=router;fillColor=#FAFAFA;strokeColor=#005073;" parent="1" vertex="1">
          <mxGeometry x="331" y="65" width="50" height="50" as="geometry" />
        </mxCell>
        <mxCell id="LB4oUW9Qehg8nWZua1mU-2" value="" style="sketch=0;points=[[0.5,0,0],[1,0.5,0],[0.5,1,0],[0,0.5,0],[0.145,0.145,0],[0.8555,0.145,0],[0.855,0.8555,0],[0.145,0.855,0]];verticalLabelPosition=bottom;html=1;verticalAlign=top;aspect=fixed;align=center;pointerEvents=1;shape=mxgraph.cisco19.rect;prIcon=router;fillColor=#FAFAFA;strokeColor=#005073;" parent="1" vertex="1">
          <mxGeometry x="629" y="235" width="50" height="50" as="geometry" />
        </mxCell>
        <mxCell id="LB4oUW9Qehg8nWZua1mU-3" value="" style="sketch=0;points=[[0.5,0,0],[1,0.5,0],[0.5,1,0],[0,0.5,0],[0.145,0.145,0],[0.8555,0.145,0],[0.855,0.8555,0],[0.145,0.855,0]];verticalLabelPosition=bottom;html=1;verticalAlign=top;aspect=fixed;align=center;pointerEvents=1;shape=mxgraph.cisco19.rect;prIcon=router;fillColor=#FAFAFA;strokeColor=#005073;" parent="1" vertex="1">
          <mxGeometry x="331" y="405" width="50" height="50" as="geometry" />
        </mxCell>
        <mxCell id="LB4oUW9Qehg8nWZua1mU-4" value="" style="sketch=0;points=[[0.5,0,0],[1,0.5,0],[0.5,1,0],[0,0.5,0],[0.145,0.145,0],[0.8555,0.145,0],[0.855,0.8555,0],[0.145,0.855,0]];verticalLabelPosition=bottom;html=1;verticalAlign=top;aspect=fixed;align=center;pointerEvents=1;shape=mxgraph.cisco19.rect;prIcon=router;fillColor=#FAFAFA;strokeColor=#005073;" parent="1" vertex="1">
          <mxGeometry x="629" y="405" width="50" height="50" as="geometry" />
        </mxCell>
        <mxCell id="LB4oUW9Qehg8nWZua1mU-9" value="" style="sketch=0;points=[[0.5,0,0],[1,0.5,0],[0.5,1,0],[0,0.5,0],[0.145,0.145,0],[0.8555,0.145,0],[0.855,0.8555,0],[0.145,0.855,0]];verticalLabelPosition=bottom;html=1;verticalAlign=top;aspect=fixed;align=center;pointerEvents=1;shape=mxgraph.cisco19.rect;prIcon=router;fillColor=#FAFAFA;strokeColor=#005073;" parent="1" vertex="1">
          <mxGeometry x="331" y="576" width="50" height="50" as="geometry" />
        </mxCell>
        <mxCell id="LB4oUW9Qehg8nWZua1mU-10" value="" style="sketch=0;points=[[0.5,0,0],[1,0.5,0],[0.5,1,0],[0,0.5,0],[0.145,0.145,0],[0.8555,0.145,0],[0.855,0.8555,0],[0.145,0.855,0]];verticalLabelPosition=bottom;html=1;verticalAlign=top;aspect=fixed;align=center;pointerEvents=1;shape=mxgraph.cisco19.rect;prIcon=router;fillColor=#FAFAFA;strokeColor=#005073;" parent="1" vertex="1">
          <mxGeometry x="629" y="576" width="50" height="50" as="geometry" />
        </mxCell>
        <mxCell id="LB4oUW9Qehg8nWZua1mU-11" value="" style="endArrow=none;html=1;rounded=0;exitX=1;exitY=0.5;exitDx=0;exitDy=0;exitPerimeter=0;entryX=0;entryY=0.5;entryDx=0;entryDy=0;entryPerimeter=0;startArrow=none;" parent="1" source="LB4oUW9Qehg8nWZua1mU-13" target="LB4oUW9Qehg8nWZua1mU-10" edge="1">
          <mxGeometry width="50" height="50" relative="1" as="geometry">
            <mxPoint x="371" y="666" as="sourcePoint" />
            <mxPoint x="421" y="616" as="targetPoint" />
          </mxGeometry>
        </mxCell>
        <mxCell id="LB4oUW9Qehg8nWZua1mU-14" value="" style="endArrow=none;html=1;rounded=0;exitX=0.5;exitY=0;exitDx=0;exitDy=0;exitPerimeter=0;entryX=0.5;entryY=1;entryDx=0;entryDy=0;entryPerimeter=0;startArrow=none;" parent="1" source="LB4oUW9Qehg8nWZua1mU-16" target="LB4oUW9Qehg8nWZua1mU-3" edge="1">
          <mxGeometry width="50" height="50" relative="1" as="geometry">
            <mxPoint x="511" y="495" as="sourcePoint" />
            <mxPoint x="561" y="445" as="targetPoint" />
          </mxGeometry>
        </mxCell>
        <mxCell id="LB4oUW9Qehg8nWZua1mU-18" value="" style="endArrow=none;html=1;rounded=0;exitX=0.8555;exitY=0.145;exitDx=0;exitDy=0;entryX=0.145;entryY=0.855;entryDx=0;entryDy=0;entryPerimeter=0;exitPerimeter=0;startArrow=none;" parent="1" source="W7klxGYHlzmc_tSxLxQi-7" target="LB4oUW9Qehg8nWZua1mU-4" edge="1">
          <mxGeometry width="50" height="50" relative="1" as="geometry">
            <mxPoint x="511" y="495" as="sourcePoint" />
            <mxPoint x="561" y="445" as="targetPoint" />
          </mxGeometry>
        </mxCell>
        <mxCell id="LB4oUW9Qehg8nWZua1mU-12" value="e0/4" style="text;html=1;strokeColor=none;fillColor=none;align=left;verticalAlign=middle;whiteSpace=wrap;rounded=0;" parent="1" vertex="1">
          <mxGeometry x="391" y="586" width="30" height="30" as="geometry" />
        </mxCell>
        <mxCell id="LB4oUW9Qehg8nWZua1mU-19" value="" style="endArrow=none;html=1;rounded=0;exitX=1;exitY=0.5;exitDx=0;exitDy=0;exitPerimeter=0;entryX=0;entryY=0.5;entryDx=0;entryDy=0;entryPerimeter=0;" parent="1" source="LB4oUW9Qehg8nWZua1mU-9" target="LB4oUW9Qehg8nWZua1mU-12" edge="1">
          <mxGeometry width="50" height="50" relative="1" as="geometry">
            <mxPoint x="381" y="601" as="sourcePoint" />
            <mxPoint x="629" y="601" as="targetPoint" />
          </mxGeometry>
        </mxCell>
        <mxCell id="LB4oUW9Qehg8nWZua1mU-16" value="e0/0" style="text;html=1;strokeColor=none;fillColor=none;align=center;verticalAlign=middle;whiteSpace=wrap;rounded=0;" parent="1" vertex="1">
          <mxGeometry x="341" y="462" width="30" height="20" as="geometry" />
        </mxCell>
        <mxCell id="LB4oUW9Qehg8nWZua1mU-21" value="" style="endArrow=none;html=1;rounded=0;exitX=0.5;exitY=0;exitDx=0;exitDy=0;exitPerimeter=0;entryX=0.5;entryY=1;entryDx=0;entryDy=0;entryPerimeter=0;startArrow=none;" parent="1" source="LB4oUW9Qehg8nWZua1mU-17" target="LB4oUW9Qehg8nWZua1mU-16" edge="1">
          <mxGeometry width="50" height="50" relative="1" as="geometry">
            <mxPoint x="356" y="576" as="sourcePoint" />
            <mxPoint x="356" y="455" as="targetPoint" />
          </mxGeometry>
        </mxCell>
        <mxCell id="LB4oUW9Qehg8nWZua1mU-17" value="e0/2" style="text;html=1;strokeColor=none;fillColor=none;align=center;verticalAlign=middle;whiteSpace=wrap;rounded=0;" parent="1" vertex="1">
          <mxGeometry x="341" y="548" width="30" height="20" as="geometry" />
        </mxCell>
        <mxCell id="LB4oUW9Qehg8nWZua1mU-23" value="" style="endArrow=none;html=1;rounded=0;exitX=0.5;exitY=0;exitDx=0;exitDy=0;exitPerimeter=0;entryX=0.5;entryY=1;entryDx=0;entryDy=0;entryPerimeter=0;" parent="1" source="LB4oUW9Qehg8nWZua1mU-9" target="LB4oUW9Qehg8nWZua1mU-17" edge="1">
          <mxGeometry width="50" height="50" relative="1" as="geometry">
            <mxPoint x="356" y="576" as="sourcePoint" />
            <mxPoint x="356" y="485" as="targetPoint" />
          </mxGeometry>
        </mxCell>
        <mxCell id="LB4oUW9Qehg8nWZua1mU-13" value="e0/4" style="text;html=1;strokeColor=none;fillColor=none;align=right;verticalAlign=middle;whiteSpace=wrap;rounded=0;" parent="1" vertex="1">
          <mxGeometry x="591" y="589.5" width="30" height="23.5" as="geometry" />
        </mxCell>
        <mxCell id="LB4oUW9Qehg8nWZua1mU-24" value="" style="endArrow=none;html=1;rounded=0;exitX=1;exitY=0.5;exitDx=0;exitDy=0;exitPerimeter=0;entryX=0;entryY=0.5;entryDx=0;entryDy=0;entryPerimeter=0;startArrow=none;" parent="1" source="LB4oUW9Qehg8nWZua1mU-12" target="LB4oUW9Qehg8nWZua1mU-13" edge="1">
          <mxGeometry width="50" height="50" relative="1" as="geometry">
            <mxPoint x="421" y="600" as="sourcePoint" />
            <mxPoint x="629" y="601" as="targetPoint" />
          </mxGeometry>
        </mxCell>
        <mxCell id="W7klxGYHlzmc_tSxLxQi-5" value="e0/3" style="text;html=1;strokeColor=none;fillColor=none;align=center;verticalAlign=middle;whiteSpace=wrap;rounded=0;" parent="1" vertex="1">
          <mxGeometry x="391" y="555" width="40" height="21" as="geometry" />
        </mxCell>
        <mxCell id="W7klxGYHlzmc_tSxLxQi-6" value="" style="endArrow=none;html=1;rounded=0;exitX=0.8555;exitY=0.145;exitDx=0;exitDy=0;entryX=0.145;entryY=0.855;entryDx=0;entryDy=0;entryPerimeter=0;exitPerimeter=0;" parent="1" source="LB4oUW9Qehg8nWZua1mU-9" target="W7klxGYHlzmc_tSxLxQi-5" edge="1">
          <mxGeometry width="50" height="50" relative="1" as="geometry">
            <mxPoint x="373.775" y="583.25" as="sourcePoint" />
            <mxPoint x="636.25" y="447.75" as="targetPoint" />
          </mxGeometry>
        </mxCell>
        <mxCell id="W7klxGYHlzmc_tSxLxQi-7" value="e0/1" style="text;html=1;strokeColor=none;fillColor=none;align=center;verticalAlign=middle;whiteSpace=wrap;rounded=0;" parent="1" vertex="1">
          <mxGeometry x="581" y="455" width="40" height="21" as="geometry" />
        </mxCell>
        <mxCell id="W7klxGYHlzmc_tSxLxQi-8" value="" style="endArrow=none;html=1;rounded=0;exitX=0.8555;exitY=0.145;exitDx=0;exitDy=0;entryX=0.145;entryY=0.855;entryDx=0;entryDy=0;entryPerimeter=0;exitPerimeter=0;startArrow=none;" parent="1" source="W7klxGYHlzmc_tSxLxQi-5" target="W7klxGYHlzmc_tSxLxQi-7" edge="1">
          <mxGeometry width="50" height="50" relative="1" as="geometry">
            <mxPoint x="425.22" y="558.045" as="sourcePoint" />
            <mxPoint x="636.25" y="447.7499999999999" as="targetPoint" />
          </mxGeometry>
        </mxCell>
        <mxCell id="W7klxGYHlzmc_tSxLxQi-9" value="" style="endArrow=none;html=1;rounded=0;exitX=1;exitY=0.5;exitDx=0;exitDy=0;exitPerimeter=0;entryX=0;entryY=0.5;entryDx=0;entryDy=0;entryPerimeter=0;startArrow=none;" parent="1" source="W7klxGYHlzmc_tSxLxQi-12" edge="1">
          <mxGeometry width="50" height="50" relative="1" as="geometry">
            <mxPoint x="371" y="495" as="sourcePoint" />
            <mxPoint x="629" y="430" as="targetPoint" />
          </mxGeometry>
        </mxCell>
        <mxCell id="W7klxGYHlzmc_tSxLxQi-10" value="e0/4" style="text;html=1;strokeColor=none;fillColor=none;align=left;verticalAlign=middle;whiteSpace=wrap;rounded=0;" parent="1" vertex="1">
          <mxGeometry x="391" y="415" width="30" height="30" as="geometry" />
        </mxCell>
        <mxCell id="W7klxGYHlzmc_tSxLxQi-11" value="" style="endArrow=none;html=1;rounded=0;exitX=1;exitY=0.5;exitDx=0;exitDy=0;exitPerimeter=0;entryX=0;entryY=0.5;entryDx=0;entryDy=0;entryPerimeter=0;" parent="1" target="W7klxGYHlzmc_tSxLxQi-10" edge="1">
          <mxGeometry width="50" height="50" relative="1" as="geometry">
            <mxPoint x="381" y="430" as="sourcePoint" />
            <mxPoint x="629" y="430" as="targetPoint" />
          </mxGeometry>
        </mxCell>
        <mxCell id="W7klxGYHlzmc_tSxLxQi-12" value="e0/4" style="text;html=1;strokeColor=none;fillColor=none;align=right;verticalAlign=middle;whiteSpace=wrap;rounded=0;" parent="1" vertex="1">
          <mxGeometry x="591" y="418.5" width="30" height="23.5" as="geometry" />
        </mxCell>
        <mxCell id="W7klxGYHlzmc_tSxLxQi-13" value="" style="endArrow=none;html=1;rounded=0;exitX=1;exitY=0.5;exitDx=0;exitDy=0;exitPerimeter=0;entryX=0;entryY=0.5;entryDx=0;entryDy=0;entryPerimeter=0;startArrow=none;" parent="1" source="W7klxGYHlzmc_tSxLxQi-10" target="W7klxGYHlzmc_tSxLxQi-12" edge="1">
          <mxGeometry width="50" height="50" relative="1" as="geometry">
            <mxPoint x="421" y="429" as="sourcePoint" />
            <mxPoint x="629" y="430" as="targetPoint" />
          </mxGeometry>
        </mxCell>
        <mxCell id="W7klxGYHlzmc_tSxLxQi-14" value="" style="endArrow=none;html=1;rounded=0;exitX=0.145;exitY=0.145;exitDx=0;exitDy=0;exitPerimeter=0;entryX=0.855;entryY=0.8555;entryDx=0;entryDy=0;entryPerimeter=0;startArrow=none;" parent="1" source="W7klxGYHlzmc_tSxLxQi-15" target="LB4oUW9Qehg8nWZua1mU-3" edge="1">
          <mxGeometry width="50" height="50" relative="1" as="geometry">
            <mxPoint x="411" y="505" as="sourcePoint" />
            <mxPoint x="461" y="455" as="targetPoint" />
          </mxGeometry>
        </mxCell>
        <mxCell id="W7klxGYHlzmc_tSxLxQi-15" value="e0/1" style="text;html=1;strokeColor=none;fillColor=none;align=center;verticalAlign=middle;whiteSpace=wrap;rounded=0;" parent="1" vertex="1">
          <mxGeometry x="386" y="455" width="40" height="21" as="geometry" />
        </mxCell>
        <mxCell id="W7klxGYHlzmc_tSxLxQi-16" value="" style="endArrow=none;html=1;rounded=0;exitX=0.145;exitY=0.145;exitDx=0;exitDy=0;exitPerimeter=0;entryX=0.855;entryY=0.8555;entryDx=0;entryDy=0;entryPerimeter=0;startArrow=none;" parent="1" source="W7klxGYHlzmc_tSxLxQi-17" target="W7klxGYHlzmc_tSxLxQi-15" edge="1">
          <mxGeometry width="50" height="50" relative="1" as="geometry">
            <mxPoint x="636.25" y="583.25" as="sourcePoint" />
            <mxPoint x="373.75" y="447.775" as="targetPoint" />
          </mxGeometry>
        </mxCell>
        <mxCell id="W7klxGYHlzmc_tSxLxQi-17" value="e0/3" style="text;html=1;strokeColor=none;fillColor=none;align=center;verticalAlign=middle;whiteSpace=wrap;rounded=0;" parent="1" vertex="1">
          <mxGeometry x="586" y="555" width="40" height="21" as="geometry" />
        </mxCell>
        <mxCell id="W7klxGYHlzmc_tSxLxQi-18" value="" style="endArrow=none;html=1;rounded=0;exitX=0.145;exitY=0.145;exitDx=0;exitDy=0;exitPerimeter=0;entryX=0.855;entryY=0.8555;entryDx=0;entryDy=0;entryPerimeter=0;" parent="1" source="LB4oUW9Qehg8nWZua1mU-10" target="W7klxGYHlzmc_tSxLxQi-17" edge="1">
          <mxGeometry width="50" height="50" relative="1" as="geometry">
            <mxPoint x="636.25" y="583.25" as="sourcePoint" />
            <mxPoint x="420.2" y="472.9654999999999" as="targetPoint" />
          </mxGeometry>
        </mxCell>
        <mxCell id="W7klxGYHlzmc_tSxLxQi-19" value="" style="endArrow=none;html=1;rounded=0;exitX=0.5;exitY=0;exitDx=0;exitDy=0;exitPerimeter=0;entryX=0.5;entryY=1;entryDx=0;entryDy=0;entryPerimeter=0;startArrow=none;" parent="1" source="W7klxGYHlzmc_tSxLxQi-20" edge="1">
          <mxGeometry width="50" height="50" relative="1" as="geometry">
            <mxPoint x="810" y="495" as="sourcePoint" />
            <mxPoint x="655" y="455" as="targetPoint" />
          </mxGeometry>
        </mxCell>
        <mxCell id="W7klxGYHlzmc_tSxLxQi-20" value="e0/0" style="text;html=1;strokeColor=none;fillColor=none;align=center;verticalAlign=middle;whiteSpace=wrap;rounded=0;" parent="1" vertex="1">
          <mxGeometry x="640" y="462" width="30" height="20" as="geometry" />
        </mxCell>
        <mxCell id="W7klxGYHlzmc_tSxLxQi-21" value="" style="endArrow=none;html=1;rounded=0;exitX=0.5;exitY=0;exitDx=0;exitDy=0;exitPerimeter=0;entryX=0.5;entryY=1;entryDx=0;entryDy=0;entryPerimeter=0;startArrow=none;" parent="1" source="W7klxGYHlzmc_tSxLxQi-22" target="W7klxGYHlzmc_tSxLxQi-20" edge="1">
          <mxGeometry width="50" height="50" relative="1" as="geometry">
            <mxPoint x="655" y="576" as="sourcePoint" />
            <mxPoint x="655" y="455" as="targetPoint" />
          </mxGeometry>
        </mxCell>
        <mxCell id="W7klxGYHlzmc_tSxLxQi-22" value="e0/2" style="text;html=1;strokeColor=none;fillColor=none;align=center;verticalAlign=middle;whiteSpace=wrap;rounded=0;" parent="1" vertex="1">
          <mxGeometry x="640" y="548" width="30" height="20" as="geometry" />
        </mxCell>
        <mxCell id="W7klxGYHlzmc_tSxLxQi-23" value="" style="endArrow=none;html=1;rounded=0;exitX=0.5;exitY=0;exitDx=0;exitDy=0;exitPerimeter=0;entryX=0.5;entryY=1;entryDx=0;entryDy=0;entryPerimeter=0;" parent="1" target="W7klxGYHlzmc_tSxLxQi-22" edge="1">
          <mxGeometry width="50" height="50" relative="1" as="geometry">
            <mxPoint x="655" y="576" as="sourcePoint" />
            <mxPoint x="655" y="485" as="targetPoint" />
          </mxGeometry>
        </mxCell>
        <mxCell id="W7klxGYHlzmc_tSxLxQi-25" value="" style="endArrow=none;html=1;rounded=0;exitX=0.5;exitY=0;exitDx=0;exitDy=0;exitPerimeter=0;entryX=0.5;entryY=1;entryDx=0;entryDy=0;entryPerimeter=0;startArrow=none;" parent="1" source="W7klxGYHlzmc_tSxLxQi-26" edge="1">
          <mxGeometry width="50" height="50" relative="1" as="geometry">
            <mxPoint x="511" y="665" as="sourcePoint" />
            <mxPoint x="356" y="625" as="targetPoint" />
          </mxGeometry>
        </mxCell>
        <mxCell id="W7klxGYHlzmc_tSxLxQi-26" value="e0/0" style="text;html=1;strokeColor=none;fillColor=none;align=center;verticalAlign=middle;whiteSpace=wrap;rounded=0;" parent="1" vertex="1">
          <mxGeometry x="341" y="632" width="30" height="20" as="geometry" />
        </mxCell>
        <mxCell id="W7klxGYHlzmc_tSxLxQi-27" value="" style="endArrow=none;html=1;rounded=0;exitX=0.5;exitY=0;exitDx=0;exitDy=0;exitPerimeter=0;entryX=0.5;entryY=1;entryDx=0;entryDy=0;entryPerimeter=0;startArrow=none;" parent="1" source="W7klxGYHlzmc_tSxLxQi-28" target="W7klxGYHlzmc_tSxLxQi-26" edge="1">
          <mxGeometry width="50" height="50" relative="1" as="geometry">
            <mxPoint x="356" y="746" as="sourcePoint" />
            <mxPoint x="356" y="625" as="targetPoint" />
          </mxGeometry>
        </mxCell>
        <mxCell id="W7klxGYHlzmc_tSxLxQi-28" value="e1/0" style="text;html=1;strokeColor=none;fillColor=none;align=center;verticalAlign=middle;whiteSpace=wrap;rounded=0;" parent="1" vertex="1">
          <mxGeometry x="341" y="718" width="30" height="20" as="geometry" />
        </mxCell>
        <mxCell id="W7klxGYHlzmc_tSxLxQi-29" value="" style="endArrow=none;html=1;rounded=0;exitX=0.5;exitY=0;exitDx=0;exitDy=0;exitPerimeter=0;entryX=0.5;entryY=1;entryDx=0;entryDy=0;entryPerimeter=0;" parent="1" target="W7klxGYHlzmc_tSxLxQi-28" edge="1">
          <mxGeometry width="50" height="50" relative="1" as="geometry">
            <mxPoint x="356" y="746" as="sourcePoint" />
            <mxPoint x="356" y="655" as="targetPoint" />
          </mxGeometry>
        </mxCell>
        <mxCell id="W7klxGYHlzmc_tSxLxQi-31" value="" style="endArrow=none;html=1;rounded=0;exitX=0.5;exitY=0;exitDx=0;exitDy=0;exitPerimeter=0;entryX=0.5;entryY=1;entryDx=0;entryDy=0;entryPerimeter=0;startArrow=none;" parent="1" source="W7klxGYHlzmc_tSxLxQi-32" edge="1">
          <mxGeometry width="50" height="50" relative="1" as="geometry">
            <mxPoint x="809" y="665" as="sourcePoint" />
            <mxPoint x="654.0000000000001" y="625" as="targetPoint" />
          </mxGeometry>
        </mxCell>
        <mxCell id="W7klxGYHlzmc_tSxLxQi-32" value="e0/0" style="text;html=1;strokeColor=none;fillColor=none;align=center;verticalAlign=middle;whiteSpace=wrap;rounded=0;" parent="1" vertex="1">
          <mxGeometry x="639" y="632" width="30" height="20" as="geometry" />
        </mxCell>
        <mxCell id="W7klxGYHlzmc_tSxLxQi-33" value="" style="endArrow=none;html=1;rounded=0;exitX=0.5;exitY=0;exitDx=0;exitDy=0;exitPerimeter=0;entryX=0.5;entryY=1;entryDx=0;entryDy=0;entryPerimeter=0;startArrow=none;" parent="1" source="W7klxGYHlzmc_tSxLxQi-34" target="W7klxGYHlzmc_tSxLxQi-32" edge="1">
          <mxGeometry width="50" height="50" relative="1" as="geometry">
            <mxPoint x="654" y="746" as="sourcePoint" />
            <mxPoint x="654" y="625" as="targetPoint" />
          </mxGeometry>
        </mxCell>
        <mxCell id="W7klxGYHlzmc_tSxLxQi-34" value="e1/0" style="text;html=1;strokeColor=none;fillColor=none;align=center;verticalAlign=middle;whiteSpace=wrap;rounded=0;" parent="1" vertex="1">
          <mxGeometry x="639" y="718" width="30" height="20" as="geometry" />
        </mxCell>
        <mxCell id="W7klxGYHlzmc_tSxLxQi-35" value="" style="endArrow=none;html=1;rounded=0;exitX=0.5;exitY=0;exitDx=0;exitDy=0;exitPerimeter=0;entryX=0.5;entryY=1;entryDx=0;entryDy=0;entryPerimeter=0;" parent="1" target="W7klxGYHlzmc_tSxLxQi-34" edge="1">
          <mxGeometry width="50" height="50" relative="1" as="geometry">
            <mxPoint x="654.0000000000001" y="746.0000000000002" as="sourcePoint" />
            <mxPoint x="654" y="655" as="targetPoint" />
          </mxGeometry>
        </mxCell>
        <mxCell id="W7klxGYHlzmc_tSxLxQi-36" value="" style="endArrow=none;html=1;rounded=0;exitX=1;exitY=0.5;exitDx=0;exitDy=0;exitPerimeter=0;entryX=0;entryY=0.5;entryDx=0;entryDy=0;entryPerimeter=0;startArrow=none;" parent="1" source="W7klxGYHlzmc_tSxLxQi-39" edge="1">
          <mxGeometry width="50" height="50" relative="1" as="geometry">
            <mxPoint x="371" y="858" as="sourcePoint" />
            <mxPoint x="629" y="793" as="targetPoint" />
          </mxGeometry>
        </mxCell>
        <mxCell id="W7klxGYHlzmc_tSxLxQi-37" value="e0/2" style="text;html=1;strokeColor=none;fillColor=none;align=left;verticalAlign=middle;whiteSpace=wrap;rounded=0;" parent="1" vertex="1">
          <mxGeometry x="391" y="778" width="30" height="30" as="geometry" />
        </mxCell>
        <mxCell id="W7klxGYHlzmc_tSxLxQi-38" value="" style="endArrow=none;html=1;rounded=0;exitX=1;exitY=0.5;exitDx=0;exitDy=0;exitPerimeter=0;entryX=0;entryY=0.5;entryDx=0;entryDy=0;entryPerimeter=0;" parent="1" target="W7klxGYHlzmc_tSxLxQi-37" edge="1">
          <mxGeometry width="50" height="50" relative="1" as="geometry">
            <mxPoint x="381.0000000000001" y="793" as="sourcePoint" />
            <mxPoint x="629" y="793" as="targetPoint" />
          </mxGeometry>
        </mxCell>
        <mxCell id="W7klxGYHlzmc_tSxLxQi-39" value="e0/2" style="text;html=1;strokeColor=none;fillColor=none;align=right;verticalAlign=middle;whiteSpace=wrap;rounded=0;" parent="1" vertex="1">
          <mxGeometry x="591" y="781.5" width="30" height="23.5" as="geometry" />
        </mxCell>
        <mxCell id="W7klxGYHlzmc_tSxLxQi-40" value="" style="endArrow=none;html=1;rounded=0;exitX=1;exitY=0.5;exitDx=0;exitDy=0;exitPerimeter=0;entryX=0;entryY=0.5;entryDx=0;entryDy=0;entryPerimeter=0;startArrow=none;" parent="1" source="W7klxGYHlzmc_tSxLxQi-37" target="W7klxGYHlzmc_tSxLxQi-39" edge="1">
          <mxGeometry width="50" height="50" relative="1" as="geometry">
            <mxPoint x="421" y="792" as="sourcePoint" />
            <mxPoint x="629" y="793" as="targetPoint" />
          </mxGeometry>
        </mxCell>
        <mxCell id="W7klxGYHlzmc_tSxLxQi-41" value="" style="endArrow=none;html=1;rounded=0;exitX=0.985;exitY=0.015;exitDx=0;exitDy=0;exitPerimeter=0;entryX=0.145;entryY=0.855;entryDx=0;entryDy=0;entryPerimeter=0;startArrow=none;" parent="1" source="W7klxGYHlzmc_tSxLxQi-44" target="LB4oUW9Qehg8nWZua1mU-10" edge="1">
          <mxGeometry width="50" height="50" relative="1" as="geometry">
            <mxPoint x="476" y="705" as="sourcePoint" />
            <mxPoint x="526" y="655" as="targetPoint" />
          </mxGeometry>
        </mxCell>
        <mxCell id="W7klxGYHlzmc_tSxLxQi-42" value="e1/1" style="text;html=1;strokeColor=none;fillColor=none;align=center;verticalAlign=middle;whiteSpace=wrap;rounded=0;" parent="1" vertex="1">
          <mxGeometry x="396" y="718" width="40" height="21" as="geometry" />
        </mxCell>
        <mxCell id="W7klxGYHlzmc_tSxLxQi-43" value="" style="endArrow=none;html=1;rounded=0;exitX=0.985;exitY=0.015;exitDx=0;exitDy=0;exitPerimeter=0;entryX=0.145;entryY=0.855;entryDx=0;entryDy=0;entryPerimeter=0;" parent="1" source="W7klxGYHlzmc_tSxLxQi-200" target="W7klxGYHlzmc_tSxLxQi-42" edge="1">
          <mxGeometry width="50" height="50" relative="1" as="geometry">
            <mxPoint x="380.25" y="769.75" as="sourcePoint" />
            <mxPoint x="636.25" y="618.7499999999999" as="targetPoint" />
          </mxGeometry>
        </mxCell>
        <mxCell id="W7klxGYHlzmc_tSxLxQi-44" value="e0/1" style="text;html=1;strokeColor=none;fillColor=none;align=center;verticalAlign=middle;whiteSpace=wrap;rounded=0;" parent="1" vertex="1">
          <mxGeometry x="581" y="626" width="40" height="21" as="geometry" />
        </mxCell>
        <mxCell id="W7klxGYHlzmc_tSxLxQi-45" value="" style="endArrow=none;html=1;rounded=0;exitX=0.985;exitY=0.015;exitDx=0;exitDy=0;exitPerimeter=0;entryX=0.145;entryY=0.855;entryDx=0;entryDy=0;entryPerimeter=0;startArrow=none;" parent="1" source="W7klxGYHlzmc_tSxLxQi-42" target="W7klxGYHlzmc_tSxLxQi-44" edge="1">
          <mxGeometry width="50" height="50" relative="1" as="geometry">
            <mxPoint x="435.4" y="718.315" as="sourcePoint" />
            <mxPoint x="636.25" y="618.7499999999999" as="targetPoint" />
          </mxGeometry>
        </mxCell>
        <mxCell id="W7klxGYHlzmc_tSxLxQi-48" value="" style="endArrow=none;html=1;rounded=0;exitX=0.015;exitY=0.015;exitDx=0;exitDy=0;exitPerimeter=0;entryX=0.855;entryY=0.8555;entryDx=0;entryDy=0;entryPerimeter=0;startArrow=none;" parent="1" source="W7klxGYHlzmc_tSxLxQi-49" target="LB4oUW9Qehg8nWZua1mU-9" edge="1">
          <mxGeometry width="50" height="50" relative="1" as="geometry">
            <mxPoint x="476" y="705" as="sourcePoint" />
            <mxPoint x="526" y="655" as="targetPoint" />
          </mxGeometry>
        </mxCell>
        <mxCell id="W7klxGYHlzmc_tSxLxQi-49" value="e0/1" style="text;html=1;strokeColor=none;fillColor=none;align=center;verticalAlign=middle;whiteSpace=wrap;rounded=0;" parent="1" vertex="1">
          <mxGeometry x="386" y="626" width="40" height="21" as="geometry" />
        </mxCell>
        <mxCell id="W7klxGYHlzmc_tSxLxQi-50" value="" style="endArrow=none;html=1;rounded=0;exitX=0.015;exitY=0.015;exitDx=0;exitDy=0;exitPerimeter=0;entryX=0.855;entryY=0.8555;entryDx=0;entryDy=0;entryPerimeter=0;startArrow=none;" parent="1" source="W7klxGYHlzmc_tSxLxQi-51" target="W7klxGYHlzmc_tSxLxQi-49" edge="1">
          <mxGeometry width="50" height="50" relative="1" as="geometry">
            <mxPoint x="629.7500000000001" y="745.75" as="sourcePoint" />
            <mxPoint x="373.75" y="618.775" as="targetPoint" />
          </mxGeometry>
        </mxCell>
        <mxCell id="W7klxGYHlzmc_tSxLxQi-51" value="e1/1" style="text;html=1;strokeColor=none;fillColor=none;align=center;verticalAlign=middle;whiteSpace=wrap;rounded=0;" parent="1" vertex="1">
          <mxGeometry x="576" y="717" width="40" height="21" as="geometry" />
        </mxCell>
        <mxCell id="W7klxGYHlzmc_tSxLxQi-52" value="" style="endArrow=none;html=1;rounded=0;exitX=0.015;exitY=0.015;exitDx=0;exitDy=0;exitPerimeter=0;entryX=0.855;entryY=0.8555;entryDx=0;entryDy=0;entryPerimeter=0;" parent="1" source="W7klxGYHlzmc_tSxLxQi-201" target="W7klxGYHlzmc_tSxLxQi-51" edge="1">
          <mxGeometry width="50" height="50" relative="1" as="geometry">
            <mxPoint x="629.75" y="769.75" as="sourcePoint" />
            <mxPoint x="420.20000000000005" y="643.9655" as="targetPoint" />
          </mxGeometry>
        </mxCell>
        <mxCell id="W7klxGYHlzmc_tSxLxQi-65" value="" style="sketch=0;points=[[0.5,0,0],[1,0.5,0],[0.5,1,0],[0,0.5,0],[0.145,0.145,0],[0.8555,0.145,0],[0.855,0.8555,0],[0.145,0.855,0]];verticalLabelPosition=bottom;html=1;verticalAlign=top;aspect=fixed;align=center;pointerEvents=1;shape=mxgraph.cisco19.rect;prIcon=router;fillColor=#FAFAFA;strokeColor=#005073;" parent="1" vertex="1">
          <mxGeometry x="113" y="576" width="50" height="50" as="geometry" />
        </mxCell>
        <mxCell id="W7klxGYHlzmc_tSxLxQi-109" value="" style="sketch=0;points=[[0.015,0.015,0],[0.985,0.015,0],[0.985,0.985,0],[0.015,0.985,0],[0.25,0,0],[0.5,0,0],[0.75,0,0],[1,0.25,0],[1,0.5,0],[1,0.75,0],[0.75,1,0],[0.5,1,0],[0.25,1,0],[0,0.75,0],[0,0.5,0],[0,0.25,0]];verticalLabelPosition=bottom;html=1;verticalAlign=top;aspect=fixed;align=center;pointerEvents=1;shape=mxgraph.cisco19.rect;prIcon=l2_switch;fillColor=#FAFAFA;strokeColor=#005073;" parent="1" vertex="1">
          <mxGeometry x="331" y="939" width="50" height="50" as="geometry" />
        </mxCell>
        <mxCell id="W7klxGYHlzmc_tSxLxQi-110" value="" style="endArrow=none;html=1;rounded=0;exitX=0.5;exitY=0;exitDx=0;exitDy=0;exitPerimeter=0;entryX=0.5;entryY=1;entryDx=0;entryDy=0;entryPerimeter=0;startArrow=none;" parent="1" source="W7klxGYHlzmc_tSxLxQi-111" edge="1">
          <mxGeometry width="50" height="50" relative="1" as="geometry">
            <mxPoint x="511" y="859" as="sourcePoint" />
            <mxPoint x="356" y="819" as="targetPoint" />
          </mxGeometry>
        </mxCell>
        <mxCell id="W7klxGYHlzmc_tSxLxQi-111" value="e0/0" style="text;html=1;strokeColor=none;fillColor=none;align=center;verticalAlign=middle;whiteSpace=wrap;rounded=0;" parent="1" vertex="1">
          <mxGeometry x="341" y="826" width="30" height="20" as="geometry" />
        </mxCell>
        <mxCell id="W7klxGYHlzmc_tSxLxQi-112" value="" style="endArrow=none;html=1;rounded=0;exitX=0.5;exitY=0;exitDx=0;exitDy=0;exitPerimeter=0;entryX=0.5;entryY=1;entryDx=0;entryDy=0;entryPerimeter=0;startArrow=none;" parent="1" source="W7klxGYHlzmc_tSxLxQi-113" target="W7klxGYHlzmc_tSxLxQi-111" edge="1">
          <mxGeometry width="50" height="50" relative="1" as="geometry">
            <mxPoint x="356" y="940" as="sourcePoint" />
            <mxPoint x="356" y="819" as="targetPoint" />
          </mxGeometry>
        </mxCell>
        <mxCell id="W7klxGYHlzmc_tSxLxQi-113" value="e0/0" style="text;html=1;strokeColor=none;fillColor=none;align=center;verticalAlign=middle;whiteSpace=wrap;rounded=0;" parent="1" vertex="1">
          <mxGeometry x="341" y="912" width="30" height="20" as="geometry" />
        </mxCell>
        <mxCell id="W7klxGYHlzmc_tSxLxQi-114" value="" style="endArrow=none;html=1;rounded=0;exitX=0.5;exitY=0;exitDx=0;exitDy=0;exitPerimeter=0;entryX=0.5;entryY=1;entryDx=0;entryDy=0;entryPerimeter=0;" parent="1" target="W7klxGYHlzmc_tSxLxQi-113" edge="1">
          <mxGeometry width="50" height="50" relative="1" as="geometry">
            <mxPoint x="356" y="940" as="sourcePoint" />
            <mxPoint x="356" y="849" as="targetPoint" />
          </mxGeometry>
        </mxCell>
        <mxCell id="W7klxGYHlzmc_tSxLxQi-115" value="" style="sketch=0;points=[[0.015,0.015,0],[0.985,0.015,0],[0.985,0.985,0],[0.015,0.985,0],[0.25,0,0],[0.5,0,0],[0.75,0,0],[1,0.25,0],[1,0.5,0],[1,0.75,0],[0.75,1,0],[0.5,1,0],[0.25,1,0],[0,0.75,0],[0,0.5,0],[0,0.25,0]];verticalLabelPosition=bottom;html=1;verticalAlign=top;aspect=fixed;align=center;pointerEvents=1;shape=mxgraph.cisco19.rect;prIcon=l2_switch;fillColor=#FAFAFA;strokeColor=#005073;" parent="1" vertex="1">
          <mxGeometry x="629" y="939" width="50" height="50" as="geometry" />
        </mxCell>
        <mxCell id="W7klxGYHlzmc_tSxLxQi-116" value="" style="endArrow=none;html=1;rounded=0;exitX=0.5;exitY=0;exitDx=0;exitDy=0;exitPerimeter=0;entryX=0.5;entryY=1;entryDx=0;entryDy=0;entryPerimeter=0;startArrow=none;" parent="1" source="W7klxGYHlzmc_tSxLxQi-117" edge="1">
          <mxGeometry width="50" height="50" relative="1" as="geometry">
            <mxPoint x="809" y="859" as="sourcePoint" />
            <mxPoint x="654" y="819" as="targetPoint" />
          </mxGeometry>
        </mxCell>
        <mxCell id="W7klxGYHlzmc_tSxLxQi-117" value="e0/0" style="text;html=1;strokeColor=none;fillColor=none;align=center;verticalAlign=middle;whiteSpace=wrap;rounded=0;" parent="1" vertex="1">
          <mxGeometry x="639" y="826" width="30" height="20" as="geometry" />
        </mxCell>
        <mxCell id="W7klxGYHlzmc_tSxLxQi-118" value="" style="endArrow=none;html=1;rounded=0;exitX=0.5;exitY=0;exitDx=0;exitDy=0;exitPerimeter=0;entryX=0.5;entryY=1;entryDx=0;entryDy=0;entryPerimeter=0;startArrow=none;" parent="1" source="W7klxGYHlzmc_tSxLxQi-119" target="W7klxGYHlzmc_tSxLxQi-117" edge="1">
          <mxGeometry width="50" height="50" relative="1" as="geometry">
            <mxPoint x="654" y="940" as="sourcePoint" />
            <mxPoint x="654" y="819" as="targetPoint" />
          </mxGeometry>
        </mxCell>
        <mxCell id="W7klxGYHlzmc_tSxLxQi-119" value="e0/0" style="text;html=1;strokeColor=none;fillColor=none;align=center;verticalAlign=middle;whiteSpace=wrap;rounded=0;" parent="1" vertex="1">
          <mxGeometry x="639" y="912" width="30" height="20" as="geometry" />
        </mxCell>
        <mxCell id="W7klxGYHlzmc_tSxLxQi-120" value="" style="endArrow=none;html=1;rounded=0;exitX=0.5;exitY=0;exitDx=0;exitDy=0;exitPerimeter=0;entryX=0.5;entryY=1;entryDx=0;entryDy=0;entryPerimeter=0;" parent="1" target="W7klxGYHlzmc_tSxLxQi-119" edge="1">
          <mxGeometry width="50" height="50" relative="1" as="geometry">
            <mxPoint x="654" y="940.0000000000002" as="sourcePoint" />
            <mxPoint x="654" y="849" as="targetPoint" />
          </mxGeometry>
        </mxCell>
        <mxCell id="W7klxGYHlzmc_tSxLxQi-136" value="" style="endArrow=none;html=1;rounded=0;exitX=0.985;exitY=0.015;exitDx=0;exitDy=0;exitPerimeter=0;entryX=0.015;entryY=0.985;entryDx=0;entryDy=0;entryPerimeter=0;startArrow=none;" parent="1" source="W7klxGYHlzmc_tSxLxQi-142" edge="1">
          <mxGeometry width="50" height="50" relative="1" as="geometry">
            <mxPoint x="480" y="889" as="sourcePoint" />
            <mxPoint x="629.75" y="818.25" as="targetPoint" />
          </mxGeometry>
        </mxCell>
        <mxCell id="W7klxGYHlzmc_tSxLxQi-137" value="" style="endArrow=none;html=1;rounded=0;exitX=0.015;exitY=0.015;exitDx=0;exitDy=0;exitPerimeter=0;entryX=0.985;entryY=0.985;entryDx=0;entryDy=0;entryPerimeter=0;startArrow=none;" parent="1" source="W7klxGYHlzmc_tSxLxQi-140" edge="1">
          <mxGeometry width="50" height="50" relative="1" as="geometry">
            <mxPoint x="480" y="889" as="sourcePoint" />
            <mxPoint x="380.25" y="818.25" as="targetPoint" />
          </mxGeometry>
        </mxCell>
        <mxCell id="W7klxGYHlzmc_tSxLxQi-138" value="e0/1" style="text;html=1;strokeColor=none;fillColor=none;align=center;verticalAlign=middle;whiteSpace=wrap;rounded=0;" parent="1" vertex="1">
          <mxGeometry x="396" y="911" width="40" height="21" as="geometry" />
        </mxCell>
        <mxCell id="W7klxGYHlzmc_tSxLxQi-139" value="" style="endArrow=none;html=1;rounded=0;exitX=0.985;exitY=0.015;exitDx=0;exitDy=0;exitPerimeter=0;entryX=0.015;entryY=0.985;entryDx=0;entryDy=0;entryPerimeter=0;" parent="1" source="W7klxGYHlzmc_tSxLxQi-109" target="W7klxGYHlzmc_tSxLxQi-138" edge="1">
          <mxGeometry width="50" height="50" relative="1" as="geometry">
            <mxPoint x="380.25" y="939.75" as="sourcePoint" />
            <mxPoint x="629.75" y="818.25" as="targetPoint" />
          </mxGeometry>
        </mxCell>
        <mxCell id="W7klxGYHlzmc_tSxLxQi-140" value="e0/1" style="text;html=1;strokeColor=none;fillColor=none;align=center;verticalAlign=middle;whiteSpace=wrap;rounded=0;" parent="1" vertex="1">
          <mxGeometry x="400" y="827" width="31" height="21" as="geometry" />
        </mxCell>
        <mxCell id="W7klxGYHlzmc_tSxLxQi-141" value="" style="endArrow=none;html=1;rounded=0;exitX=0.015;exitY=0.015;exitDx=0;exitDy=0;exitPerimeter=0;entryX=0.985;entryY=0.985;entryDx=0;entryDy=0;entryPerimeter=0;startArrow=none;" parent="1" source="W7klxGYHlzmc_tSxLxQi-145" target="W7klxGYHlzmc_tSxLxQi-140" edge="1">
          <mxGeometry width="50" height="50" relative="1" as="geometry">
            <mxPoint x="629.75" y="939.75" as="sourcePoint" />
            <mxPoint x="380.25" y="818.25" as="targetPoint" />
          </mxGeometry>
        </mxCell>
        <mxCell id="W7klxGYHlzmc_tSxLxQi-142" value="e0/1" style="text;html=1;strokeColor=none;fillColor=none;align=center;verticalAlign=middle;whiteSpace=wrap;rounded=0;" parent="1" vertex="1">
          <mxGeometry x="576" y="825" width="40" height="21" as="geometry" />
        </mxCell>
        <mxCell id="W7klxGYHlzmc_tSxLxQi-144" value="" style="endArrow=none;html=1;rounded=0;exitX=0.985;exitY=0.015;exitDx=0;exitDy=0;exitPerimeter=0;entryX=0.015;entryY=0.985;entryDx=0;entryDy=0;entryPerimeter=0;startArrow=none;" parent="1" source="W7klxGYHlzmc_tSxLxQi-138" target="W7klxGYHlzmc_tSxLxQi-142" edge="1">
          <mxGeometry width="50" height="50" relative="1" as="geometry">
            <mxPoint x="435.4" y="911.3150000000003" as="sourcePoint" />
            <mxPoint x="629.75" y="818.25" as="targetPoint" />
          </mxGeometry>
        </mxCell>
        <mxCell id="W7klxGYHlzmc_tSxLxQi-145" value="e0/1" style="text;html=1;strokeColor=none;fillColor=none;align=center;verticalAlign=middle;whiteSpace=wrap;rounded=0;" parent="1" vertex="1">
          <mxGeometry x="576" y="912" width="40" height="21" as="geometry" />
        </mxCell>
        <mxCell id="W7klxGYHlzmc_tSxLxQi-146" value="" style="endArrow=none;html=1;rounded=0;exitX=0.015;exitY=0.015;exitDx=0;exitDy=0;exitPerimeter=0;entryX=0.985;entryY=0.985;entryDx=0;entryDy=0;entryPerimeter=0;" parent="1" source="W7klxGYHlzmc_tSxLxQi-115" target="W7klxGYHlzmc_tSxLxQi-145" edge="1">
          <mxGeometry width="50" height="50" relative="1" as="geometry">
            <mxPoint x="629.75" y="939.75" as="sourcePoint" />
            <mxPoint x="430.4" y="839.6850000000002" as="targetPoint" />
          </mxGeometry>
        </mxCell>
        <mxCell id="W7klxGYHlzmc_tSxLxQi-148" value="" style="endArrow=none;html=1;rounded=0;exitX=0.8555;exitY=0.145;exitDx=0;exitDy=0;exitPerimeter=0;entryX=0.145;entryY=0.855;entryDx=0;entryDy=0;entryPerimeter=0;startArrow=none;" parent="1" source="W7klxGYHlzmc_tSxLxQi-154" target="LB4oUW9Qehg8nWZua1mU-3" edge="1">
          <mxGeometry width="50" height="50" relative="1" as="geometry">
            <mxPoint x="320" y="665" as="sourcePoint" />
            <mxPoint x="370" y="615" as="targetPoint" />
          </mxGeometry>
        </mxCell>
        <mxCell id="W7klxGYHlzmc_tSxLxQi-149" value="" style="endArrow=none;html=1;rounded=0;exitX=1;exitY=0.5;exitDx=0;exitDy=0;exitPerimeter=0;entryX=0.06;entryY=0.7;entryDx=0;entryDy=0;entryPerimeter=0;startArrow=none;" parent="1" source="W7klxGYHlzmc_tSxLxQi-157" target="LB4oUW9Qehg8nWZua1mU-4" edge="1">
          <mxGeometry width="50" height="50" relative="1" as="geometry">
            <mxPoint x="220" y="645" as="sourcePoint" />
            <mxPoint x="370" y="615" as="targetPoint" />
          </mxGeometry>
        </mxCell>
        <mxCell id="W7klxGYHlzmc_tSxLxQi-147" value="e0/0" style="text;html=1;strokeColor=none;fillColor=none;align=center;verticalAlign=middle;whiteSpace=wrap;rounded=0;" parent="1" vertex="1">
          <mxGeometry x="174" y="552" width="27" height="19" as="geometry" />
        </mxCell>
        <mxCell id="W7klxGYHlzmc_tSxLxQi-151" value="" style="endArrow=none;html=1;rounded=0;exitX=0.8555;exitY=0.145;exitDx=0;exitDy=0;exitPerimeter=0;entryX=0.145;entryY=0.855;entryDx=0;entryDy=0;entryPerimeter=0;" parent="1" source="W7klxGYHlzmc_tSxLxQi-65" target="W7klxGYHlzmc_tSxLxQi-147" edge="1">
          <mxGeometry width="50" height="50" relative="1" as="geometry">
            <mxPoint x="155.7750000000001" y="583.2499999999998" as="sourcePoint" />
            <mxPoint x="338.25" y="447.75" as="targetPoint" />
          </mxGeometry>
        </mxCell>
        <mxCell id="W7klxGYHlzmc_tSxLxQi-150" value="e0/1" style="text;html=1;strokeColor=none;fillColor=none;align=center;verticalAlign=middle;whiteSpace=wrap;rounded=0;" parent="1" vertex="1">
          <mxGeometry x="190" y="569" width="26" height="29" as="geometry" />
        </mxCell>
        <mxCell id="W7klxGYHlzmc_tSxLxQi-153" value="" style="endArrow=none;html=1;rounded=0;exitX=1;exitY=0.5;exitDx=0;exitDy=0;exitPerimeter=0;entryX=0.06;entryY=0.7;entryDx=0;entryDy=0;entryPerimeter=0;" parent="1" source="W7klxGYHlzmc_tSxLxQi-65" target="W7klxGYHlzmc_tSxLxQi-150" edge="1">
          <mxGeometry width="50" height="50" relative="1" as="geometry">
            <mxPoint x="162.99999999999994" y="601" as="sourcePoint" />
            <mxPoint x="632.0000000000001" y="440" as="targetPoint" />
          </mxGeometry>
        </mxCell>
        <mxCell id="W7klxGYHlzmc_tSxLxQi-154" value="e0/3" style="text;html=1;strokeColor=none;fillColor=none;align=center;verticalAlign=middle;whiteSpace=wrap;rounded=0;" parent="1" vertex="1">
          <mxGeometry x="300" y="455" width="31" height="21" as="geometry" />
        </mxCell>
        <mxCell id="W7klxGYHlzmc_tSxLxQi-155" value="" style="endArrow=none;html=1;rounded=0;exitX=0.8555;exitY=0.145;exitDx=0;exitDy=0;exitPerimeter=0;entryX=0.145;entryY=0.855;entryDx=0;entryDy=0;entryPerimeter=0;startArrow=none;" parent="1" source="W7klxGYHlzmc_tSxLxQi-147" target="W7klxGYHlzmc_tSxLxQi-154" edge="1">
          <mxGeometry width="50" height="50" relative="1" as="geometry">
            <mxPoint x="197.09849999999994" y="554.7550000000001" as="sourcePoint" />
            <mxPoint x="338.25" y="447.75" as="targetPoint" />
          </mxGeometry>
        </mxCell>
        <mxCell id="W7klxGYHlzmc_tSxLxQi-157" value="e0/5" style="text;html=1;strokeColor=none;fillColor=none;align=center;verticalAlign=middle;whiteSpace=wrap;rounded=0;" parent="1" vertex="1">
          <mxGeometry x="584" y="440" width="24" height="21" as="geometry" />
        </mxCell>
        <mxCell id="W7klxGYHlzmc_tSxLxQi-158" value="" style="endArrow=none;html=1;rounded=0;exitX=1;exitY=0.5;exitDx=0;exitDy=0;exitPerimeter=0;entryX=0.06;entryY=0.7;entryDx=0;entryDy=0;entryPerimeter=0;startArrow=none;" parent="1" source="W7klxGYHlzmc_tSxLxQi-150" target="W7klxGYHlzmc_tSxLxQi-157" edge="1">
          <mxGeometry width="50" height="50" relative="1" as="geometry">
            <mxPoint x="216" y="583.5000000000001" as="sourcePoint" />
            <mxPoint x="632" y="440" as="targetPoint" />
          </mxGeometry>
        </mxCell>
        <mxCell id="W7klxGYHlzmc_tSxLxQi-159" value="" style="points=[[0.03,0.03,0],[0.5,0,0],[0.97,0.03,0],[1,0.4,0],[0.97,0.745,0],[0.5,1,0],[0.03,0.745,0],[0,0.4,0]];verticalLabelPosition=bottom;sketch=0;html=1;verticalAlign=top;aspect=fixed;align=center;pointerEvents=1;shape=mxgraph.cisco19.workstation;fillColor=#005073;strokeColor=none;" parent="1" vertex="1">
          <mxGeometry x="331" y="1109" width="50" height="40" as="geometry" />
        </mxCell>
        <mxCell id="W7klxGYHlzmc_tSxLxQi-160" value="" style="endArrow=none;html=1;rounded=0;exitX=0.5;exitY=0;exitDx=0;exitDy=0;exitPerimeter=0;entryX=0.5;entryY=1;entryDx=0;entryDy=0;entryPerimeter=0;startArrow=none;" parent="1" source="W7klxGYHlzmc_tSxLxQi-161" edge="1">
          <mxGeometry width="50" height="50" relative="1" as="geometry">
            <mxPoint x="511" y="1028" as="sourcePoint" />
            <mxPoint x="356" y="988" as="targetPoint" />
          </mxGeometry>
        </mxCell>
        <mxCell id="W7klxGYHlzmc_tSxLxQi-161" value="e0/2" style="text;html=1;strokeColor=none;fillColor=none;align=center;verticalAlign=middle;whiteSpace=wrap;rounded=0;" parent="1" vertex="1">
          <mxGeometry x="341" y="995" width="30" height="20" as="geometry" />
        </mxCell>
        <mxCell id="W7klxGYHlzmc_tSxLxQi-162" value="" style="endArrow=none;html=1;rounded=0;exitX=0.5;exitY=0;exitDx=0;exitDy=0;exitPerimeter=0;entryX=0.5;entryY=1;entryDx=0;entryDy=0;entryPerimeter=0;startArrow=none;" parent="1" source="W7klxGYHlzmc_tSxLxQi-163" target="W7klxGYHlzmc_tSxLxQi-161" edge="1">
          <mxGeometry width="50" height="50" relative="1" as="geometry">
            <mxPoint x="356" y="1109" as="sourcePoint" />
            <mxPoint x="356" y="988" as="targetPoint" />
          </mxGeometry>
        </mxCell>
        <mxCell id="W7klxGYHlzmc_tSxLxQi-163" value="eth0" style="text;html=1;strokeColor=none;fillColor=none;align=center;verticalAlign=middle;whiteSpace=wrap;rounded=0;" parent="1" vertex="1">
          <mxGeometry x="341" y="1081" width="30" height="20" as="geometry" />
        </mxCell>
        <mxCell id="W7klxGYHlzmc_tSxLxQi-164" value="" style="endArrow=none;html=1;rounded=0;exitX=0.5;exitY=0;exitDx=0;exitDy=0;exitPerimeter=0;entryX=0.5;entryY=1;entryDx=0;entryDy=0;entryPerimeter=0;" parent="1" target="W7klxGYHlzmc_tSxLxQi-163" edge="1">
          <mxGeometry width="50" height="50" relative="1" as="geometry">
            <mxPoint x="356" y="1109" as="sourcePoint" />
            <mxPoint x="356" y="1018" as="targetPoint" />
          </mxGeometry>
        </mxCell>
        <mxCell id="W7klxGYHlzmc_tSxLxQi-165" value="&lt;b&gt;R12&lt;/b&gt;" style="text;html=1;strokeColor=none;fillColor=none;align=right;verticalAlign=middle;whiteSpace=wrap;rounded=0;" parent="1" vertex="1">
          <mxGeometry x="300" y="577.25" width="30" height="30" as="geometry" />
        </mxCell>
        <mxCell id="W7klxGYHlzmc_tSxLxQi-166" value="&lt;b&gt;SW4&lt;/b&gt;" style="text;html=1;strokeColor=none;fillColor=none;align=right;verticalAlign=middle;whiteSpace=wrap;rounded=0;" parent="1" vertex="1">
          <mxGeometry x="290" y="779" width="41" height="30" as="geometry" />
        </mxCell>
        <mxCell id="W7klxGYHlzmc_tSxLxQi-167" value="&lt;b&gt;SW3&lt;/b&gt;" style="text;html=1;strokeColor=none;fillColor=none;align=right;verticalAlign=middle;whiteSpace=wrap;rounded=0;" parent="1" vertex="1">
          <mxGeometry x="280" y="939" width="51" height="30" as="geometry" />
        </mxCell>
        <mxCell id="W7klxGYHlzmc_tSxLxQi-168" value="&lt;b&gt;VPC1&lt;/b&gt;" style="text;html=1;strokeColor=none;fillColor=none;align=center;verticalAlign=middle;whiteSpace=wrap;rounded=0;" parent="1" vertex="1">
          <mxGeometry x="331" y="1149" width="51" height="30" as="geometry" />
        </mxCell>
        <mxCell id="W7klxGYHlzmc_tSxLxQi-169" value="" style="points=[[0.03,0.03,0],[0.5,0,0],[0.97,0.03,0],[1,0.4,0],[0.97,0.745,0],[0.5,1,0],[0.03,0.745,0],[0,0.4,0]];verticalLabelPosition=bottom;sketch=0;html=1;verticalAlign=top;aspect=fixed;align=center;pointerEvents=1;shape=mxgraph.cisco19.workstation;fillColor=#005073;strokeColor=none;" parent="1" vertex="1">
          <mxGeometry x="632" y="1110" width="50" height="40" as="geometry" />
        </mxCell>
        <mxCell id="W7klxGYHlzmc_tSxLxQi-170" value="" style="endArrow=none;html=1;rounded=0;exitX=0.5;exitY=0;exitDx=0;exitDy=0;exitPerimeter=0;entryX=0.5;entryY=1;entryDx=0;entryDy=0;entryPerimeter=0;startArrow=none;" parent="1" source="W7klxGYHlzmc_tSxLxQi-171" edge="1">
          <mxGeometry width="50" height="50" relative="1" as="geometry">
            <mxPoint x="812" y="1029" as="sourcePoint" />
            <mxPoint x="657" y="989" as="targetPoint" />
          </mxGeometry>
        </mxCell>
        <mxCell id="W7klxGYHlzmc_tSxLxQi-171" value="e0/2" style="text;html=1;strokeColor=none;fillColor=none;align=center;verticalAlign=middle;whiteSpace=wrap;rounded=0;" parent="1" vertex="1">
          <mxGeometry x="642" y="996" width="30" height="20" as="geometry" />
        </mxCell>
        <mxCell id="W7klxGYHlzmc_tSxLxQi-172" value="" style="endArrow=none;html=1;rounded=0;exitX=0.5;exitY=0;exitDx=0;exitDy=0;exitPerimeter=0;entryX=0.5;entryY=1;entryDx=0;entryDy=0;entryPerimeter=0;startArrow=none;" parent="1" source="W7klxGYHlzmc_tSxLxQi-173" target="W7klxGYHlzmc_tSxLxQi-171" edge="1">
          <mxGeometry width="50" height="50" relative="1" as="geometry">
            <mxPoint x="657" y="1110" as="sourcePoint" />
            <mxPoint x="657" y="989" as="targetPoint" />
          </mxGeometry>
        </mxCell>
        <mxCell id="W7klxGYHlzmc_tSxLxQi-173" value="eth0" style="text;html=1;strokeColor=none;fillColor=none;align=center;verticalAlign=middle;whiteSpace=wrap;rounded=0;" parent="1" vertex="1">
          <mxGeometry x="642" y="1082" width="30" height="20" as="geometry" />
        </mxCell>
        <mxCell id="W7klxGYHlzmc_tSxLxQi-174" value="" style="endArrow=none;html=1;rounded=0;exitX=0.5;exitY=0;exitDx=0;exitDy=0;exitPerimeter=0;entryX=0.5;entryY=1;entryDx=0;entryDy=0;entryPerimeter=0;" parent="1" target="W7klxGYHlzmc_tSxLxQi-173" edge="1">
          <mxGeometry width="50" height="50" relative="1" as="geometry">
            <mxPoint x="657" y="1110" as="sourcePoint" />
            <mxPoint x="657" y="1019" as="targetPoint" />
          </mxGeometry>
        </mxCell>
        <mxCell id="W7klxGYHlzmc_tSxLxQi-175" value="&lt;b&gt;VPC7&lt;/b&gt;" style="text;html=1;strokeColor=none;fillColor=none;align=center;verticalAlign=middle;whiteSpace=wrap;rounded=0;" parent="1" vertex="1">
          <mxGeometry x="632" y="1150" width="51" height="30" as="geometry" />
        </mxCell>
        <mxCell id="W7klxGYHlzmc_tSxLxQi-176" value="&lt;div style=&quot;&quot;&gt;&lt;span style=&quot;font-family: &amp;quot;Lucida Console&amp;quot;; background-color: initial;&quot;&gt;2ccc:0:3e9::/64&lt;/span&gt;&lt;/div&gt;&lt;font face=&quot;Lucida Console&quot;&gt;&lt;div style=&quot;&quot;&gt;&lt;span style=&quot;background-color: initial;&quot;&gt;VLAN 100&lt;/span&gt;&lt;/div&gt;&lt;/font&gt;" style="text;html=1;strokeColor=none;fillColor=none;align=right;verticalAlign=middle;whiteSpace=wrap;rounded=0;" parent="1" vertex="1">
          <mxGeometry x="260" y="1029" width="84" height="30" as="geometry" />
        </mxCell>
        <mxCell id="W7klxGYHlzmc_tSxLxQi-177" value="&lt;div style=&quot;text-align: right;&quot;&gt;&lt;span style=&quot;font-family: &amp;quot;Lucida Console&amp;quot;; background-color: initial;&quot;&gt;2ccc:0:3e9:1::/64&lt;/span&gt;&lt;/div&gt;&lt;font face=&quot;Lucida Console&quot;&gt;&lt;div style=&quot;text-align: right;&quot;&gt;&lt;span style=&quot;background-color: initial;&quot;&gt;VLAN 110&lt;/span&gt;&lt;/div&gt;&lt;/font&gt;" style="text;html=1;strokeColor=none;fillColor=none;align=center;verticalAlign=middle;whiteSpace=wrap;rounded=0;" parent="1" vertex="1">
          <mxGeometry x="560" y="1029" width="60" height="30" as="geometry" />
        </mxCell>
        <mxCell id="W7klxGYHlzmc_tSxLxQi-179" value="&lt;font style=&quot;font-size: 10px;&quot; face=&quot;Lucida Console&quot;&gt;SVI: VLAN 10: 2ccc:0:3e9:fffe::2&lt;/font&gt;" style="text;html=1;strokeColor=none;fillColor=none;align=left;verticalAlign=middle;whiteSpace=wrap;rounded=0;" parent="1" vertex="1">
          <mxGeometry x="681" y="959" width="239" height="30" as="geometry" />
        </mxCell>
        <mxCell id="W7klxGYHlzmc_tSxLxQi-180" value="&lt;b&gt;SW2&lt;/b&gt;" style="text;html=1;strokeColor=none;fillColor=none;align=left;verticalAlign=middle;whiteSpace=wrap;rounded=0;" parent="1" vertex="1">
          <mxGeometry x="679" y="939" width="51" height="30" as="geometry" />
        </mxCell>
        <mxCell id="W7klxGYHlzmc_tSxLxQi-181" value="&lt;font style=&quot;font-size: 10px;&quot; face=&quot;Lucida Console&quot;&gt;SVI: VLAN 10:&amp;nbsp;2ccc:0:3e9:fffe::3&lt;/font&gt;" style="text;html=1;strokeColor=none;fillColor=none;align=right;verticalAlign=middle;whiteSpace=wrap;rounded=0;" parent="1" vertex="1">
          <mxGeometry x="90" y="959" width="240" height="30" as="geometry" />
        </mxCell>
        <mxCell id="W7klxGYHlzmc_tSxLxQi-182" value="&lt;font style=&quot;font-size: 10px;&quot;&gt;2ccc:0:3e9:fffd::3:0/126&lt;/font&gt;" style="text;html=1;strokeColor=none;fillColor=none;align=center;verticalAlign=middle;whiteSpace=wrap;rounded=0;fontFamily=Lucida Console;" parent="1" vertex="1">
          <mxGeometry x="682" y="675" width="60" height="30" as="geometry" />
        </mxCell>
        <mxCell id="W7klxGYHlzmc_tSxLxQi-183" value="&lt;b&gt;SW5&lt;/b&gt;" style="text;html=1;strokeColor=none;fillColor=none;align=left;verticalAlign=middle;whiteSpace=wrap;rounded=0;" parent="1" vertex="1">
          <mxGeometry x="679" y="779" width="41" height="30" as="geometry" />
        </mxCell>
        <mxCell id="W7klxGYHlzmc_tSxLxQi-184" value="&lt;b&gt;R14&lt;/b&gt;" style="text;html=1;strokeColor=none;fillColor=none;align=right;verticalAlign=middle;whiteSpace=wrap;rounded=0;" parent="1" vertex="1">
          <mxGeometry x="300" y="406" width="30" height="30" as="geometry" />
        </mxCell>
        <mxCell id="W7klxGYHlzmc_tSxLxQi-185" value="&lt;b&gt;R13&lt;/b&gt;" style="text;html=1;strokeColor=none;fillColor=none;align=left;verticalAlign=middle;whiteSpace=wrap;rounded=0;" parent="1" vertex="1">
          <mxGeometry x="681" y="578" width="30" height="30" as="geometry" />
        </mxCell>
        <mxCell id="W7klxGYHlzmc_tSxLxQi-186" value="&lt;b&gt;R15&lt;br&gt;&lt;/b&gt;" style="text;html=1;strokeColor=none;fillColor=none;align=left;verticalAlign=middle;whiteSpace=wrap;rounded=0;" parent="1" vertex="1">
          <mxGeometry x="681" y="404.5" width="30" height="30" as="geometry" />
        </mxCell>
        <mxCell id="W7klxGYHlzmc_tSxLxQi-187" value="&lt;font style=&quot;font-size: 10px;&quot;&gt;2ccc:0:3e9:fffd::/126&lt;/font&gt;" style="text;html=1;strokeColor=none;fillColor=none;align=center;verticalAlign=middle;whiteSpace=wrap;rounded=0;fontFamily=Lucida Console;" parent="1" vertex="1">
          <mxGeometry x="245" y="675" width="60" height="30" as="geometry" />
        </mxCell>
        <mxCell id="W7klxGYHlzmc_tSxLxQi-189" value="&lt;font style=&quot;font-size: 10px;&quot;&gt;2ccc:0:3e9:fffd::2:0/126&lt;/font&gt;" style="text;html=1;strokeColor=none;fillColor=none;align=center;verticalAlign=middle;whiteSpace=wrap;rounded=0;fontFamily=Lucida Console;" parent="1" vertex="1">
          <mxGeometry x="471" y="576" width="60" height="30" as="geometry" />
        </mxCell>
        <mxCell id="W7klxGYHlzmc_tSxLxQi-190" value="&lt;font style=&quot;font-size: 10px;&quot;&gt;2ccc:0:3e9:fffd::4:0/126&lt;/font&gt;" style="text;html=1;strokeColor=none;fillColor=none;align=center;verticalAlign=middle;whiteSpace=wrap;rounded=0;fontFamily=Lucida Console;rotation=30;" parent="1" vertex="1">
          <mxGeometry x="549.5" y="689" width="60" height="30" as="geometry" />
        </mxCell>
        <mxCell id="W7klxGYHlzmc_tSxLxQi-194" value="&lt;span style=&quot;font-size: 10px;&quot;&gt;lo: 2ccc:0:3e9:ffff::12&lt;/span&gt;" style="text;html=1;strokeColor=none;fillColor=none;align=center;verticalAlign=middle;whiteSpace=wrap;rounded=0;fontFamily=Lucida Console;" parent="1" vertex="1">
          <mxGeometry x="183" y="595" width="148" height="30" as="geometry" />
        </mxCell>
        <mxCell id="W7klxGYHlzmc_tSxLxQi-195" value="&lt;span style=&quot;font-size: 10px;&quot;&gt;lo: 2ccc:0:3e9:ffff::13&lt;/span&gt;" style="text;html=1;strokeColor=none;fillColor=none;align=center;verticalAlign=middle;whiteSpace=wrap;rounded=0;fontFamily=Lucida Console;" parent="1" vertex="1">
          <mxGeometry x="674" y="596" width="146" height="30" as="geometry" />
        </mxCell>
        <mxCell id="W7klxGYHlzmc_tSxLxQi-200" value="" style="sketch=0;points=[[0.015,0.015,0],[0.985,0.015,0],[0.985,0.985,0],[0.015,0.985,0],[0.25,0,0],[0.5,0,0],[0.75,0,0],[1,0.25,0],[1,0.5,0],[1,0.75,0],[0.75,1,0],[0.5,1,0],[0.25,1,0],[0,0.75,0],[0,0.5,0],[0,0.25,0]];verticalLabelPosition=bottom;html=1;verticalAlign=top;aspect=fixed;align=center;pointerEvents=1;shape=mxgraph.cisco19.rect;prIcon=l3_modular;fillColor=#FAFAFA;strokeColor=#005073;fontFamily=Lucida Console;" parent="1" vertex="1">
          <mxGeometry x="332" y="745" width="50" height="73" as="geometry" />
        </mxCell>
        <mxCell id="W7klxGYHlzmc_tSxLxQi-201" value="" style="sketch=0;points=[[0.015,0.015,0],[0.985,0.015,0],[0.985,0.985,0],[0.015,0.985,0],[0.25,0,0],[0.5,0,0],[0.75,0,0],[1,0.25,0],[1,0.5,0],[1,0.75,0],[0.75,1,0],[0.5,1,0],[0.25,1,0],[0,0.75,0],[0,0.5,0],[0,0.25,0]];verticalLabelPosition=bottom;html=1;verticalAlign=top;aspect=fixed;align=center;pointerEvents=1;shape=mxgraph.cisco19.rect;prIcon=l3_modular;fillColor=#FAFAFA;strokeColor=#005073;fontFamily=Lucida Console;" parent="1" vertex="1">
          <mxGeometry x="630" y="745" width="50" height="73" as="geometry" />
        </mxCell>
        <mxCell id="W7klxGYHlzmc_tSxLxQi-202" value="&lt;b&gt;R19&lt;/b&gt;" style="text;html=1;strokeColor=none;fillColor=none;align=center;verticalAlign=middle;whiteSpace=wrap;rounded=0;" parent="1" vertex="1">
          <mxGeometry x="123" y="622" width="30" height="30" as="geometry" />
        </mxCell>
        <mxCell id="W7klxGYHlzmc_tSxLxQi-203" value="" style="sketch=0;points=[[0.5,0,0],[1,0.5,0],[0.5,1,0],[0,0.5,0],[0.145,0.145,0],[0.8555,0.145,0],[0.855,0.8555,0],[0.145,0.855,0]];verticalLabelPosition=bottom;html=1;verticalAlign=top;aspect=fixed;align=center;pointerEvents=1;shape=mxgraph.cisco19.rect;prIcon=router;fillColor=#FAFAFA;strokeColor=#005073;" parent="1" vertex="1">
          <mxGeometry x="847" y="576" width="50" height="50" as="geometry" />
        </mxCell>
        <mxCell id="W7klxGYHlzmc_tSxLxQi-220" value="&lt;b&gt;R20&lt;/b&gt;" style="text;html=1;strokeColor=none;fillColor=none;align=center;verticalAlign=middle;whiteSpace=wrap;rounded=0;" parent="1" vertex="1">
          <mxGeometry x="859" y="622" width="30" height="30" as="geometry" />
        </mxCell>
        <mxCell id="W7klxGYHlzmc_tSxLxQi-221" value="" style="endArrow=none;html=1;rounded=0;fontFamily=Lucida Console;entryX=0.855;entryY=0.8555;entryDx=0;entryDy=0;entryPerimeter=0;exitX=0.145;exitY=0.145;exitDx=0;exitDy=0;exitPerimeter=0;startArrow=none;" parent="1" source="W7klxGYHlzmc_tSxLxQi-227" target="LB4oUW9Qehg8nWZua1mU-4" edge="1">
          <mxGeometry width="50" height="50" relative="1" as="geometry">
            <mxPoint x="700" y="735" as="sourcePoint" />
            <mxPoint x="750" y="685" as="targetPoint" />
          </mxGeometry>
        </mxCell>
        <mxCell id="W7klxGYHlzmc_tSxLxQi-222" value="" style="endArrow=none;html=1;rounded=0;fontFamily=Lucida Console;exitX=0;exitY=0.5;exitDx=0;exitDy=0;exitPerimeter=0;entryX=0.95;entryY=0.697;entryDx=0;entryDy=0;entryPerimeter=0;startArrow=none;" parent="1" source="W7klxGYHlzmc_tSxLxQi-224" target="LB4oUW9Qehg8nWZua1mU-3" edge="1">
          <mxGeometry width="50" height="50" relative="1" as="geometry">
            <mxPoint x="700" y="735" as="sourcePoint" />
            <mxPoint x="750" y="685" as="targetPoint" />
          </mxGeometry>
        </mxCell>
        <mxCell id="W7klxGYHlzmc_tSxLxQi-224" value="e0/5" style="text;html=1;strokeColor=none;fillColor=none;align=center;verticalAlign=middle;whiteSpace=wrap;rounded=0;" parent="1" vertex="1">
          <mxGeometry x="394" y="438" width="26" height="16" as="geometry" />
        </mxCell>
        <mxCell id="W7klxGYHlzmc_tSxLxQi-225" value="" style="endArrow=none;html=1;rounded=0;fontFamily=Lucida Console;exitX=0;exitY=0.5;exitDx=0;exitDy=0;exitPerimeter=0;entryX=0.95;entryY=0.697;entryDx=0;entryDy=0;entryPerimeter=0;startArrow=none;" parent="1" source="W7klxGYHlzmc_tSxLxQi-231" target="W7klxGYHlzmc_tSxLxQi-224" edge="1">
          <mxGeometry width="50" height="50" relative="1" as="geometry">
            <mxPoint x="847" y="601" as="sourcePoint" />
            <mxPoint x="378.5" y="439.85" as="targetPoint" />
          </mxGeometry>
        </mxCell>
        <mxCell id="W7klxGYHlzmc_tSxLxQi-226" value="&lt;span style=&quot;font-size: 10px;&quot;&gt;lo: 2ccc:0:3e9:ffff::20&lt;/span&gt;" style="text;html=1;strokeColor=none;fillColor=none;align=center;verticalAlign=middle;whiteSpace=wrap;rounded=0;fontFamily=Lucida Console;" parent="1" vertex="1">
          <mxGeometry x="770" y="635" width="143" height="30" as="geometry" />
        </mxCell>
        <mxCell id="W7klxGYHlzmc_tSxLxQi-227" value="e0/3" style="text;html=1;strokeColor=none;fillColor=none;align=center;verticalAlign=middle;whiteSpace=wrap;rounded=0;" parent="1" vertex="1">
          <mxGeometry x="681" y="454" width="31" height="21" as="geometry" />
        </mxCell>
        <mxCell id="W7klxGYHlzmc_tSxLxQi-228" value="" style="endArrow=none;html=1;rounded=0;fontFamily=Lucida Console;entryX=0.855;entryY=0.8555;entryDx=0;entryDy=0;entryPerimeter=0;exitX=0.145;exitY=0.145;exitDx=0;exitDy=0;exitPerimeter=0;startArrow=none;" parent="1" source="W7klxGYHlzmc_tSxLxQi-229" target="W7klxGYHlzmc_tSxLxQi-227" edge="1">
          <mxGeometry width="50" height="50" relative="1" as="geometry">
            <mxPoint x="854.2499999999998" y="583.25" as="sourcePoint" />
            <mxPoint x="671.7500000000002" y="447.775" as="targetPoint" />
          </mxGeometry>
        </mxCell>
        <mxCell id="W7klxGYHlzmc_tSxLxQi-229" value="e0/0" style="text;html=1;strokeColor=none;fillColor=none;align=center;verticalAlign=middle;whiteSpace=wrap;rounded=0;" parent="1" vertex="1">
          <mxGeometry x="810" y="552" width="27" height="19" as="geometry" />
        </mxCell>
        <mxCell id="W7klxGYHlzmc_tSxLxQi-230" value="" style="endArrow=none;html=1;rounded=0;fontFamily=Lucida Console;entryX=0.855;entryY=0.8555;entryDx=0;entryDy=0;entryPerimeter=0;exitX=0.145;exitY=0.145;exitDx=0;exitDy=0;exitPerimeter=0;" parent="1" source="W7klxGYHlzmc_tSxLxQi-203" target="W7klxGYHlzmc_tSxLxQi-229" edge="1">
          <mxGeometry width="50" height="50" relative="1" as="geometry">
            <mxPoint x="854.25" y="583.25" as="sourcePoint" />
            <mxPoint x="707.5050000000001" y="471.9654999999999" as="targetPoint" />
          </mxGeometry>
        </mxCell>
        <mxCell id="W7klxGYHlzmc_tSxLxQi-231" value="e0/1" style="text;html=1;strokeColor=none;fillColor=none;align=center;verticalAlign=middle;whiteSpace=wrap;rounded=0;" parent="1" vertex="1">
          <mxGeometry x="790" y="568" width="26" height="29" as="geometry" />
        </mxCell>
        <mxCell id="W7klxGYHlzmc_tSxLxQi-232" value="" style="endArrow=none;html=1;rounded=0;fontFamily=Lucida Console;exitX=0;exitY=0.5;exitDx=0;exitDy=0;exitPerimeter=0;entryX=0.95;entryY=0.697;entryDx=0;entryDy=0;entryPerimeter=0;" parent="1" source="W7klxGYHlzmc_tSxLxQi-203" target="W7klxGYHlzmc_tSxLxQi-231" edge="1">
          <mxGeometry width="50" height="50" relative="1" as="geometry">
            <mxPoint x="847" y="601" as="sourcePoint" />
            <mxPoint x="418.70000000000005" y="449.15199999999993" as="targetPoint" />
          </mxGeometry>
        </mxCell>
        <mxCell id="W7klxGYHlzmc_tSxLxQi-233" value="&lt;span style=&quot;font-size: 10px;&quot;&gt;lo: 2ccc:0:3e9:ffff::19&lt;/span&gt;" style="text;html=1;strokeColor=none;fillColor=none;align=center;verticalAlign=middle;whiteSpace=wrap;rounded=0;fontFamily=Lucida Console;" parent="1" vertex="1">
          <mxGeometry x="94" y="635" width="156" height="30" as="geometry" />
        </mxCell>
        <mxCell id="W7klxGYHlzmc_tSxLxQi-234" value="&lt;span style=&quot;font-size: 10px;&quot;&gt;lo: 2ccc:0:3e9:ffff::14&lt;/span&gt;" style="text;html=1;strokeColor=none;fillColor=none;align=center;verticalAlign=middle;whiteSpace=wrap;rounded=0;fontFamily=Lucida Console;" parent="1" vertex="1">
          <mxGeometry x="183" y="418.5" width="150" height="30" as="geometry" />
        </mxCell>
        <mxCell id="W7klxGYHlzmc_tSxLxQi-235" value="&lt;span style=&quot;font-size: 10px;&quot;&gt;lo: 2ccc:0:3e9:ffff::15&lt;/span&gt;" style="text;html=1;strokeColor=none;fillColor=none;align=center;verticalAlign=middle;whiteSpace=wrap;rounded=0;fontFamily=Lucida Console;" parent="1" vertex="1">
          <mxGeometry x="679" y="420" width="146" height="30" as="geometry" />
        </mxCell>
        <mxCell id="W7klxGYHlzmc_tSxLxQi-236" value="L2: VLANs: 10, 110, 120, 6 (native)" style="text;html=1;strokeColor=none;fillColor=none;align=center;verticalAlign=middle;whiteSpace=wrap;rounded=0;fontFamily=Lucida Console;" parent="1" vertex="1">
          <mxGeometry x="456" y="757" width="100" height="30" as="geometry" />
        </mxCell>
        <mxCell id="W7klxGYHlzmc_tSxLxQi-237" value="&lt;span style=&quot;font-size: 10px;&quot;&gt;2ccc:0:3e9:fffd::5:0/126&lt;/span&gt;" style="text;html=1;strokeColor=none;fillColor=none;align=center;verticalAlign=middle;whiteSpace=wrap;rounded=0;fontFamily=Lucida Console;" parent="1" vertex="1">
          <mxGeometry x="311.5" y="494" width="60" height="30" as="geometry" />
        </mxCell>
        <mxCell id="W7klxGYHlzmc_tSxLxQi-238" value="&lt;span style=&quot;font-size: 10px;&quot;&gt;2ccc:0:3e9:fffd::6:0/126&lt;/span&gt;" style="text;html=1;strokeColor=none;fillColor=none;align=center;verticalAlign=middle;whiteSpace=wrap;rounded=0;fontFamily=Lucida Console;rotation=30;" parent="1" vertex="1">
          <mxGeometry x="544.5" y="519" width="60" height="30" as="geometry" />
        </mxCell>
        <mxCell id="W7klxGYHlzmc_tSxLxQi-242" value="&lt;span style=&quot;font-size: 10px;&quot;&gt;2ccc:0:3e9:fffd::7:0/126&lt;/span&gt;" style="text;html=1;strokeColor=none;fillColor=none;align=center;verticalAlign=middle;whiteSpace=wrap;rounded=0;fontFamily=Lucida Console;rotation=0;" parent="1" vertex="1">
          <mxGeometry x="168" y="474" width="60" height="30" as="geometry" />
        </mxCell>
        <mxCell id="W7klxGYHlzmc_tSxLxQi-243" value="&lt;span style=&quot;font-size: 10px;&quot;&gt;2ccc:0:3e9:fffd::8:0/126&lt;/span&gt;" style="text;html=1;strokeColor=none;fillColor=none;align=center;verticalAlign=middle;whiteSpace=wrap;rounded=0;fontFamily=Lucida Console;" parent="1" vertex="1">
          <mxGeometry x="476" y="408" width="60" height="30" as="geometry" />
        </mxCell>
        <mxCell id="W7klxGYHlzmc_tSxLxQi-244" value="&lt;span style=&quot;font-size: 10px;&quot;&gt;2ccc:0:3e9:fffd::9:0/126&lt;/span&gt;" style="text;html=1;strokeColor=none;fillColor=none;align=center;verticalAlign=middle;whiteSpace=wrap;rounded=0;fontFamily=Lucida Console;rotation=20;" parent="1" vertex="1">
          <mxGeometry x="696" y="535" width="60" height="30" as="geometry" />
        </mxCell>
        <mxCell id="W7klxGYHlzmc_tSxLxQi-245" value="&lt;span style=&quot;font-size: 10px;&quot;&gt;2ccc:0:3e9:fffd::a:0/126&lt;/span&gt;" style="text;html=1;strokeColor=none;fillColor=none;align=center;verticalAlign=middle;whiteSpace=wrap;rounded=0;fontFamily=Lucida Console;rotation=0;" parent="1" vertex="1">
          <mxGeometry x="652" y="497" width="60" height="30" as="geometry" />
        </mxCell>
        <mxCell id="W7klxGYHlzmc_tSxLxQi-246" value="&lt;span style=&quot;font-size: 10px;&quot;&gt;2ccc:0:3e9:fffd::b:0/126&lt;/span&gt;" style="text;html=1;strokeColor=none;fillColor=none;align=center;verticalAlign=middle;whiteSpace=wrap;rounded=0;fontFamily=Lucida Console;rotation=-30;" parent="1" vertex="1">
          <mxGeometry x="426" y="541" width="60" height="30" as="geometry" />
        </mxCell>
        <mxCell id="W7klxGYHlzmc_tSxLxQi-247" value="&lt;span style=&quot;font-size: 10px;&quot;&gt;2ccc:0:3e9:fffd::c:0/126&lt;/span&gt;" style="text;html=1;strokeColor=none;fillColor=none;align=center;verticalAlign=middle;whiteSpace=wrap;rounded=0;fontFamily=Lucida Console;rotation=0;" parent="1" vertex="1">
          <mxGeometry x="780" y="472" width="60" height="30" as="geometry" />
        </mxCell>
        <mxCell id="W7klxGYHlzmc_tSxLxQi-248" value="&lt;span style=&quot;font-size: 10px;&quot;&gt;2ccc:0:3e9:fffd::d:0/126&lt;/span&gt;" style="text;html=1;strokeColor=none;fillColor=none;align=center;verticalAlign=middle;whiteSpace=wrap;rounded=0;fontFamily=Lucida Console;rotation=-20;" parent="1" vertex="1">
          <mxGeometry x="254" y="535" width="60" height="30" as="geometry" />
        </mxCell>
        <mxCell id="W7klxGYHlzmc_tSxLxQi-249" value="&lt;span style=&quot;font-size: 10px;&quot;&gt;lo: 2ccc:0:3e9:ffff::104&lt;/span&gt;" style="text;html=1;strokeColor=none;fillColor=none;align=right;verticalAlign=middle;whiteSpace=wrap;rounded=0;fontFamily=Lucida Console;" parent="1" vertex="1">
          <mxGeometry x="174" y="791" width="155" height="30" as="geometry" />
        </mxCell>
        <mxCell id="W7klxGYHlzmc_tSxLxQi-250" value="&lt;span style=&quot;font-size: 10px; text-align: center;&quot;&gt;lo: 2ccc:0:3e9:ffff::105&lt;/span&gt;" style="text;html=1;strokeColor=none;fillColor=none;align=left;verticalAlign=middle;whiteSpace=wrap;rounded=0;fontFamily=Lucida Console;" parent="1" vertex="1">
          <mxGeometry x="680" y="791" width="150" height="30" as="geometry" />
        </mxCell>
        <mxCell id="W7klxGYHlzmc_tSxLxQi-251" value="root STP,&lt;br&gt;&lt;div style=&quot;&quot;&gt;&lt;span style=&quot;background-color: initial;&quot;&gt;active HSRP&lt;/span&gt;&lt;/div&gt;" style="text;html=1;strokeColor=none;fillColor=none;align=right;verticalAlign=middle;whiteSpace=wrap;rounded=0;fontFamily=Lucida Console;" parent="1" vertex="1">
          <mxGeometry x="228" y="749" width="101" height="30" as="geometry" />
        </mxCell>
        <mxCell id="W7klxGYHlzmc_tSxLxQi-252" value="second priority STP,&lt;br&gt;standby HSRP" style="text;html=1;strokeColor=none;fillColor=none;align=left;verticalAlign=middle;whiteSpace=wrap;rounded=0;fontFamily=Lucida Console;" parent="1" vertex="1">
          <mxGeometry x="683.5" y="748" width="156.5" height="30" as="geometry" />
        </mxCell>
        <mxCell id="W7klxGYHlzmc_tSxLxQi-253" value="VLANs" style="text;html=1;strokeColor=none;fillColor=none;align=center;verticalAlign=middle;whiteSpace=wrap;rounded=0;fontFamily=Lucida Console;" parent="1" vertex="1">
          <mxGeometry x="514" y="851" width="100" height="30" as="geometry" />
        </mxCell>
        <mxCell id="W7klxGYHlzmc_tSxLxQi-254" value="VLANs" style="text;html=1;strokeColor=none;fillColor=none;align=center;verticalAlign=middle;whiteSpace=wrap;rounded=0;fontFamily=Lucida Console;" parent="1" vertex="1">
          <mxGeometry x="387" y="851" width="100" height="30" as="geometry" />
        </mxCell>
        <mxCell id="W7klxGYHlzmc_tSxLxQi-255" value="VLANs" style="text;html=1;strokeColor=none;fillColor=none;align=center;verticalAlign=middle;whiteSpace=wrap;rounded=0;fontFamily=Lucida Console;" parent="1" vertex="1">
          <mxGeometry x="629" y="865" width="100" height="30" as="geometry" />
        </mxCell>
        <mxCell id="W7klxGYHlzmc_tSxLxQi-256" value="VLANs" style="text;html=1;strokeColor=none;fillColor=none;align=center;verticalAlign=middle;whiteSpace=wrap;rounded=0;fontFamily=Lucida Console;" parent="1" vertex="1">
          <mxGeometry x="282" y="865" width="100" height="30" as="geometry" />
        </mxCell>
        <mxCell id="W7klxGYHlzmc_tSxLxQi-257" value="&lt;font style=&quot;font-size: 10px;&quot;&gt;VLAN 10: 2ccc:0:3e9:fffe:ffff::1&lt;br&gt;VLAN 100: 2ccc:0:3e9:0:ffff::1&lt;br&gt;VLAN 110: 2ccc:0:3e9:1:ffff::1&lt;/font&gt;" style="text;html=1;strokeColor=none;fillColor=none;align=right;verticalAlign=middle;whiteSpace=wrap;rounded=0;fontFamily=Lucida Console;" parent="1" vertex="1">
          <mxGeometry x="90" y="817" width="241" height="30" as="geometry" />
        </mxCell>
        <mxCell id="W7klxGYHlzmc_tSxLxQi-258" value="&lt;font style=&quot;font-size: 10px;&quot;&gt;VLAN 10: 2ccc:0:3e9:fffe:ffff::2&lt;br&gt;VLAN 100: 2ccc:0:3e9:0:ffff::2&lt;br&gt;VLAN 110: 2ccc:0:3e9:1:ffff::2&lt;/font&gt;" style="text;html=1;strokeColor=none;fillColor=none;align=left;verticalAlign=middle;whiteSpace=wrap;rounded=0;fontFamily=Lucida Console;" parent="1" vertex="1">
          <mxGeometry x="681" y="817" width="239" height="30" as="geometry" />
        </mxCell>
        <mxCell id="W7klxGYHlzmc_tSxLxQi-259" value="HSRP&lt;br&gt;&lt;font style=&quot;font-size: 10px;&quot;&gt;VLAN 10: 2ccc:0:3e9:fffe::1&lt;/font&gt;&lt;br&gt;&lt;font style=&quot;font-size: 10px;&quot;&gt;VLAN 100: 2ccc:0:3e9::1&lt;br&gt;VLAN 110:&amp;nbsp;&lt;/font&gt;&lt;span style=&quot;font-size: 10px;&quot;&gt;2ccc:0:3e9:1::1&lt;/span&gt;" style="text;html=1;strokeColor=none;fillColor=none;align=center;verticalAlign=middle;whiteSpace=wrap;rounded=0;fontFamily=Lucida Console;" parent="1" vertex="1">
          <mxGeometry x="421" y="807" width="171" height="30" as="geometry" />
        </mxCell>
        <mxCell id="W7klxGYHlzmc_tSxLxQi-260" value="&lt;b&gt;.1&lt;/b&gt;" style="text;html=1;strokeColor=none;fillColor=none;align=center;verticalAlign=middle;whiteSpace=wrap;rounded=0;fontFamily=Lucida Console;" parent="1" vertex="1">
          <mxGeometry x="413" y="404.5" width="23" height="30" as="geometry" />
        </mxCell>
        <mxCell id="W7klxGYHlzmc_tSxLxQi-261" value="&lt;b&gt;.1&lt;/b&gt;" style="text;html=1;strokeColor=none;fillColor=none;align=center;verticalAlign=middle;whiteSpace=wrap;rounded=0;fontFamily=Lucida Console;" parent="1" vertex="1">
          <mxGeometry x="420" y="431" width="23" height="30" as="geometry" />
        </mxCell>
        <mxCell id="W7klxGYHlzmc_tSxLxQi-262" value="&lt;b&gt;.2&lt;/b&gt;" style="text;html=1;strokeColor=none;fillColor=none;align=center;verticalAlign=middle;whiteSpace=wrap;rounded=0;fontFamily=Lucida Console;" parent="1" vertex="1">
          <mxGeometry x="420" y="452" width="23" height="30" as="geometry" />
        </mxCell>
        <mxCell id="W7klxGYHlzmc_tSxLxQi-263" value="&lt;b&gt;.2&lt;/b&gt;" style="text;html=1;strokeColor=none;fillColor=none;align=center;verticalAlign=middle;whiteSpace=wrap;rounded=0;fontFamily=Lucida Console;" parent="1" vertex="1">
          <mxGeometry x="358" y="475" width="23" height="30" as="geometry" />
        </mxCell>
        <mxCell id="W7klxGYHlzmc_tSxLxQi-264" value="&lt;b&gt;.1&lt;/b&gt;" style="text;html=1;strokeColor=none;fillColor=none;align=center;verticalAlign=middle;whiteSpace=wrap;rounded=0;fontFamily=Lucida Console;" parent="1" vertex="1">
          <mxGeometry x="300" y="464" width="23" height="30" as="geometry" />
        </mxCell>
        <mxCell id="W7klxGYHlzmc_tSxLxQi-265" value="&lt;b&gt;.2&lt;/b&gt;" style="text;html=1;strokeColor=none;fillColor=none;align=center;verticalAlign=middle;whiteSpace=wrap;rounded=0;fontFamily=Lucida Console;" parent="1" vertex="1">
          <mxGeometry x="150" y="550.5" width="23" height="30" as="geometry" />
        </mxCell>
        <mxCell id="W7klxGYHlzmc_tSxLxQi-266" value="&lt;b&gt;.2&lt;/b&gt;" style="text;html=1;strokeColor=none;fillColor=none;align=center;verticalAlign=middle;whiteSpace=wrap;rounded=0;fontFamily=Lucida Console;" parent="1" vertex="1">
          <mxGeometry x="167" y="589.5" width="23" height="30" as="geometry" />
        </mxCell>
        <mxCell id="W7klxGYHlzmc_tSxLxQi-268" value="&lt;b&gt;.1&lt;/b&gt;" style="text;html=1;strokeColor=none;fillColor=none;align=center;verticalAlign=middle;whiteSpace=wrap;rounded=0;fontFamily=Lucida Console;" parent="1" vertex="1">
          <mxGeometry x="556" y="435.5" width="23" height="30" as="geometry" />
        </mxCell>
        <mxCell id="W7klxGYHlzmc_tSxLxQi-269" value="&lt;b&gt;.2&lt;/b&gt;" style="text;html=1;strokeColor=none;fillColor=none;align=center;verticalAlign=middle;whiteSpace=wrap;rounded=0;fontFamily=Lucida Console;" parent="1" vertex="1">
          <mxGeometry x="581" y="406" width="23" height="30" as="geometry" />
        </mxCell>
        <mxCell id="W7klxGYHlzmc_tSxLxQi-270" value="&lt;b&gt;.2&lt;/b&gt;" style="text;html=1;strokeColor=none;fillColor=none;align=center;verticalAlign=middle;whiteSpace=wrap;rounded=0;fontFamily=Lucida Console;" parent="1" vertex="1">
          <mxGeometry x="594.5" y="461" width="23" height="30" as="geometry" />
        </mxCell>
        <mxCell id="W7klxGYHlzmc_tSxLxQi-271" value="&lt;b&gt;.2&lt;/b&gt;" style="text;html=1;strokeColor=none;fillColor=none;align=center;verticalAlign=middle;whiteSpace=wrap;rounded=0;fontFamily=Lucida Console;" parent="1" vertex="1">
          <mxGeometry x="620" y="462" width="23" height="30" as="geometry" />
        </mxCell>
        <mxCell id="W7klxGYHlzmc_tSxLxQi-272" value="&lt;b&gt;.1&lt;/b&gt;" style="text;html=1;strokeColor=none;fillColor=none;align=center;verticalAlign=middle;whiteSpace=wrap;rounded=0;fontFamily=Lucida Console;" parent="1" vertex="1">
          <mxGeometry x="711" y="452" width="23" height="30" as="geometry" />
        </mxCell>
        <mxCell id="W7klxGYHlzmc_tSxLxQi-273" value="&lt;b&gt;.2&lt;/b&gt;" style="text;html=1;strokeColor=none;fillColor=none;align=center;verticalAlign=middle;whiteSpace=wrap;rounded=0;fontFamily=Lucida Console;" parent="1" vertex="1">
          <mxGeometry x="840" y="550.5" width="23" height="30" as="geometry" />
        </mxCell>
        <mxCell id="W7klxGYHlzmc_tSxLxQi-274" value="&lt;b&gt;.2&lt;/b&gt;" style="text;html=1;strokeColor=none;fillColor=none;align=center;verticalAlign=middle;whiteSpace=wrap;rounded=0;fontFamily=Lucida Console;" parent="1" vertex="1">
          <mxGeometry x="810" y="589.5" width="23" height="30" as="geometry" />
        </mxCell>
        <mxCell id="W7klxGYHlzmc_tSxLxQi-275" value="&lt;b&gt;.1&lt;/b&gt;" style="text;html=1;strokeColor=none;fillColor=none;align=center;verticalAlign=middle;whiteSpace=wrap;rounded=0;fontFamily=Lucida Console;" parent="1" vertex="1">
          <mxGeometry x="321" y="555" width="23" height="30" as="geometry" />
        </mxCell>
        <mxCell id="W7klxGYHlzmc_tSxLxQi-276" value="&lt;b&gt;.1&lt;/b&gt;" style="text;html=1;strokeColor=none;fillColor=none;align=center;verticalAlign=middle;whiteSpace=wrap;rounded=0;fontFamily=Lucida Console;" parent="1" vertex="1">
          <mxGeometry x="404" y="538" width="23" height="30" as="geometry" />
        </mxCell>
        <mxCell id="W7klxGYHlzmc_tSxLxQi-278" value="&lt;b&gt;.1&lt;/b&gt;" style="text;html=1;strokeColor=none;fillColor=none;align=center;verticalAlign=middle;whiteSpace=wrap;rounded=0;fontFamily=Lucida Console;" parent="1" vertex="1">
          <mxGeometry x="414" y="594.5" width="23" height="30" as="geometry" />
        </mxCell>
        <mxCell id="W7klxGYHlzmc_tSxLxQi-279" value="&lt;b&gt;.1&lt;/b&gt;" style="text;html=1;strokeColor=none;fillColor=none;align=center;verticalAlign=middle;whiteSpace=wrap;rounded=0;fontFamily=Lucida Console;" parent="1" vertex="1">
          <mxGeometry x="420" y="622" width="23" height="30" as="geometry" />
        </mxCell>
        <mxCell id="W7klxGYHlzmc_tSxLxQi-280" value="&lt;b&gt;.1&lt;/b&gt;" style="text;html=1;strokeColor=none;fillColor=none;align=center;verticalAlign=middle;whiteSpace=wrap;rounded=0;fontFamily=Lucida Console;" parent="1" vertex="1">
          <mxGeometry x="321" y="627" width="23" height="30" as="geometry" />
        </mxCell>
        <mxCell id="W7klxGYHlzmc_tSxLxQi-281" value="&lt;b&gt;.2&lt;/b&gt;" style="text;html=1;strokeColor=none;fillColor=none;align=center;verticalAlign=middle;whiteSpace=wrap;rounded=0;fontFamily=Lucida Console;" parent="1" vertex="1">
          <mxGeometry x="318" y="712.5" width="23" height="30" as="geometry" />
        </mxCell>
        <mxCell id="W7klxGYHlzmc_tSxLxQi-282" value="&lt;b&gt;.2&lt;/b&gt;" style="text;html=1;strokeColor=none;fillColor=none;align=center;verticalAlign=middle;whiteSpace=wrap;rounded=0;fontFamily=Lucida Console;" parent="1" vertex="1">
          <mxGeometry x="387" y="735" width="23" height="30" as="geometry" />
        </mxCell>
        <mxCell id="W7klxGYHlzmc_tSxLxQi-283" value="&lt;b&gt;.1&lt;/b&gt;" style="text;html=1;strokeColor=none;fillColor=none;align=center;verticalAlign=middle;whiteSpace=wrap;rounded=0;fontFamily=Lucida Console;" parent="1" vertex="1">
          <mxGeometry x="607" y="626" width="23" height="30" as="geometry" />
        </mxCell>
        <mxCell id="W7klxGYHlzmc_tSxLxQi-284" value="&lt;b&gt;.1&lt;/b&gt;" style="text;html=1;strokeColor=none;fillColor=none;align=center;verticalAlign=middle;whiteSpace=wrap;rounded=0;fontFamily=Lucida Console;" parent="1" vertex="1">
          <mxGeometry x="667.5" y="627" width="23" height="30" as="geometry" />
        </mxCell>
        <mxCell id="W7klxGYHlzmc_tSxLxQi-285" value="&lt;b&gt;.1&lt;/b&gt;" style="text;html=1;strokeColor=none;fillColor=none;align=center;verticalAlign=middle;whiteSpace=wrap;rounded=0;fontFamily=Lucida Console;" parent="1" vertex="1">
          <mxGeometry x="667.5" y="552" width="23" height="30" as="geometry" />
        </mxCell>
        <mxCell id="W7klxGYHlzmc_tSxLxQi-286" value="&lt;b&gt;.1&lt;/b&gt;" style="text;html=1;strokeColor=none;fillColor=none;align=center;verticalAlign=middle;whiteSpace=wrap;rounded=0;fontFamily=Lucida Console;" parent="1" vertex="1">
          <mxGeometry x="593" y="566" width="23" height="30" as="geometry" />
        </mxCell>
        <mxCell id="W7klxGYHlzmc_tSxLxQi-287" value="&lt;b&gt;.2&lt;/b&gt;" style="text;html=1;strokeColor=none;fillColor=none;align=center;verticalAlign=middle;whiteSpace=wrap;rounded=0;fontFamily=Lucida Console;" parent="1" vertex="1">
          <mxGeometry x="568" y="595.5" width="23" height="30" as="geometry" />
        </mxCell>
        <mxCell id="W7klxGYHlzmc_tSxLxQi-288" value="&lt;b&gt;.2&lt;/b&gt;" style="text;html=1;strokeColor=none;fillColor=none;align=center;verticalAlign=middle;whiteSpace=wrap;rounded=0;fontFamily=Lucida Console;" parent="1" vertex="1">
          <mxGeometry x="598" y="735" width="23" height="30" as="geometry" />
        </mxCell>
        <mxCell id="W7klxGYHlzmc_tSxLxQi-289" value="&lt;b&gt;.2&lt;/b&gt;" style="text;html=1;strokeColor=none;fillColor=none;align=center;verticalAlign=middle;whiteSpace=wrap;rounded=0;fontFamily=Lucida Console;" parent="1" vertex="1">
          <mxGeometry x="667.5" y="718" width="23" height="30" as="geometry" />
        </mxCell>
        <mxCell id="W7klxGYHlzmc_tSxLxQi-290" value="&lt;b&gt;.a&lt;/b&gt;" style="text;html=1;strokeColor=none;fillColor=none;align=center;verticalAlign=middle;whiteSpace=wrap;rounded=0;fontFamily=Lucida Console;" parent="1" vertex="1">
          <mxGeometry x="371" y="1082" width="23" height="30" as="geometry" />
        </mxCell>
        <mxCell id="W7klxGYHlzmc_tSxLxQi-291" value="&lt;b&gt;.a&lt;/b&gt;" style="text;html=1;strokeColor=none;fillColor=none;align=center;verticalAlign=middle;whiteSpace=wrap;rounded=0;fontFamily=Lucida Console;" parent="1" vertex="1">
          <mxGeometry x="669" y="1080" width="23" height="30" as="geometry" />
        </mxCell>
        <mxCell id="1ylkWFcsWydQvVdOaWhc-1" value="" style="sketch=0;points=[[0.5,0,0],[1,0.5,0],[0.5,1,0],[0,0.5,0],[0.145,0.145,0],[0.8555,0.145,0],[0.855,0.8555,0],[0.145,0.855,0]];verticalLabelPosition=bottom;html=1;verticalAlign=top;aspect=fixed;align=center;pointerEvents=1;shape=mxgraph.cisco19.rect;prIcon=router;fillColor=#FAFAFA;strokeColor=#005073;" parent="1" vertex="1">
          <mxGeometry x="1117" y="64" width="50" height="50" as="geometry" />
        </mxCell>
        <mxCell id="1ylkWFcsWydQvVdOaWhc-2" value="" style="sketch=0;points=[[0.5,0,0],[1,0.5,0],[0.5,1,0],[0,0.5,0],[0.145,0.145,0],[0.8555,0.145,0],[0.855,0.8555,0],[0.145,0.855,0]];verticalLabelPosition=bottom;html=1;verticalAlign=top;aspect=fixed;align=center;pointerEvents=1;shape=mxgraph.cisco19.rect;prIcon=router;fillColor=#FAFAFA;strokeColor=#005073;" parent="1" vertex="1">
          <mxGeometry x="1415" y="64" width="50" height="50" as="geometry" />
        </mxCell>
        <mxCell id="1ylkWFcsWydQvVdOaWhc-3" value="" style="sketch=0;points=[[0.5,0,0],[1,0.5,0],[0.5,1,0],[0,0.5,0],[0.145,0.145,0],[0.8555,0.145,0],[0.855,0.8555,0],[0.145,0.855,0]];verticalLabelPosition=bottom;html=1;verticalAlign=top;aspect=fixed;align=center;pointerEvents=1;shape=mxgraph.cisco19.rect;prIcon=router;fillColor=#FAFAFA;strokeColor=#005073;" parent="1" vertex="1">
          <mxGeometry x="1117" y="235" width="50" height="50" as="geometry" />
        </mxCell>
        <mxCell id="1ylkWFcsWydQvVdOaWhc-4" value="" style="sketch=0;points=[[0.5,0,0],[1,0.5,0],[0.5,1,0],[0,0.5,0],[0.145,0.145,0],[0.8555,0.145,0],[0.855,0.8555,0],[0.145,0.855,0]];verticalLabelPosition=bottom;html=1;verticalAlign=top;aspect=fixed;align=center;pointerEvents=1;shape=mxgraph.cisco19.rect;prIcon=router;fillColor=#FAFAFA;strokeColor=#005073;" parent="1" vertex="1">
          <mxGeometry x="1415" y="235" width="50" height="50" as="geometry" />
        </mxCell>
        <mxCell id="1ylkWFcsWydQvVdOaWhc-5" value="" style="endArrow=none;html=1;rounded=0;exitX=1;exitY=0.5;exitDx=0;exitDy=0;exitPerimeter=0;entryX=0;entryY=0.5;entryDx=0;entryDy=0;entryPerimeter=0;startArrow=none;" parent="1" source="1ylkWFcsWydQvVdOaWhc-14" target="1ylkWFcsWydQvVdOaWhc-4" edge="1">
          <mxGeometry width="50" height="50" relative="1" as="geometry">
            <mxPoint x="1157" y="325" as="sourcePoint" />
            <mxPoint x="1207" y="275" as="targetPoint" />
          </mxGeometry>
        </mxCell>
        <mxCell id="1ylkWFcsWydQvVdOaWhc-6" value="" style="endArrow=none;html=1;rounded=0;exitX=0.5;exitY=0;exitDx=0;exitDy=0;exitPerimeter=0;entryX=0.5;entryY=1;entryDx=0;entryDy=0;entryPerimeter=0;startArrow=none;" parent="1" source="1ylkWFcsWydQvVdOaWhc-10" target="1ylkWFcsWydQvVdOaWhc-1" edge="1">
          <mxGeometry width="50" height="50" relative="1" as="geometry">
            <mxPoint x="1297" y="154" as="sourcePoint" />
            <mxPoint x="1347" y="104" as="targetPoint" />
          </mxGeometry>
        </mxCell>
        <mxCell id="1ylkWFcsWydQvVdOaWhc-8" value="e0/4" style="text;html=1;strokeColor=none;fillColor=none;align=left;verticalAlign=middle;whiteSpace=wrap;rounded=0;" parent="1" vertex="1">
          <mxGeometry x="1177" y="245" width="30" height="30" as="geometry" />
        </mxCell>
        <mxCell id="1ylkWFcsWydQvVdOaWhc-9" value="" style="endArrow=none;html=1;rounded=0;exitX=1;exitY=0.5;exitDx=0;exitDy=0;exitPerimeter=0;entryX=0;entryY=0.5;entryDx=0;entryDy=0;entryPerimeter=0;" parent="1" source="1ylkWFcsWydQvVdOaWhc-3" target="1ylkWFcsWydQvVdOaWhc-8" edge="1">
          <mxGeometry width="50" height="50" relative="1" as="geometry">
            <mxPoint x="1167" y="260" as="sourcePoint" />
            <mxPoint x="1415" y="260" as="targetPoint" />
          </mxGeometry>
        </mxCell>
        <mxCell id="1ylkWFcsWydQvVdOaWhc-10" value="e0/0" style="text;html=1;strokeColor=none;fillColor=none;align=center;verticalAlign=middle;whiteSpace=wrap;rounded=0;" parent="1" vertex="1">
          <mxGeometry x="1127" y="121" width="30" height="20" as="geometry" />
        </mxCell>
        <mxCell id="1ylkWFcsWydQvVdOaWhc-11" value="" style="endArrow=none;html=1;rounded=0;exitX=0.5;exitY=0;exitDx=0;exitDy=0;exitPerimeter=0;entryX=0.5;entryY=1;entryDx=0;entryDy=0;entryPerimeter=0;startArrow=none;" parent="1" source="1ylkWFcsWydQvVdOaWhc-12" target="1ylkWFcsWydQvVdOaWhc-10" edge="1">
          <mxGeometry width="50" height="50" relative="1" as="geometry">
            <mxPoint x="1142" y="235" as="sourcePoint" />
            <mxPoint x="1142" y="114" as="targetPoint" />
          </mxGeometry>
        </mxCell>
        <mxCell id="1ylkWFcsWydQvVdOaWhc-12" value="e0/2" style="text;html=1;strokeColor=none;fillColor=none;align=center;verticalAlign=middle;whiteSpace=wrap;rounded=0;" parent="1" vertex="1">
          <mxGeometry x="1127" y="207" width="30" height="20" as="geometry" />
        </mxCell>
        <mxCell id="1ylkWFcsWydQvVdOaWhc-13" value="" style="endArrow=none;html=1;rounded=0;exitX=0.5;exitY=0;exitDx=0;exitDy=0;exitPerimeter=0;entryX=0.5;entryY=1;entryDx=0;entryDy=0;entryPerimeter=0;" parent="1" source="1ylkWFcsWydQvVdOaWhc-3" target="1ylkWFcsWydQvVdOaWhc-12" edge="1">
          <mxGeometry width="50" height="50" relative="1" as="geometry">
            <mxPoint x="1142" y="235" as="sourcePoint" />
            <mxPoint x="1142" y="144" as="targetPoint" />
          </mxGeometry>
        </mxCell>
        <mxCell id="1ylkWFcsWydQvVdOaWhc-14" value="e0/4" style="text;html=1;strokeColor=none;fillColor=none;align=right;verticalAlign=middle;whiteSpace=wrap;rounded=0;" parent="1" vertex="1">
          <mxGeometry x="1377" y="248.5" width="30" height="23.5" as="geometry" />
        </mxCell>
        <mxCell id="1ylkWFcsWydQvVdOaWhc-15" value="" style="endArrow=none;html=1;rounded=0;exitX=1;exitY=0.5;exitDx=0;exitDy=0;exitPerimeter=0;entryX=0;entryY=0.5;entryDx=0;entryDy=0;entryPerimeter=0;startArrow=none;" parent="1" source="1ylkWFcsWydQvVdOaWhc-8" target="1ylkWFcsWydQvVdOaWhc-14" edge="1">
          <mxGeometry width="50" height="50" relative="1" as="geometry">
            <mxPoint x="1207" y="259" as="sourcePoint" />
            <mxPoint x="1415" y="260" as="targetPoint" />
          </mxGeometry>
        </mxCell>
        <mxCell id="1ylkWFcsWydQvVdOaWhc-20" value="" style="endArrow=none;html=1;rounded=0;exitX=1;exitY=0.5;exitDx=0;exitDy=0;exitPerimeter=0;entryX=0;entryY=0.5;entryDx=0;entryDy=0;entryPerimeter=0;startArrow=none;" parent="1" source="1ylkWFcsWydQvVdOaWhc-23" edge="1">
          <mxGeometry width="50" height="50" relative="1" as="geometry">
            <mxPoint x="1157" y="154" as="sourcePoint" />
            <mxPoint x="1415" y="89" as="targetPoint" />
          </mxGeometry>
        </mxCell>
        <mxCell id="1ylkWFcsWydQvVdOaWhc-21" value="e0/4" style="text;html=1;strokeColor=none;fillColor=none;align=left;verticalAlign=middle;whiteSpace=wrap;rounded=0;" parent="1" vertex="1">
          <mxGeometry x="1177" y="74" width="30" height="30" as="geometry" />
        </mxCell>
        <mxCell id="1ylkWFcsWydQvVdOaWhc-22" value="" style="endArrow=none;html=1;rounded=0;exitX=1;exitY=0.5;exitDx=0;exitDy=0;exitPerimeter=0;entryX=0;entryY=0.5;entryDx=0;entryDy=0;entryPerimeter=0;" parent="1" target="1ylkWFcsWydQvVdOaWhc-21" edge="1">
          <mxGeometry width="50" height="50" relative="1" as="geometry">
            <mxPoint x="1167" y="89" as="sourcePoint" />
            <mxPoint x="1415" y="89" as="targetPoint" />
          </mxGeometry>
        </mxCell>
        <mxCell id="1ylkWFcsWydQvVdOaWhc-23" value="e0/4" style="text;html=1;strokeColor=none;fillColor=none;align=right;verticalAlign=middle;whiteSpace=wrap;rounded=0;" parent="1" vertex="1">
          <mxGeometry x="1377" y="77.5" width="30" height="23.5" as="geometry" />
        </mxCell>
        <mxCell id="1ylkWFcsWydQvVdOaWhc-24" value="" style="endArrow=none;html=1;rounded=0;exitX=1;exitY=0.5;exitDx=0;exitDy=0;exitPerimeter=0;entryX=0;entryY=0.5;entryDx=0;entryDy=0;entryPerimeter=0;startArrow=none;" parent="1" source="1ylkWFcsWydQvVdOaWhc-21" target="1ylkWFcsWydQvVdOaWhc-23" edge="1">
          <mxGeometry width="50" height="50" relative="1" as="geometry">
            <mxPoint x="1207" y="88" as="sourcePoint" />
            <mxPoint x="1415" y="89" as="targetPoint" />
          </mxGeometry>
        </mxCell>
        <mxCell id="1ylkWFcsWydQvVdOaWhc-30" value="" style="endArrow=none;html=1;rounded=0;exitX=0.5;exitY=0;exitDx=0;exitDy=0;exitPerimeter=0;entryX=0.5;entryY=1;entryDx=0;entryDy=0;entryPerimeter=0;startArrow=none;" parent="1" source="1ylkWFcsWydQvVdOaWhc-31" edge="1">
          <mxGeometry width="50" height="50" relative="1" as="geometry">
            <mxPoint x="1596" y="154" as="sourcePoint" />
            <mxPoint x="1441" y="114" as="targetPoint" />
          </mxGeometry>
        </mxCell>
        <mxCell id="1ylkWFcsWydQvVdOaWhc-31" value="e0/0" style="text;html=1;strokeColor=none;fillColor=none;align=center;verticalAlign=middle;whiteSpace=wrap;rounded=0;" parent="1" vertex="1">
          <mxGeometry x="1426" y="121" width="30" height="20" as="geometry" />
        </mxCell>
        <mxCell id="1ylkWFcsWydQvVdOaWhc-32" value="" style="endArrow=none;html=1;rounded=0;exitX=0.5;exitY=0;exitDx=0;exitDy=0;exitPerimeter=0;entryX=0.5;entryY=1;entryDx=0;entryDy=0;entryPerimeter=0;startArrow=none;" parent="1" source="1ylkWFcsWydQvVdOaWhc-33" target="1ylkWFcsWydQvVdOaWhc-31" edge="1">
          <mxGeometry width="50" height="50" relative="1" as="geometry">
            <mxPoint x="1441" y="235" as="sourcePoint" />
            <mxPoint x="1441" y="114" as="targetPoint" />
          </mxGeometry>
        </mxCell>
        <mxCell id="1ylkWFcsWydQvVdOaWhc-33" value="e0/2" style="text;html=1;strokeColor=none;fillColor=none;align=center;verticalAlign=middle;whiteSpace=wrap;rounded=0;" parent="1" vertex="1">
          <mxGeometry x="1426" y="207" width="30" height="20" as="geometry" />
        </mxCell>
        <mxCell id="1ylkWFcsWydQvVdOaWhc-34" value="" style="endArrow=none;html=1;rounded=0;exitX=0.5;exitY=0;exitDx=0;exitDy=0;exitPerimeter=0;entryX=0.5;entryY=1;entryDx=0;entryDy=0;entryPerimeter=0;" parent="1" target="1ylkWFcsWydQvVdOaWhc-33" edge="1">
          <mxGeometry width="50" height="50" relative="1" as="geometry">
            <mxPoint x="1441" y="235" as="sourcePoint" />
            <mxPoint x="1441" y="144" as="targetPoint" />
          </mxGeometry>
        </mxCell>
        <mxCell id="1ylkWFcsWydQvVdOaWhc-39" value="" style="endArrow=none;html=1;rounded=0;startArrow=none;entryX=0;entryY=0.5;entryDx=0;entryDy=0;entryPerimeter=0;exitX=1;exitY=0.5;exitDx=0;exitDy=0;exitPerimeter=0;" parent="1" source="1ylkWFcsWydQvVdOaWhc-108" target="1ylkWFcsWydQvVdOaWhc-1" edge="1">
          <mxGeometry width="50" height="50" relative="1" as="geometry">
            <mxPoint x="524" y="90" as="sourcePoint" />
            <mxPoint x="1074" y="100" as="targetPoint" />
          </mxGeometry>
        </mxCell>
        <mxCell id="1ylkWFcsWydQvVdOaWhc-42" value="10.2.240.8/30" style="text;html=1;strokeColor=none;fillColor=none;align=center;verticalAlign=middle;whiteSpace=wrap;rounded=0;fontFamily=Lucida Console;" parent="1" vertex="1">
          <mxGeometry x="1257" y="235" width="60" height="30" as="geometry" />
        </mxCell>
        <mxCell id="1ylkWFcsWydQvVdOaWhc-46" value="10.2.240.4/30" style="text;html=1;strokeColor=none;fillColor=none;align=center;verticalAlign=middle;whiteSpace=wrap;rounded=0;fontFamily=Lucida Console;" parent="1" vertex="1">
          <mxGeometry x="1163.5" y="161" width="60" height="30" as="geometry" />
        </mxCell>
        <mxCell id="1ylkWFcsWydQvVdOaWhc-48" value="10.2.240.0/30" style="text;html=1;strokeColor=none;fillColor=none;align=center;verticalAlign=middle;whiteSpace=wrap;rounded=0;fontFamily=Lucida Console;" parent="1" vertex="1">
          <mxGeometry x="1262" y="84" width="60" height="30" as="geometry" />
        </mxCell>
        <mxCell id="1ylkWFcsWydQvVdOaWhc-50" value="&lt;b&gt;.1&lt;/b&gt;" style="text;html=1;strokeColor=none;fillColor=none;align=center;verticalAlign=middle;whiteSpace=wrap;rounded=0;fontFamily=Lucida Console;" parent="1" vertex="1">
          <mxGeometry x="1199" y="63.5" width="23" height="30" as="geometry" />
        </mxCell>
        <mxCell id="1ylkWFcsWydQvVdOaWhc-53" value="&lt;b&gt;.5&lt;/b&gt;" style="text;html=1;strokeColor=none;fillColor=none;align=center;verticalAlign=middle;whiteSpace=wrap;rounded=0;fontFamily=Lucida Console;" parent="1" vertex="1">
          <mxGeometry x="1144" y="134" width="23" height="30" as="geometry" />
        </mxCell>
        <mxCell id="1ylkWFcsWydQvVdOaWhc-55" value="&lt;b&gt;.2&lt;/b&gt;" style="text;html=1;strokeColor=none;fillColor=none;align=center;verticalAlign=middle;whiteSpace=wrap;rounded=0;fontFamily=Lucida Console;" parent="1" vertex="1">
          <mxGeometry x="1362" y="65" width="23" height="30" as="geometry" />
        </mxCell>
        <mxCell id="1ylkWFcsWydQvVdOaWhc-57" value="&lt;b&gt;.13&lt;/b&gt;" style="text;html=1;strokeColor=none;fillColor=none;align=center;verticalAlign=middle;whiteSpace=wrap;rounded=0;fontFamily=Lucida Console;" parent="1" vertex="1">
          <mxGeometry x="1443" y="134" width="23" height="30" as="geometry" />
        </mxCell>
        <mxCell id="1ylkWFcsWydQvVdOaWhc-58" value="&lt;b&gt;.6&lt;/b&gt;" style="text;html=1;strokeColor=none;fillColor=none;align=center;verticalAlign=middle;whiteSpace=wrap;rounded=0;fontFamily=Lucida Console;" parent="1" vertex="1">
          <mxGeometry x="1112" y="188" width="23" height="30" as="geometry" />
        </mxCell>
        <mxCell id="1ylkWFcsWydQvVdOaWhc-60" value="&lt;b&gt;.9&lt;/b&gt;" style="text;html=1;strokeColor=none;fillColor=none;align=center;verticalAlign=middle;whiteSpace=wrap;rounded=0;fontFamily=Lucida Console;" parent="1" vertex="1">
          <mxGeometry x="1207" y="239.5" width="23" height="30" as="geometry" />
        </mxCell>
        <mxCell id="1ylkWFcsWydQvVdOaWhc-61" value="&lt;b&gt;.14&lt;/b&gt;" style="text;html=1;strokeColor=none;fillColor=none;align=center;verticalAlign=middle;whiteSpace=wrap;rounded=0;fontFamily=Lucida Console;" parent="1" vertex="1">
          <mxGeometry x="1443" y="182" width="23" height="30" as="geometry" />
        </mxCell>
        <mxCell id="1ylkWFcsWydQvVdOaWhc-63" value="&lt;b&gt;.10&lt;/b&gt;" style="text;html=1;strokeColor=none;fillColor=none;align=center;verticalAlign=middle;whiteSpace=wrap;rounded=0;fontFamily=Lucida Console;" parent="1" vertex="1">
          <mxGeometry x="1354" y="239.5" width="23" height="30" as="geometry" />
        </mxCell>
        <mxCell id="1ylkWFcsWydQvVdOaWhc-72" value="" style="endArrow=none;html=1;rounded=0;entryX=0;entryY=0.5;entryDx=0;entryDy=0;entryPerimeter=0;exitX=1;exitY=0.5;exitDx=0;exitDy=0;exitPerimeter=0;startArrow=none;" parent="1" source="1ylkWFcsWydQvVdOaWhc-106" target="1ylkWFcsWydQvVdOaWhc-3" edge="1">
          <mxGeometry width="50" height="50" relative="1" as="geometry">
            <mxPoint x="834" y="260" as="sourcePoint" />
            <mxPoint x="1094" y="260" as="targetPoint" />
          </mxGeometry>
        </mxCell>
        <mxCell id="1ylkWFcsWydQvVdOaWhc-73" value="" style="endArrow=none;html=1;rounded=0;exitX=0.5;exitY=0;exitDx=0;exitDy=0;exitPerimeter=0;entryX=0.5;entryY=1;entryDx=0;entryDy=0;entryPerimeter=0;startArrow=none;" parent="1" source="1ylkWFcsWydQvVdOaWhc-95" target="LB4oUW9Qehg8nWZua1mU-2" edge="1">
          <mxGeometry width="50" height="50" relative="1" as="geometry">
            <mxPoint x="870" y="330" as="sourcePoint" />
            <mxPoint x="920" y="280" as="targetPoint" />
          </mxGeometry>
        </mxCell>
        <mxCell id="1ylkWFcsWydQvVdOaWhc-74" value="" style="endArrow=none;html=1;rounded=0;exitX=0.5;exitY=0;exitDx=0;exitDy=0;exitPerimeter=0;entryX=0.5;entryY=1;entryDx=0;entryDy=0;entryPerimeter=0;startArrow=none;" parent="1" source="1ylkWFcsWydQvVdOaWhc-80" target="LB4oUW9Qehg8nWZua1mU-1" edge="1">
          <mxGeometry width="50" height="50" relative="1" as="geometry">
            <mxPoint x="920" y="380" as="sourcePoint" />
            <mxPoint x="356" y="170" as="targetPoint" />
          </mxGeometry>
        </mxCell>
        <mxCell id="1ylkWFcsWydQvVdOaWhc-75" value="" style="endArrow=none;html=1;rounded=0;exitX=0.855;exitY=0.8555;exitDx=0;exitDy=0;exitPerimeter=0;entryX=0.145;entryY=0.145;entryDx=0;entryDy=0;entryPerimeter=0;startArrow=none;" parent="1" source="1ylkWFcsWydQvVdOaWhc-87" target="LB4oUW9Qehg8nWZua1mU-2" edge="1">
          <mxGeometry width="50" height="50" relative="1" as="geometry">
            <mxPoint x="880" y="220" as="sourcePoint" />
            <mxPoint x="930" y="170" as="targetPoint" />
          </mxGeometry>
        </mxCell>
        <mxCell id="1ylkWFcsWydQvVdOaWhc-78" value="&lt;b&gt;R22&lt;/b&gt;" style="text;html=1;strokeColor=none;fillColor=none;align=right;verticalAlign=middle;whiteSpace=wrap;rounded=0;" parent="1" vertex="1">
          <mxGeometry x="294.5" y="68" width="30" height="30" as="geometry" />
        </mxCell>
        <mxCell id="1ylkWFcsWydQvVdOaWhc-79" value="&lt;font style=&quot;font-size: 10px;&quot;&gt;lo:2ccc:0:65:ffff::22&lt;/font&gt;" style="text;html=1;strokeColor=none;fillColor=none;align=center;verticalAlign=middle;whiteSpace=wrap;rounded=0;fontFamily=Lucida Console;" parent="1" vertex="1">
          <mxGeometry x="215" y="77" width="100" height="39" as="geometry" />
        </mxCell>
        <mxCell id="1ylkWFcsWydQvVdOaWhc-80" value="e0/0" style="text;html=1;strokeColor=none;fillColor=none;align=center;verticalAlign=middle;whiteSpace=wrap;rounded=0;" parent="1" vertex="1">
          <mxGeometry x="341" y="121" width="30" height="20" as="geometry" />
        </mxCell>
        <mxCell id="1ylkWFcsWydQvVdOaWhc-81" value="" style="endArrow=none;html=1;rounded=0;exitX=0.5;exitY=0;exitDx=0;exitDy=0;exitPerimeter=0;entryX=0.5;entryY=1;entryDx=0;entryDy=0;entryPerimeter=0;startArrow=none;" parent="1" source="1ylkWFcsWydQvVdOaWhc-82" target="1ylkWFcsWydQvVdOaWhc-80" edge="1">
          <mxGeometry width="50" height="50" relative="1" as="geometry">
            <mxPoint x="356" y="405" as="sourcePoint" />
            <mxPoint x="356" y="115" as="targetPoint" />
          </mxGeometry>
        </mxCell>
        <mxCell id="1ylkWFcsWydQvVdOaWhc-82" value="e0/2" style="text;html=1;strokeColor=none;fillColor=none;align=center;verticalAlign=middle;whiteSpace=wrap;rounded=0;" parent="1" vertex="1">
          <mxGeometry x="340.5" y="378" width="30" height="20" as="geometry" />
        </mxCell>
        <mxCell id="1ylkWFcsWydQvVdOaWhc-83" value="" style="endArrow=none;html=1;rounded=0;exitX=0.5;exitY=0;exitDx=0;exitDy=0;exitPerimeter=0;entryX=0.5;entryY=1;entryDx=0;entryDy=0;entryPerimeter=0;" parent="1" source="LB4oUW9Qehg8nWZua1mU-3" target="1ylkWFcsWydQvVdOaWhc-82" edge="1">
          <mxGeometry width="50" height="50" relative="1" as="geometry">
            <mxPoint x="356" y="405" as="sourcePoint" />
            <mxPoint x="356" y="141.00000000000006" as="targetPoint" />
          </mxGeometry>
        </mxCell>
        <mxCell id="1ylkWFcsWydQvVdOaWhc-85" value="e0/1" style="text;html=1;strokeColor=none;fillColor=none;align=center;verticalAlign=middle;whiteSpace=wrap;rounded=0;" parent="1" vertex="1">
          <mxGeometry x="379" y="111" width="40" height="21" as="geometry" />
        </mxCell>
        <mxCell id="1ylkWFcsWydQvVdOaWhc-86" value="" style="endArrow=none;html=1;rounded=0;exitX=0.855;exitY=0.8555;exitDx=0;exitDy=0;exitPerimeter=0;entryX=0.145;entryY=0.145;entryDx=0;entryDy=0;entryPerimeter=0;" parent="1" source="LB4oUW9Qehg8nWZua1mU-1" target="1ylkWFcsWydQvVdOaWhc-85" edge="1">
          <mxGeometry width="50" height="50" relative="1" as="geometry">
            <mxPoint x="373.7499999999999" y="107.77500000000009" as="sourcePoint" />
            <mxPoint x="636.25" y="242.2500000000001" as="targetPoint" />
          </mxGeometry>
        </mxCell>
        <mxCell id="1ylkWFcsWydQvVdOaWhc-87" value="e0/1" style="text;html=1;strokeColor=none;fillColor=none;align=center;verticalAlign=middle;whiteSpace=wrap;rounded=0;" parent="1" vertex="1">
          <mxGeometry x="591" y="218" width="40" height="21" as="geometry" />
        </mxCell>
        <mxCell id="1ylkWFcsWydQvVdOaWhc-88" value="" style="endArrow=none;html=1;rounded=0;exitX=0.855;exitY=0.8555;exitDx=0;exitDy=0;exitPerimeter=0;entryX=0.145;entryY=0.145;entryDx=0;entryDy=0;entryPerimeter=0;startArrow=none;" parent="1" source="1ylkWFcsWydQvVdOaWhc-85" target="1ylkWFcsWydQvVdOaWhc-87" edge="1">
          <mxGeometry width="50" height="50" relative="1" as="geometry">
            <mxPoint x="413.20000000000005" y="128.96550000000002" as="sourcePoint" />
            <mxPoint x="636.25" y="242.2500000000001" as="targetPoint" />
          </mxGeometry>
        </mxCell>
        <mxCell id="1ylkWFcsWydQvVdOaWhc-89" value="&lt;b&gt;R21&lt;br&gt;&lt;/b&gt;" style="text;html=1;strokeColor=none;fillColor=none;align=left;verticalAlign=middle;whiteSpace=wrap;rounded=0;" parent="1" vertex="1">
          <mxGeometry x="602" y="239" width="30" height="30" as="geometry" />
        </mxCell>
        <mxCell id="1ylkWFcsWydQvVdOaWhc-91" value="&lt;font style=&quot;font-size: 10px;&quot;&gt;lo:2ccc:0:12d:ffff::21&lt;/font&gt;" style="text;html=1;strokeColor=none;fillColor=none;align=center;verticalAlign=middle;whiteSpace=wrap;rounded=0;fontFamily=Lucida Console;" parent="1" vertex="1">
          <mxGeometry x="510" y="255" width="104.5" height="30" as="geometry" />
        </mxCell>
        <mxCell id="1ylkWFcsWydQvVdOaWhc-93" value="e0/2" style="text;html=1;strokeColor=none;fillColor=none;align=right;verticalAlign=middle;whiteSpace=wrap;rounded=0;" parent="1" vertex="1">
          <mxGeometry x="692" y="248.5" width="30" height="23.5" as="geometry" />
        </mxCell>
        <mxCell id="1ylkWFcsWydQvVdOaWhc-94" value="" style="endArrow=none;html=1;rounded=0;entryX=0;entryY=0.5;entryDx=0;entryDy=0;entryPerimeter=0;exitX=1;exitY=0.5;exitDx=0;exitDy=0;exitPerimeter=0;" parent="1" source="LB4oUW9Qehg8nWZua1mU-2" target="1ylkWFcsWydQvVdOaWhc-93" edge="1">
          <mxGeometry width="50" height="50" relative="1" as="geometry">
            <mxPoint x="679.0000000000001" y="260" as="sourcePoint" />
            <mxPoint x="973" y="260" as="targetPoint" />
          </mxGeometry>
        </mxCell>
        <mxCell id="1ylkWFcsWydQvVdOaWhc-95" value="e0/0" style="text;html=1;strokeColor=none;fillColor=none;align=center;verticalAlign=middle;whiteSpace=wrap;rounded=0;" parent="1" vertex="1">
          <mxGeometry x="639" y="290" width="30" height="20" as="geometry" />
        </mxCell>
        <mxCell id="1ylkWFcsWydQvVdOaWhc-96" value="" style="endArrow=none;html=1;rounded=0;exitX=0.5;exitY=0;exitDx=0;exitDy=0;exitPerimeter=0;entryX=0.5;entryY=1;entryDx=0;entryDy=0;entryPerimeter=0;startArrow=none;" parent="1" source="1ylkWFcsWydQvVdOaWhc-97" target="1ylkWFcsWydQvVdOaWhc-95" edge="1">
          <mxGeometry width="50" height="50" relative="1" as="geometry">
            <mxPoint x="654" y="405" as="sourcePoint" />
            <mxPoint x="654" y="285" as="targetPoint" />
          </mxGeometry>
        </mxCell>
        <mxCell id="1ylkWFcsWydQvVdOaWhc-97" value="e0/2" style="text;html=1;strokeColor=none;fillColor=none;align=center;verticalAlign=middle;whiteSpace=wrap;rounded=0;" parent="1" vertex="1">
          <mxGeometry x="639.5" y="378" width="30" height="20" as="geometry" />
        </mxCell>
        <mxCell id="1ylkWFcsWydQvVdOaWhc-98" value="" style="endArrow=none;html=1;rounded=0;exitX=0.5;exitY=0;exitDx=0;exitDy=0;exitPerimeter=0;entryX=0.5;entryY=1;entryDx=0;entryDy=0;entryPerimeter=0;" parent="1" source="LB4oUW9Qehg8nWZua1mU-4" target="1ylkWFcsWydQvVdOaWhc-97" edge="1">
          <mxGeometry width="50" height="50" relative="1" as="geometry">
            <mxPoint x="654" y="405" as="sourcePoint" />
            <mxPoint x="654" y="310" as="targetPoint" />
          </mxGeometry>
        </mxCell>
        <mxCell id="1ylkWFcsWydQvVdOaWhc-101" value="172.16.0.0/30" style="text;html=1;strokeColor=none;fillColor=none;align=center;verticalAlign=middle;whiteSpace=wrap;rounded=0;fontFamily=Lucida Console;" parent="1" vertex="1">
          <mxGeometry x="569" y="326" width="60" height="30" as="geometry" />
        </mxCell>
        <mxCell id="1ylkWFcsWydQvVdOaWhc-102" value="172.16.0.4/30" style="text;html=1;strokeColor=none;fillColor=none;align=center;verticalAlign=middle;whiteSpace=wrap;rounded=0;fontFamily=Lucida Console;" parent="1" vertex="1">
          <mxGeometry x="376" y="248.5" width="60" height="30" as="geometry" />
        </mxCell>
        <mxCell id="1ylkWFcsWydQvVdOaWhc-103" value="172.16.0.8/30" style="text;html=1;strokeColor=none;fillColor=none;align=center;verticalAlign=middle;whiteSpace=wrap;rounded=0;fontFamily=Lucida Console;" parent="1" vertex="1">
          <mxGeometry x="436" y="177" width="60" height="30" as="geometry" />
        </mxCell>
        <mxCell id="1ylkWFcsWydQvVdOaWhc-104" value="172.16.0.12/30" style="text;html=1;strokeColor=none;fillColor=none;align=center;verticalAlign=middle;whiteSpace=wrap;rounded=0;fontFamily=Lucida Console;" parent="1" vertex="1">
          <mxGeometry x="716" y="91" width="60" height="30" as="geometry" />
        </mxCell>
        <mxCell id="1ylkWFcsWydQvVdOaWhc-105" value="172.16.0.16/30" style="text;html=1;strokeColor=none;fillColor=none;align=center;verticalAlign=middle;whiteSpace=wrap;rounded=0;fontFamily=Lucida Console;" parent="1" vertex="1">
          <mxGeometry x="863" y="227" width="60" height="30" as="geometry" />
        </mxCell>
        <mxCell id="1ylkWFcsWydQvVdOaWhc-106" value="e0/0" style="text;html=1;strokeColor=none;fillColor=none;align=right;verticalAlign=middle;whiteSpace=wrap;rounded=0;" parent="1" vertex="1">
          <mxGeometry x="1077.5" y="248.5" width="30" height="23.5" as="geometry" />
        </mxCell>
        <mxCell id="1ylkWFcsWydQvVdOaWhc-107" value="" style="endArrow=none;html=1;rounded=0;entryX=0;entryY=0.5;entryDx=0;entryDy=0;entryPerimeter=0;exitX=1;exitY=0.5;exitDx=0;exitDy=0;exitPerimeter=0;startArrow=none;" parent="1" source="1ylkWFcsWydQvVdOaWhc-93" target="1ylkWFcsWydQvVdOaWhc-106" edge="1">
          <mxGeometry width="50" height="50" relative="1" as="geometry">
            <mxPoint x="722" y="260.25" as="sourcePoint" />
            <mxPoint x="973" y="260" as="targetPoint" />
          </mxGeometry>
        </mxCell>
        <mxCell id="1ylkWFcsWydQvVdOaWhc-108" value="e0/0" style="text;html=1;strokeColor=none;fillColor=none;align=right;verticalAlign=middle;whiteSpace=wrap;rounded=0;" parent="1" vertex="1">
          <mxGeometry x="1077.5" y="77.5" width="30" height="23.5" as="geometry" />
        </mxCell>
        <mxCell id="1ylkWFcsWydQvVdOaWhc-109" value="" style="endArrow=none;html=1;rounded=0;startArrow=none;entryX=0;entryY=0.5;entryDx=0;entryDy=0;entryPerimeter=0;exitX=1;exitY=0.5;exitDx=0;exitDy=0;exitPerimeter=0;" parent="1" source="1ylkWFcsWydQvVdOaWhc-110" target="1ylkWFcsWydQvVdOaWhc-108" edge="1">
          <mxGeometry width="50" height="50" relative="1" as="geometry">
            <mxPoint x="381" y="90" as="sourcePoint" />
            <mxPoint x="973" y="89" as="targetPoint" />
          </mxGeometry>
        </mxCell>
        <mxCell id="1ylkWFcsWydQvVdOaWhc-110" value="e0/2" style="text;html=1;strokeColor=none;fillColor=none;align=center;verticalAlign=middle;whiteSpace=wrap;rounded=0;" parent="1" vertex="1">
          <mxGeometry x="389" y="81" width="30" height="20" as="geometry" />
        </mxCell>
        <mxCell id="1ylkWFcsWydQvVdOaWhc-111" value="" style="endArrow=none;html=1;rounded=0;startArrow=none;entryX=0;entryY=0.5;entryDx=0;entryDy=0;entryPerimeter=0;exitX=1;exitY=0.5;exitDx=0;exitDy=0;exitPerimeter=0;" parent="1" source="LB4oUW9Qehg8nWZua1mU-1" target="1ylkWFcsWydQvVdOaWhc-110" edge="1">
          <mxGeometry width="50" height="50" relative="1" as="geometry">
            <mxPoint x="381" y="90" as="sourcePoint" />
            <mxPoint x="933.5" y="89.25" as="targetPoint" />
          </mxGeometry>
        </mxCell>
        <mxCell id="1ylkWFcsWydQvVdOaWhc-112" value="lo:10.2.255.23" style="text;html=1;strokeColor=none;fillColor=none;align=center;verticalAlign=middle;whiteSpace=wrap;rounded=0;fontFamily=Lucida Console;" parent="1" vertex="1">
          <mxGeometry x="1097.5" y="38" width="80" height="30" as="geometry" />
        </mxCell>
        <mxCell id="1ylkWFcsWydQvVdOaWhc-113" value="&lt;b&gt;R23&lt;br&gt;&lt;/b&gt;" style="text;html=1;strokeColor=none;fillColor=none;align=left;verticalAlign=middle;whiteSpace=wrap;rounded=0;" parent="1" vertex="1">
          <mxGeometry x="1093" y="98" width="30" height="30" as="geometry" />
        </mxCell>
        <mxCell id="1ylkWFcsWydQvVdOaWhc-114" value="lo:10.2.255.24" style="text;html=1;strokeColor=none;fillColor=none;align=center;verticalAlign=middle;whiteSpace=wrap;rounded=0;fontFamily=Lucida Console;" parent="1" vertex="1">
          <mxGeometry x="1167" y="215" width="80" height="30" as="geometry" />
        </mxCell>
        <mxCell id="1ylkWFcsWydQvVdOaWhc-115" value="&lt;b&gt;R24&lt;br&gt;&lt;/b&gt;" style="text;html=1;strokeColor=none;fillColor=none;align=left;verticalAlign=middle;whiteSpace=wrap;rounded=0;" parent="1" vertex="1">
          <mxGeometry x="1097" y="276" width="30" height="30" as="geometry" />
        </mxCell>
        <mxCell id="1ylkWFcsWydQvVdOaWhc-116" value="10.2.240.12/30" style="text;html=1;strokeColor=none;fillColor=none;align=center;verticalAlign=middle;whiteSpace=wrap;rounded=0;fontFamily=Lucida Console;" parent="1" vertex="1">
          <mxGeometry x="1358" y="158" width="60" height="30" as="geometry" />
        </mxCell>
        <mxCell id="1ylkWFcsWydQvVdOaWhc-117" value="lo:10.2.255.25" style="text;html=1;strokeColor=none;fillColor=none;align=center;verticalAlign=middle;whiteSpace=wrap;rounded=0;fontFamily=Lucida Console;" parent="1" vertex="1">
          <mxGeometry x="1400" y="38" width="80" height="30" as="geometry" />
        </mxCell>
        <mxCell id="1ylkWFcsWydQvVdOaWhc-118" value="&lt;b&gt;R25&lt;br&gt;&lt;/b&gt;" style="text;html=1;strokeColor=none;fillColor=none;align=left;verticalAlign=middle;whiteSpace=wrap;rounded=0;" parent="1" vertex="1">
          <mxGeometry x="1388" y="93.5" width="30" height="30" as="geometry" />
        </mxCell>
        <mxCell id="1ylkWFcsWydQvVdOaWhc-119" value="lo:10.2.255.26" style="text;html=1;strokeColor=none;fillColor=none;align=center;verticalAlign=middle;whiteSpace=wrap;rounded=0;fontFamily=Lucida Console;" parent="1" vertex="1">
          <mxGeometry x="1338" y="218" width="80" height="30" as="geometry" />
        </mxCell>
        <mxCell id="1ylkWFcsWydQvVdOaWhc-120" value="&lt;b&gt;R26&lt;br&gt;&lt;/b&gt;" style="text;html=1;strokeColor=none;fillColor=none;align=left;verticalAlign=middle;whiteSpace=wrap;rounded=0;" parent="1" vertex="1">
          <mxGeometry x="1456" y="275" width="30" height="30" as="geometry" />
        </mxCell>
        <mxCell id="1ylkWFcsWydQvVdOaWhc-122" value="&lt;b&gt;.18&lt;/b&gt;" style="text;html=1;strokeColor=none;fillColor=none;align=center;verticalAlign=middle;whiteSpace=wrap;rounded=0;fontFamily=Lucida Console;" parent="1" vertex="1">
          <mxGeometry x="1057" y="235" width="23" height="30" as="geometry" />
        </mxCell>
        <mxCell id="1ylkWFcsWydQvVdOaWhc-123" value="&lt;b&gt;.17&lt;/b&gt;" style="text;html=1;strokeColor=none;fillColor=none;align=center;verticalAlign=middle;whiteSpace=wrap;rounded=0;fontFamily=Lucida Console;" parent="1" vertex="1">
          <mxGeometry x="722.5" y="233" width="23" height="30" as="geometry" />
        </mxCell>
        <mxCell id="1ylkWFcsWydQvVdOaWhc-124" value="&lt;b&gt;.14&lt;/b&gt;" style="text;html=1;strokeColor=none;fillColor=none;align=center;verticalAlign=middle;whiteSpace=wrap;rounded=0;fontFamily=Lucida Console;" parent="1" vertex="1">
          <mxGeometry x="1054.5" y="63.5" width="23" height="30" as="geometry" />
        </mxCell>
        <mxCell id="1ylkWFcsWydQvVdOaWhc-125" value="&lt;b&gt;.9&lt;/b&gt;" style="text;html=1;strokeColor=none;fillColor=none;align=center;verticalAlign=middle;whiteSpace=wrap;rounded=0;fontFamily=Lucida Console;" parent="1" vertex="1">
          <mxGeometry x="413" y="106.5" width="23" height="30" as="geometry" />
        </mxCell>
        <mxCell id="1ylkWFcsWydQvVdOaWhc-127" value="&lt;b&gt;.13&lt;/b&gt;" style="text;html=1;strokeColor=none;fillColor=none;align=center;verticalAlign=middle;whiteSpace=wrap;rounded=0;fontFamily=Lucida Console;" parent="1" vertex="1">
          <mxGeometry x="421" y="67" width="23" height="30" as="geometry" />
        </mxCell>
        <mxCell id="1ylkWFcsWydQvVdOaWhc-128" value="&lt;b&gt;.10&lt;/b&gt;" style="text;html=1;strokeColor=none;fillColor=none;align=center;verticalAlign=middle;whiteSpace=wrap;rounded=0;fontFamily=Lucida Console;" parent="1" vertex="1">
          <mxGeometry x="626" y="205" width="23" height="30" as="geometry" />
        </mxCell>
        <mxCell id="1ylkWFcsWydQvVdOaWhc-129" value="&lt;b&gt;.1&lt;/b&gt;" style="text;html=1;strokeColor=none;fillColor=none;align=center;verticalAlign=middle;whiteSpace=wrap;rounded=0;fontFamily=Lucida Console;" parent="1" vertex="1">
          <mxGeometry x="616" y="297" width="23" height="30" as="geometry" />
        </mxCell>
        <mxCell id="1ylkWFcsWydQvVdOaWhc-130" value="&lt;b&gt;.2&lt;/b&gt;" style="text;html=1;strokeColor=none;fillColor=none;align=center;verticalAlign=middle;whiteSpace=wrap;rounded=0;fontFamily=Lucida Console;" parent="1" vertex="1">
          <mxGeometry x="658" y="348" width="23" height="30" as="geometry" />
        </mxCell>
        <mxCell id="1ylkWFcsWydQvVdOaWhc-131" value="&lt;b&gt;.5&lt;/b&gt;" style="text;html=1;strokeColor=none;fillColor=none;align=center;verticalAlign=middle;whiteSpace=wrap;rounded=0;fontFamily=Lucida Console;" parent="1" vertex="1">
          <mxGeometry x="359" y="134" width="23" height="30" as="geometry" />
        </mxCell>
        <mxCell id="1ylkWFcsWydQvVdOaWhc-132" value="&lt;b&gt;.6&lt;/b&gt;" style="text;html=1;strokeColor=none;fillColor=none;align=center;verticalAlign=middle;whiteSpace=wrap;rounded=0;fontFamily=Lucida Console;" parent="1" vertex="1">
          <mxGeometry x="359" y="351" width="23" height="30" as="geometry" />
        </mxCell>
        <mxCell id="1ylkWFcsWydQvVdOaWhc-136" value="" style="endArrow=none;html=1;rounded=0;exitX=1;exitY=0.5;exitDx=0;exitDy=0;exitPerimeter=0;entryX=0;entryY=0.5;entryDx=0;entryDy=0;entryPerimeter=0;startArrow=none;" parent="1" source="1ylkWFcsWydQvVdOaWhc-139" edge="1">
          <mxGeometry width="50" height="50" relative="1" as="geometry">
            <mxPoint x="1157" y="666" as="sourcePoint" />
            <mxPoint x="1415" y="601" as="targetPoint" />
          </mxGeometry>
        </mxCell>
        <mxCell id="1ylkWFcsWydQvVdOaWhc-137" value="e0/4" style="text;html=1;strokeColor=none;fillColor=none;align=left;verticalAlign=middle;whiteSpace=wrap;rounded=0;" parent="1" vertex="1">
          <mxGeometry x="1177" y="586" width="30" height="30" as="geometry" />
        </mxCell>
        <mxCell id="1ylkWFcsWydQvVdOaWhc-138" value="" style="endArrow=none;html=1;rounded=0;exitX=1;exitY=0.5;exitDx=0;exitDy=0;exitPerimeter=0;entryX=0;entryY=0.5;entryDx=0;entryDy=0;entryPerimeter=0;" parent="1" target="1ylkWFcsWydQvVdOaWhc-137" edge="1">
          <mxGeometry width="50" height="50" relative="1" as="geometry">
            <mxPoint x="1167" y="601" as="sourcePoint" />
            <mxPoint x="1415" y="601" as="targetPoint" />
          </mxGeometry>
        </mxCell>
        <mxCell id="1ylkWFcsWydQvVdOaWhc-139" value="e0/4" style="text;html=1;strokeColor=none;fillColor=none;align=right;verticalAlign=middle;whiteSpace=wrap;rounded=0;" parent="1" vertex="1">
          <mxGeometry x="1377" y="589.5" width="30" height="23.5" as="geometry" />
        </mxCell>
        <mxCell id="1ylkWFcsWydQvVdOaWhc-140" value="" style="endArrow=none;html=1;rounded=0;exitX=1;exitY=0.5;exitDx=0;exitDy=0;exitPerimeter=0;entryX=0;entryY=0.5;entryDx=0;entryDy=0;entryPerimeter=0;startArrow=none;" parent="1" source="1ylkWFcsWydQvVdOaWhc-137" target="1ylkWFcsWydQvVdOaWhc-139" edge="1">
          <mxGeometry width="50" height="50" relative="1" as="geometry">
            <mxPoint x="1207" y="600" as="sourcePoint" />
            <mxPoint x="1415" y="601" as="targetPoint" />
          </mxGeometry>
        </mxCell>
        <mxCell id="1ylkWFcsWydQvVdOaWhc-143" value="" style="sketch=0;points=[[0.015,0.015,0],[0.985,0.015,0],[0.985,0.985,0],[0.015,0.985,0],[0.25,0,0],[0.5,0,0],[0.75,0,0],[1,0.25,0],[1,0.5,0],[1,0.75,0],[0.75,1,0],[0.5,1,0],[0.25,1,0],[0,0.75,0],[0,0.5,0],[0,0.25,0]];verticalLabelPosition=bottom;html=1;verticalAlign=top;aspect=fixed;align=center;pointerEvents=1;shape=mxgraph.cisco19.rect;prIcon=l2_switch;fillColor=#FAFAFA;strokeColor=#005073;" parent="1" vertex="1">
          <mxGeometry x="1117" y="747" width="50" height="50" as="geometry" />
        </mxCell>
        <mxCell id="1ylkWFcsWydQvVdOaWhc-144" value="" style="endArrow=none;html=1;rounded=0;exitX=0.5;exitY=0;exitDx=0;exitDy=0;exitPerimeter=0;entryX=0.5;entryY=1;entryDx=0;entryDy=0;entryPerimeter=0;startArrow=none;" parent="1" source="1ylkWFcsWydQvVdOaWhc-145" edge="1">
          <mxGeometry width="50" height="50" relative="1" as="geometry">
            <mxPoint x="1297" y="667" as="sourcePoint" />
            <mxPoint x="1142" y="627" as="targetPoint" />
          </mxGeometry>
        </mxCell>
        <mxCell id="1ylkWFcsWydQvVdOaWhc-145" value="e0/0" style="text;html=1;strokeColor=none;fillColor=none;align=center;verticalAlign=middle;whiteSpace=wrap;rounded=0;" parent="1" vertex="1">
          <mxGeometry x="1127" y="634" width="30" height="20" as="geometry" />
        </mxCell>
        <mxCell id="1ylkWFcsWydQvVdOaWhc-146" value="" style="endArrow=none;html=1;rounded=0;exitX=0.5;exitY=0;exitDx=0;exitDy=0;exitPerimeter=0;entryX=0.5;entryY=1;entryDx=0;entryDy=0;entryPerimeter=0;startArrow=none;" parent="1" source="1ylkWFcsWydQvVdOaWhc-147" target="1ylkWFcsWydQvVdOaWhc-145" edge="1">
          <mxGeometry width="50" height="50" relative="1" as="geometry">
            <mxPoint x="1142" y="748" as="sourcePoint" />
            <mxPoint x="1142" y="627" as="targetPoint" />
          </mxGeometry>
        </mxCell>
        <mxCell id="1ylkWFcsWydQvVdOaWhc-147" value="e0/3" style="text;html=1;strokeColor=none;fillColor=none;align=center;verticalAlign=middle;whiteSpace=wrap;rounded=0;" parent="1" vertex="1">
          <mxGeometry x="1127" y="720" width="30" height="20" as="geometry" />
        </mxCell>
        <mxCell id="1ylkWFcsWydQvVdOaWhc-148" value="" style="endArrow=none;html=1;rounded=0;exitX=0.5;exitY=0;exitDx=0;exitDy=0;exitPerimeter=0;entryX=0.5;entryY=1;entryDx=0;entryDy=0;entryPerimeter=0;" parent="1" target="1ylkWFcsWydQvVdOaWhc-147" edge="1">
          <mxGeometry width="50" height="50" relative="1" as="geometry">
            <mxPoint x="1142" y="748" as="sourcePoint" />
            <mxPoint x="1142" y="657" as="targetPoint" />
          </mxGeometry>
        </mxCell>
        <mxCell id="1ylkWFcsWydQvVdOaWhc-149" value="" style="sketch=0;points=[[0.015,0.015,0],[0.985,0.015,0],[0.985,0.985,0],[0.015,0.985,0],[0.25,0,0],[0.5,0,0],[0.75,0,0],[1,0.25,0],[1,0.5,0],[1,0.75,0],[0.75,1,0],[0.5,1,0],[0.25,1,0],[0,0.75,0],[0,0.5,0],[0,0.25,0]];verticalLabelPosition=bottom;html=1;verticalAlign=top;aspect=fixed;align=center;pointerEvents=1;shape=mxgraph.cisco19.rect;prIcon=l2_switch;fillColor=#FAFAFA;strokeColor=#005073;" parent="1" vertex="1">
          <mxGeometry x="1415" y="747" width="50" height="50" as="geometry" />
        </mxCell>
        <mxCell id="1ylkWFcsWydQvVdOaWhc-150" value="" style="endArrow=none;html=1;rounded=0;exitX=0.5;exitY=0;exitDx=0;exitDy=0;exitPerimeter=0;entryX=0.5;entryY=1;entryDx=0;entryDy=0;entryPerimeter=0;startArrow=none;" parent="1" source="1ylkWFcsWydQvVdOaWhc-151" edge="1">
          <mxGeometry width="50" height="50" relative="1" as="geometry">
            <mxPoint x="1595" y="667" as="sourcePoint" />
            <mxPoint x="1440" y="627" as="targetPoint" />
          </mxGeometry>
        </mxCell>
        <mxCell id="1ylkWFcsWydQvVdOaWhc-151" value="e0/0" style="text;html=1;strokeColor=none;fillColor=none;align=center;verticalAlign=middle;whiteSpace=wrap;rounded=0;" parent="1" vertex="1">
          <mxGeometry x="1425" y="634" width="30" height="20" as="geometry" />
        </mxCell>
        <mxCell id="1ylkWFcsWydQvVdOaWhc-152" value="" style="endArrow=none;html=1;rounded=0;exitX=0.5;exitY=0;exitDx=0;exitDy=0;exitPerimeter=0;entryX=0.5;entryY=1;entryDx=0;entryDy=0;entryPerimeter=0;startArrow=none;" parent="1" source="1ylkWFcsWydQvVdOaWhc-153" target="1ylkWFcsWydQvVdOaWhc-151" edge="1">
          <mxGeometry width="50" height="50" relative="1" as="geometry">
            <mxPoint x="1440" y="748" as="sourcePoint" />
            <mxPoint x="1440" y="627" as="targetPoint" />
          </mxGeometry>
        </mxCell>
        <mxCell id="1ylkWFcsWydQvVdOaWhc-153" value="e0/3" style="text;html=1;strokeColor=none;fillColor=none;align=center;verticalAlign=middle;whiteSpace=wrap;rounded=0;" parent="1" vertex="1">
          <mxGeometry x="1425" y="720" width="30" height="20" as="geometry" />
        </mxCell>
        <mxCell id="1ylkWFcsWydQvVdOaWhc-154" value="" style="endArrow=none;html=1;rounded=0;exitX=0.5;exitY=0;exitDx=0;exitDy=0;exitPerimeter=0;entryX=0.5;entryY=1;entryDx=0;entryDy=0;entryPerimeter=0;" parent="1" target="1ylkWFcsWydQvVdOaWhc-153" edge="1">
          <mxGeometry width="50" height="50" relative="1" as="geometry">
            <mxPoint x="1440" y="748.0000000000002" as="sourcePoint" />
            <mxPoint x="1440" y="657" as="targetPoint" />
          </mxGeometry>
        </mxCell>
        <mxCell id="1ylkWFcsWydQvVdOaWhc-155" value="" style="endArrow=none;html=1;rounded=0;exitX=0.985;exitY=0.015;exitDx=0;exitDy=0;exitPerimeter=0;entryX=0.145;entryY=0.855;entryDx=0;entryDy=0;entryPerimeter=0;startArrow=none;" parent="1" source="1ylkWFcsWydQvVdOaWhc-161" target="1ylkWFcsWydQvVdOaWhc-213" edge="1">
          <mxGeometry width="50" height="50" relative="1" as="geometry">
            <mxPoint x="1266" y="697" as="sourcePoint" />
            <mxPoint x="1415.7499999999998" y="626.25" as="targetPoint" />
          </mxGeometry>
        </mxCell>
        <mxCell id="1ylkWFcsWydQvVdOaWhc-156" value="" style="endArrow=none;html=1;rounded=0;exitX=0.015;exitY=0.015;exitDx=0;exitDy=0;exitPerimeter=0;entryX=0.855;entryY=0.8555;entryDx=0;entryDy=0;entryPerimeter=0;startArrow=none;" parent="1" source="1ylkWFcsWydQvVdOaWhc-159" target="1ylkWFcsWydQvVdOaWhc-212" edge="1">
          <mxGeometry width="50" height="50" relative="1" as="geometry">
            <mxPoint x="1266" y="697" as="sourcePoint" />
            <mxPoint x="1166.25" y="626.25" as="targetPoint" />
          </mxGeometry>
        </mxCell>
        <mxCell id="1ylkWFcsWydQvVdOaWhc-157" value="e1/0" style="text;html=1;strokeColor=none;fillColor=none;align=center;verticalAlign=middle;whiteSpace=wrap;rounded=0;" parent="1" vertex="1">
          <mxGeometry x="1182" y="719" width="40" height="21" as="geometry" />
        </mxCell>
        <mxCell id="1ylkWFcsWydQvVdOaWhc-158" value="" style="endArrow=none;html=1;rounded=0;exitX=0.985;exitY=0.015;exitDx=0;exitDy=0;exitPerimeter=0;entryX=0.015;entryY=0.985;entryDx=0;entryDy=0;entryPerimeter=0;" parent="1" source="1ylkWFcsWydQvVdOaWhc-143" target="1ylkWFcsWydQvVdOaWhc-157" edge="1">
          <mxGeometry width="50" height="50" relative="1" as="geometry">
            <mxPoint x="1166.25" y="747.75" as="sourcePoint" />
            <mxPoint x="1415.75" y="626.25" as="targetPoint" />
          </mxGeometry>
        </mxCell>
        <mxCell id="1ylkWFcsWydQvVdOaWhc-159" value="e0/2" style="text;html=1;strokeColor=none;fillColor=none;align=center;verticalAlign=middle;whiteSpace=wrap;rounded=0;" parent="1" vertex="1">
          <mxGeometry x="1186" y="632" width="31" height="21" as="geometry" />
        </mxCell>
        <mxCell id="1ylkWFcsWydQvVdOaWhc-160" value="" style="endArrow=none;html=1;rounded=0;exitX=0.015;exitY=0.015;exitDx=0;exitDy=0;exitPerimeter=0;entryX=0.985;entryY=0.985;entryDx=0;entryDy=0;entryPerimeter=0;startArrow=none;" parent="1" source="1ylkWFcsWydQvVdOaWhc-163" target="1ylkWFcsWydQvVdOaWhc-159" edge="1">
          <mxGeometry width="50" height="50" relative="1" as="geometry">
            <mxPoint x="1415.75" y="747.75" as="sourcePoint" />
            <mxPoint x="1166.25" y="626.25" as="targetPoint" />
          </mxGeometry>
        </mxCell>
        <mxCell id="1ylkWFcsWydQvVdOaWhc-161" value="e0/2" style="text;html=1;strokeColor=none;fillColor=none;align=center;verticalAlign=middle;whiteSpace=wrap;rounded=0;" parent="1" vertex="1">
          <mxGeometry x="1362" y="631" width="40" height="21" as="geometry" />
        </mxCell>
        <mxCell id="1ylkWFcsWydQvVdOaWhc-162" value="" style="endArrow=none;html=1;rounded=0;exitX=0.985;exitY=0.015;exitDx=0;exitDy=0;exitPerimeter=0;entryX=0.015;entryY=0.985;entryDx=0;entryDy=0;entryPerimeter=0;startArrow=none;" parent="1" source="1ylkWFcsWydQvVdOaWhc-157" target="1ylkWFcsWydQvVdOaWhc-161" edge="1">
          <mxGeometry width="50" height="50" relative="1" as="geometry">
            <mxPoint x="1221.4" y="719.3150000000003" as="sourcePoint" />
            <mxPoint x="1415.75" y="626.25" as="targetPoint" />
          </mxGeometry>
        </mxCell>
        <mxCell id="1ylkWFcsWydQvVdOaWhc-163" value="e1/0" style="text;html=1;strokeColor=none;fillColor=none;align=center;verticalAlign=middle;whiteSpace=wrap;rounded=0;" parent="1" vertex="1">
          <mxGeometry x="1362" y="720" width="40" height="21" as="geometry" />
        </mxCell>
        <mxCell id="1ylkWFcsWydQvVdOaWhc-164" value="" style="endArrow=none;html=1;rounded=0;exitX=0.015;exitY=0.015;exitDx=0;exitDy=0;exitPerimeter=0;entryX=0.985;entryY=0.985;entryDx=0;entryDy=0;entryPerimeter=0;" parent="1" source="1ylkWFcsWydQvVdOaWhc-149" target="1ylkWFcsWydQvVdOaWhc-163" edge="1">
          <mxGeometry width="50" height="50" relative="1" as="geometry">
            <mxPoint x="1415.75" y="747.75" as="sourcePoint" />
            <mxPoint x="1216.4" y="647.6850000000002" as="targetPoint" />
          </mxGeometry>
        </mxCell>
        <mxCell id="1ylkWFcsWydQvVdOaWhc-165" value="" style="points=[[0.03,0.03,0],[0.5,0,0],[0.97,0.03,0],[1,0.4,0],[0.97,0.745,0],[0.5,1,0],[0.03,0.745,0],[0,0.4,0]];verticalLabelPosition=bottom;sketch=0;html=1;verticalAlign=top;aspect=fixed;align=center;pointerEvents=1;shape=mxgraph.cisco19.workstation;fillColor=#005073;strokeColor=none;" parent="1" vertex="1">
          <mxGeometry x="1117" y="917" width="50" height="40" as="geometry" />
        </mxCell>
        <mxCell id="1ylkWFcsWydQvVdOaWhc-166" value="" style="endArrow=none;html=1;rounded=0;exitX=0.5;exitY=0;exitDx=0;exitDy=0;exitPerimeter=0;entryX=0.5;entryY=1;entryDx=0;entryDy=0;entryPerimeter=0;startArrow=none;" parent="1" source="1ylkWFcsWydQvVdOaWhc-167" edge="1">
          <mxGeometry width="50" height="50" relative="1" as="geometry">
            <mxPoint x="1297" y="836" as="sourcePoint" />
            <mxPoint x="1142" y="796" as="targetPoint" />
          </mxGeometry>
        </mxCell>
        <mxCell id="1ylkWFcsWydQvVdOaWhc-167" value="e0/2" style="text;html=1;strokeColor=none;fillColor=none;align=center;verticalAlign=middle;whiteSpace=wrap;rounded=0;" parent="1" vertex="1">
          <mxGeometry x="1127" y="803" width="30" height="20" as="geometry" />
        </mxCell>
        <mxCell id="1ylkWFcsWydQvVdOaWhc-168" value="" style="endArrow=none;html=1;rounded=0;exitX=0.5;exitY=0;exitDx=0;exitDy=0;exitPerimeter=0;entryX=0.5;entryY=1;entryDx=0;entryDy=0;entryPerimeter=0;startArrow=none;" parent="1" source="1ylkWFcsWydQvVdOaWhc-169" target="1ylkWFcsWydQvVdOaWhc-167" edge="1">
          <mxGeometry width="50" height="50" relative="1" as="geometry">
            <mxPoint x="1142" y="917" as="sourcePoint" />
            <mxPoint x="1142" y="796" as="targetPoint" />
          </mxGeometry>
        </mxCell>
        <mxCell id="1ylkWFcsWydQvVdOaWhc-169" value="eth0" style="text;html=1;strokeColor=none;fillColor=none;align=center;verticalAlign=middle;whiteSpace=wrap;rounded=0;" parent="1" vertex="1">
          <mxGeometry x="1127" y="889" width="30" height="20" as="geometry" />
        </mxCell>
        <mxCell id="1ylkWFcsWydQvVdOaWhc-170" value="" style="endArrow=none;html=1;rounded=0;exitX=0.5;exitY=0;exitDx=0;exitDy=0;exitPerimeter=0;entryX=0.5;entryY=1;entryDx=0;entryDy=0;entryPerimeter=0;" parent="1" target="1ylkWFcsWydQvVdOaWhc-169" edge="1">
          <mxGeometry width="50" height="50" relative="1" as="geometry">
            <mxPoint x="1142" y="917" as="sourcePoint" />
            <mxPoint x="1142" y="826" as="targetPoint" />
          </mxGeometry>
        </mxCell>
        <mxCell id="1ylkWFcsWydQvVdOaWhc-171" value="&lt;b&gt;R17&lt;/b&gt;" style="text;html=1;strokeColor=none;fillColor=none;align=right;verticalAlign=middle;whiteSpace=wrap;rounded=0;" parent="1" vertex="1">
          <mxGeometry x="1076" y="582" width="41" height="30" as="geometry" />
        </mxCell>
        <mxCell id="1ylkWFcsWydQvVdOaWhc-172" value="&lt;b&gt;SW9&lt;/b&gt;" style="text;html=1;strokeColor=none;fillColor=none;align=right;verticalAlign=middle;whiteSpace=wrap;rounded=0;" parent="1" vertex="1">
          <mxGeometry x="1066" y="747" width="51" height="30" as="geometry" />
        </mxCell>
        <mxCell id="1ylkWFcsWydQvVdOaWhc-173" value="" style="points=[[0.03,0.03,0],[0.5,0,0],[0.97,0.03,0],[1,0.4,0],[0.97,0.745,0],[0.5,1,0],[0.03,0.745,0],[0,0.4,0]];verticalLabelPosition=bottom;sketch=0;html=1;verticalAlign=top;aspect=fixed;align=center;pointerEvents=1;shape=mxgraph.cisco19.workstation;fillColor=#005073;strokeColor=none;" parent="1" vertex="1">
          <mxGeometry x="1418" y="918" width="50" height="40" as="geometry" />
        </mxCell>
        <mxCell id="1ylkWFcsWydQvVdOaWhc-174" value="" style="endArrow=none;html=1;rounded=0;exitX=0.5;exitY=0;exitDx=0;exitDy=0;exitPerimeter=0;entryX=0.5;entryY=1;entryDx=0;entryDy=0;entryPerimeter=0;startArrow=none;" parent="1" source="1ylkWFcsWydQvVdOaWhc-175" edge="1">
          <mxGeometry width="50" height="50" relative="1" as="geometry">
            <mxPoint x="1598" y="837" as="sourcePoint" />
            <mxPoint x="1443" y="797" as="targetPoint" />
          </mxGeometry>
        </mxCell>
        <mxCell id="1ylkWFcsWydQvVdOaWhc-175" value="e0/2" style="text;html=1;strokeColor=none;fillColor=none;align=center;verticalAlign=middle;whiteSpace=wrap;rounded=0;" parent="1" vertex="1">
          <mxGeometry x="1428" y="804" width="30" height="20" as="geometry" />
        </mxCell>
        <mxCell id="1ylkWFcsWydQvVdOaWhc-176" value="" style="endArrow=none;html=1;rounded=0;exitX=0.5;exitY=0;exitDx=0;exitDy=0;exitPerimeter=0;entryX=0.5;entryY=1;entryDx=0;entryDy=0;entryPerimeter=0;startArrow=none;" parent="1" source="1ylkWFcsWydQvVdOaWhc-177" target="1ylkWFcsWydQvVdOaWhc-175" edge="1">
          <mxGeometry width="50" height="50" relative="1" as="geometry">
            <mxPoint x="1443" y="918" as="sourcePoint" />
            <mxPoint x="1443" y="797" as="targetPoint" />
          </mxGeometry>
        </mxCell>
        <mxCell id="1ylkWFcsWydQvVdOaWhc-177" value="eth0" style="text;html=1;strokeColor=none;fillColor=none;align=center;verticalAlign=middle;whiteSpace=wrap;rounded=0;" parent="1" vertex="1">
          <mxGeometry x="1428" y="890" width="30" height="20" as="geometry" />
        </mxCell>
        <mxCell id="1ylkWFcsWydQvVdOaWhc-178" value="" style="endArrow=none;html=1;rounded=0;exitX=0.5;exitY=0;exitDx=0;exitDy=0;exitPerimeter=0;entryX=0.5;entryY=1;entryDx=0;entryDy=0;entryPerimeter=0;" parent="1" target="1ylkWFcsWydQvVdOaWhc-177" edge="1">
          <mxGeometry width="50" height="50" relative="1" as="geometry">
            <mxPoint x="1443" y="918" as="sourcePoint" />
            <mxPoint x="1443" y="827" as="targetPoint" />
          </mxGeometry>
        </mxCell>
        <mxCell id="1ylkWFcsWydQvVdOaWhc-179" value="&lt;font face=&quot;Lucida Console&quot;&gt;10.3.0.0/24&lt;br&gt;VLAN 100&lt;br&gt;&lt;/font&gt;" style="text;html=1;strokeColor=none;fillColor=none;align=center;verticalAlign=middle;whiteSpace=wrap;rounded=0;" parent="1" vertex="1">
          <mxGeometry x="1070" y="837" width="60" height="30" as="geometry" />
        </mxCell>
        <mxCell id="1ylkWFcsWydQvVdOaWhc-180" value="&lt;font face=&quot;Lucida Console&quot;&gt;10.3.1.0/24&lt;br&gt;VLAN 110&lt;br&gt;&lt;/font&gt;" style="text;html=1;strokeColor=none;fillColor=none;align=center;verticalAlign=middle;whiteSpace=wrap;rounded=0;" parent="1" vertex="1">
          <mxGeometry x="1372" y="837" width="60" height="30" as="geometry" />
        </mxCell>
        <mxCell id="1ylkWFcsWydQvVdOaWhc-181" value="&lt;font face=&quot;Lucida Console&quot;&gt;SVI: VLAN 10: 10.3.254.10&lt;/font&gt;" style="text;html=1;strokeColor=none;fillColor=none;align=center;verticalAlign=middle;whiteSpace=wrap;rounded=0;" parent="1" vertex="1">
          <mxGeometry x="1467" y="767" width="189" height="30" as="geometry" />
        </mxCell>
        <mxCell id="1ylkWFcsWydQvVdOaWhc-182" value="&lt;b&gt;SW10&lt;/b&gt;" style="text;html=1;strokeColor=none;fillColor=none;align=left;verticalAlign=middle;whiteSpace=wrap;rounded=0;" parent="1" vertex="1">
          <mxGeometry x="1467" y="747" width="51" height="30" as="geometry" />
        </mxCell>
        <mxCell id="1ylkWFcsWydQvVdOaWhc-183" value="&lt;font face=&quot;Lucida Console&quot;&gt;SVI: VLAN 10: 10.3.254.9&lt;/font&gt;" style="text;html=1;strokeColor=none;fillColor=none;align=center;verticalAlign=middle;whiteSpace=wrap;rounded=0;" parent="1" vertex="1">
          <mxGeometry x="936" y="767" width="180" height="30" as="geometry" />
        </mxCell>
        <mxCell id="1ylkWFcsWydQvVdOaWhc-184" value="&lt;b&gt;R16&lt;/b&gt;" style="text;html=1;strokeColor=none;fillColor=none;align=left;verticalAlign=middle;whiteSpace=wrap;rounded=0;" parent="1" vertex="1">
          <mxGeometry x="1468" y="585" width="41" height="30" as="geometry" />
        </mxCell>
        <mxCell id="1ylkWFcsWydQvVdOaWhc-187" value="L2: VLANs: 10, 110, 120, 6 (native)" style="text;html=1;strokeColor=none;fillColor=none;align=center;verticalAlign=middle;whiteSpace=wrap;rounded=0;fontFamily=Lucida Console;" parent="1" vertex="1">
          <mxGeometry x="1246" y="563" width="100" height="30" as="geometry" />
        </mxCell>
        <mxCell id="1ylkWFcsWydQvVdOaWhc-188" value="lo:10.3.255.17" style="text;html=1;strokeColor=none;fillColor=none;align=center;verticalAlign=middle;whiteSpace=wrap;rounded=0;fontFamily=Lucida Console;" parent="1" vertex="1">
          <mxGeometry x="1024" y="598" width="80" height="30" as="geometry" />
        </mxCell>
        <mxCell id="1ylkWFcsWydQvVdOaWhc-189" value="lo:10.3.255.16" style="text;html=1;strokeColor=none;fillColor=none;align=left;verticalAlign=middle;whiteSpace=wrap;rounded=0;fontFamily=Lucida Console;" parent="1" vertex="1">
          <mxGeometry x="1466" y="599" width="80" height="30" as="geometry" />
        </mxCell>
        <mxCell id="1ylkWFcsWydQvVdOaWhc-190" value="root STP,&lt;br&gt;&lt;div style=&quot;&quot;&gt;&lt;span style=&quot;background-color: initial;&quot;&gt;active HSRP&lt;/span&gt;&lt;/div&gt;" style="text;html=1;strokeColor=none;fillColor=none;align=right;verticalAlign=middle;whiteSpace=wrap;rounded=0;fontFamily=Lucida Console;" parent="1" vertex="1">
          <mxGeometry x="1468" y="566" width="101" height="30" as="geometry" />
        </mxCell>
        <mxCell id="1ylkWFcsWydQvVdOaWhc-191" value="second priority STP,&lt;br&gt;standby HSRP" style="text;html=1;strokeColor=none;fillColor=none;align=left;verticalAlign=middle;whiteSpace=wrap;rounded=0;fontFamily=Lucida Console;" parent="1" vertex="1">
          <mxGeometry x="985.75" y="562.5" width="156.5" height="30" as="geometry" />
        </mxCell>
        <mxCell id="1ylkWFcsWydQvVdOaWhc-192" value="VLANs" style="text;html=1;strokeColor=none;fillColor=none;align=center;verticalAlign=middle;whiteSpace=wrap;rounded=0;fontFamily=Lucida Console;" parent="1" vertex="1">
          <mxGeometry x="1300" y="660" width="100" height="30" as="geometry" />
        </mxCell>
        <mxCell id="1ylkWFcsWydQvVdOaWhc-193" value="VLANs" style="text;html=1;strokeColor=none;fillColor=none;align=center;verticalAlign=middle;whiteSpace=wrap;rounded=0;fontFamily=Lucida Console;" parent="1" vertex="1">
          <mxGeometry x="1173" y="659" width="100" height="30" as="geometry" />
        </mxCell>
        <mxCell id="1ylkWFcsWydQvVdOaWhc-194" value="VLANs" style="text;html=1;strokeColor=none;fillColor=none;align=center;verticalAlign=middle;whiteSpace=wrap;rounded=0;fontFamily=Lucida Console;" parent="1" vertex="1">
          <mxGeometry x="1415" y="673" width="100" height="30" as="geometry" />
        </mxCell>
        <mxCell id="1ylkWFcsWydQvVdOaWhc-195" value="VLANs" style="text;html=1;strokeColor=none;fillColor=none;align=center;verticalAlign=middle;whiteSpace=wrap;rounded=0;fontFamily=Lucida Console;" parent="1" vertex="1">
          <mxGeometry x="1068" y="673" width="100" height="30" as="geometry" />
        </mxCell>
        <mxCell id="1ylkWFcsWydQvVdOaWhc-196" value="VLAN 10: 10.3.254.254&lt;br&gt;VLAN 100: 10.3.0.254&lt;br&gt;VLAN 110: 10.3.1.254" style="text;html=1;strokeColor=none;fillColor=none;align=right;verticalAlign=middle;whiteSpace=wrap;rounded=0;fontFamily=Lucida Console;" parent="1" vertex="1">
          <mxGeometry x="946" y="625" width="171" height="30" as="geometry" />
        </mxCell>
        <mxCell id="1ylkWFcsWydQvVdOaWhc-197" value="VLAN 10: 10.3.254.253&lt;br&gt;VLAN 100: 10.3.0.253&lt;br&gt;VLAN 110: 10.3.1.253" style="text;html=1;strokeColor=none;fillColor=none;align=left;verticalAlign=middle;whiteSpace=wrap;rounded=0;fontFamily=Lucida Console;" parent="1" vertex="1">
          <mxGeometry x="1467" y="625" width="171" height="30" as="geometry" />
        </mxCell>
        <mxCell id="1ylkWFcsWydQvVdOaWhc-198" value="HSRP&lt;br&gt;VLAN 10: 10.3.254.1&lt;br&gt;VLAN 100: 10.3.0.1&lt;br&gt;VLAN 110: 10.3.1.1" style="text;html=1;strokeColor=none;fillColor=none;align=center;verticalAlign=middle;whiteSpace=wrap;rounded=0;fontFamily=Lucida Console;" parent="1" vertex="1">
          <mxGeometry x="1205" y="615" width="171" height="30" as="geometry" />
        </mxCell>
        <mxCell id="1ylkWFcsWydQvVdOaWhc-201" value="&lt;b&gt;.10&lt;/b&gt;" style="text;html=1;strokeColor=none;fillColor=none;align=center;verticalAlign=middle;whiteSpace=wrap;rounded=0;fontFamily=Lucida Console;" parent="1" vertex="1">
          <mxGeometry x="1157" y="890" width="23" height="30" as="geometry" />
        </mxCell>
        <mxCell id="1ylkWFcsWydQvVdOaWhc-202" value="&lt;b&gt;.10&lt;/b&gt;" style="text;html=1;strokeColor=none;fillColor=none;align=center;verticalAlign=middle;whiteSpace=wrap;rounded=0;fontFamily=Lucida Console;" parent="1" vertex="1">
          <mxGeometry x="1455" y="888" width="23" height="30" as="geometry" />
        </mxCell>
        <mxCell id="1ylkWFcsWydQvVdOaWhc-204" value="CORE" style="text;html=1;strokeColor=none;fillColor=none;align=center;verticalAlign=middle;whiteSpace=wrap;rounded=0;" parent="1" vertex="1">
          <mxGeometry x="680" y="650" width="42" height="20" as="geometry" />
        </mxCell>
        <mxCell id="1ylkWFcsWydQvVdOaWhc-206" value="DISTRIBUTION" style="text;html=1;strokeColor=none;fillColor=none;align=center;verticalAlign=middle;whiteSpace=wrap;rounded=0;" parent="1" vertex="1">
          <mxGeometry x="656" y="852" width="42" height="20" as="geometry" />
        </mxCell>
        <mxCell id="1ylkWFcsWydQvVdOaWhc-207" value="" style="rounded=0;whiteSpace=wrap;html=1;fillColor=none;strokeColor=#999999;" parent="1" vertex="1">
          <mxGeometry x="300" y="904" width="420" height="120" as="geometry" />
        </mxCell>
        <mxCell id="1ylkWFcsWydQvVdOaWhc-208" value="ACCESS" style="text;html=1;strokeColor=none;fillColor=none;align=center;verticalAlign=middle;whiteSpace=wrap;rounded=0;" parent="1" vertex="1">
          <mxGeometry x="674" y="1004" width="42" height="20" as="geometry" />
        </mxCell>
        <mxCell id="1ylkWFcsWydQvVdOaWhc-211" value="INTERNET EDGE" style="text;html=1;strokeColor=none;fillColor=none;align=center;verticalAlign=middle;whiteSpace=wrap;rounded=0;" parent="1" vertex="1">
          <mxGeometry x="617" y="482" width="102" height="20" as="geometry" />
        </mxCell>
        <mxCell id="1ylkWFcsWydQvVdOaWhc-212" value="" style="sketch=0;points=[[0.5,0,0],[1,0.5,0],[0.5,1,0],[0,0.5,0],[0.145,0.145,0],[0.8555,0.145,0],[0.855,0.8555,0],[0.145,0.855,0]];verticalLabelPosition=bottom;html=1;verticalAlign=top;aspect=fixed;align=center;pointerEvents=1;shape=mxgraph.cisco19.rect;prIcon=router;fillColor=#FAFAFA;strokeColor=#005073;" parent="1" vertex="1">
          <mxGeometry x="1117" y="576.25" width="50" height="50" as="geometry" />
        </mxCell>
        <mxCell id="1ylkWFcsWydQvVdOaWhc-213" value="" style="sketch=0;points=[[0.5,0,0],[1,0.5,0],[0.5,1,0],[0,0.5,0],[0.145,0.145,0],[0.8555,0.145,0],[0.855,0.8555,0],[0.145,0.855,0]];verticalLabelPosition=bottom;html=1;verticalAlign=top;aspect=fixed;align=center;pointerEvents=1;shape=mxgraph.cisco19.rect;prIcon=router;fillColor=#FAFAFA;strokeColor=#005073;" parent="1" vertex="1">
          <mxGeometry x="1415" y="577.5" width="50" height="50" as="geometry" />
        </mxCell>
        <mxCell id="1ylkWFcsWydQvVdOaWhc-267" value="" style="sketch=0;points=[[0.5,0,0],[1,0.5,0],[0.5,1,0],[0,0.5,0],[0.145,0.145,0],[0.8555,0.145,0],[0.855,0.8555,0],[0.145,0.855,0]];verticalLabelPosition=bottom;html=1;verticalAlign=top;aspect=fixed;align=center;pointerEvents=1;shape=mxgraph.cisco19.rect;prIcon=router;fillColor=#FAFAFA;strokeColor=#005073;" parent="1" vertex="1">
          <mxGeometry x="1633" y="406" width="50" height="50" as="geometry" />
        </mxCell>
        <mxCell id="1ylkWFcsWydQvVdOaWhc-268" value="&lt;b&gt;R32&lt;/b&gt;" style="text;html=1;strokeColor=none;fillColor=none;align=center;verticalAlign=middle;whiteSpace=wrap;rounded=0;" parent="1" vertex="1">
          <mxGeometry x="1682" y="410" width="30" height="30" as="geometry" />
        </mxCell>
        <mxCell id="1ylkWFcsWydQvVdOaWhc-273" value="lo:10.3.255.32" style="text;html=1;strokeColor=none;fillColor=none;align=center;verticalAlign=middle;whiteSpace=wrap;rounded=0;fontFamily=Lucida Console;" parent="1" vertex="1">
          <mxGeometry x="1618" y="385" width="80" height="30" as="geometry" />
        </mxCell>
        <mxCell id="1ylkWFcsWydQvVdOaWhc-289" value="&lt;b&gt;.13&lt;/b&gt;" style="text;html=1;strokeColor=none;fillColor=none;align=center;verticalAlign=middle;whiteSpace=wrap;rounded=0;fontFamily=Lucida Console;" parent="1" vertex="1">
          <mxGeometry x="1191" y="547.5" width="23" height="30" as="geometry" />
        </mxCell>
        <mxCell id="1ylkWFcsWydQvVdOaWhc-297" value="&lt;b&gt;.9&lt;/b&gt;" style="text;html=1;strokeColor=none;fillColor=none;align=center;verticalAlign=middle;whiteSpace=wrap;rounded=0;fontFamily=Lucida Console;" parent="1" vertex="1">
          <mxGeometry x="1463.5" y="537" width="23" height="30" as="geometry" />
        </mxCell>
        <mxCell id="1ylkWFcsWydQvVdOaWhc-298" value="&lt;b&gt;.10&lt;/b&gt;" style="text;html=1;strokeColor=none;fillColor=none;align=center;verticalAlign=middle;whiteSpace=wrap;rounded=0;fontFamily=Lucida Console;" parent="1" vertex="1">
          <mxGeometry x="1603" y="472" width="23" height="30" as="geometry" />
        </mxCell>
        <mxCell id="1ylkWFcsWydQvVdOaWhc-322" value="" style="endArrow=none;html=1;rounded=0;exitX=0.979;exitY=0.196;exitDx=0;exitDy=0;exitPerimeter=0;entryX=0;entryY=0.5;entryDx=0;entryDy=0;entryPerimeter=0;startArrow=none;" parent="1" source="1ylkWFcsWydQvVdOaWhc-327" target="1ylkWFcsWydQvVdOaWhc-267" edge="1">
          <mxGeometry width="50" height="50" relative="1" as="geometry">
            <mxPoint x="1321" y="572" as="sourcePoint" />
            <mxPoint x="1631" y="432" as="targetPoint" />
          </mxGeometry>
        </mxCell>
        <mxCell id="1ylkWFcsWydQvVdOaWhc-323" value="" style="endArrow=none;html=1;rounded=0;exitX=0.8555;exitY=0.145;exitDx=0;exitDy=0;exitPerimeter=0;entryX=0.145;entryY=0.855;entryDx=0;entryDy=0;entryPerimeter=0;startArrow=none;" parent="1" source="1ylkWFcsWydQvVdOaWhc-276" target="1ylkWFcsWydQvVdOaWhc-267" edge="1">
          <mxGeometry width="50" height="50" relative="1" as="geometry">
            <mxPoint x="1441" y="542" as="sourcePoint" />
            <mxPoint x="1491" y="492" as="targetPoint" />
          </mxGeometry>
        </mxCell>
        <mxCell id="1ylkWFcsWydQvVdOaWhc-276" value="e0/0" style="text;html=1;strokeColor=none;fillColor=none;align=center;verticalAlign=middle;whiteSpace=wrap;rounded=0;" parent="1" vertex="1">
          <mxGeometry x="1606" y="455" width="27" height="19" as="geometry" />
        </mxCell>
        <mxCell id="1ylkWFcsWydQvVdOaWhc-324" value="" style="endArrow=none;html=1;rounded=0;exitX=0.8555;exitY=0.145;exitDx=0;exitDy=0;exitPerimeter=0;entryX=0.145;entryY=0.855;entryDx=0;entryDy=0;entryPerimeter=0;startArrow=none;" parent="1" source="1ylkWFcsWydQvVdOaWhc-325" target="1ylkWFcsWydQvVdOaWhc-276" edge="1">
          <mxGeometry width="50" height="50" relative="1" as="geometry">
            <mxPoint x="1457.7749999999999" y="584.25" as="sourcePoint" />
            <mxPoint x="1640.25" y="448.75" as="targetPoint" />
          </mxGeometry>
        </mxCell>
        <mxCell id="1ylkWFcsWydQvVdOaWhc-325" value="e0/3" style="text;html=1;strokeColor=none;fillColor=none;align=center;verticalAlign=middle;whiteSpace=wrap;rounded=0;" parent="1" vertex="1">
          <mxGeometry x="1466" y="559.5" width="27" height="19" as="geometry" />
        </mxCell>
        <mxCell id="1ylkWFcsWydQvVdOaWhc-326" value="" style="endArrow=none;html=1;rounded=0;exitX=0.8555;exitY=0.145;exitDx=0;exitDy=0;exitPerimeter=0;entryX=0.145;entryY=0.855;entryDx=0;entryDy=0;entryPerimeter=0;" parent="1" target="1ylkWFcsWydQvVdOaWhc-325" edge="1">
          <mxGeometry width="50" height="50" relative="1" as="geometry">
            <mxPoint x="1457.775" y="584.25" as="sourcePoint" />
            <mxPoint x="1609.915" y="471.245" as="targetPoint" />
          </mxGeometry>
        </mxCell>
        <mxCell id="1ylkWFcsWydQvVdOaWhc-327" value="e0/1" style="text;html=1;strokeColor=none;fillColor=none;align=center;verticalAlign=middle;whiteSpace=wrap;rounded=0;" parent="1" vertex="1">
          <mxGeometry x="1590" y="433.5" width="27" height="19" as="geometry" />
        </mxCell>
        <mxCell id="1ylkWFcsWydQvVdOaWhc-328" value="" style="endArrow=none;html=1;rounded=0;exitX=1;exitY=0.25;exitDx=0;exitDy=0;entryX=0.043;entryY=0.727;entryDx=0;entryDy=0;entryPerimeter=0;startArrow=none;" parent="1" source="1ylkWFcsWydQvVdOaWhc-329" target="1ylkWFcsWydQvVdOaWhc-327" edge="1">
          <mxGeometry width="50" height="50" relative="1" as="geometry">
            <mxPoint x="1159.7749999999999" y="584.25" as="sourcePoint" />
            <mxPoint x="1633" y="431" as="targetPoint" />
          </mxGeometry>
        </mxCell>
        <mxCell id="1ylkWFcsWydQvVdOaWhc-329" value="e0/3" style="text;html=1;strokeColor=none;fillColor=none;align=center;verticalAlign=middle;whiteSpace=wrap;rounded=0;" parent="1" vertex="1">
          <mxGeometry x="1172.5" y="566" width="27" height="19" as="geometry" />
        </mxCell>
        <mxCell id="1ylkWFcsWydQvVdOaWhc-330" value="" style="endArrow=none;html=1;rounded=0;exitX=0.8555;exitY=0.145;exitDx=0;exitDy=0;exitPerimeter=0;entryX=0.043;entryY=0.727;entryDx=0;entryDy=0;entryPerimeter=0;" parent="1" target="1ylkWFcsWydQvVdOaWhc-329" edge="1">
          <mxGeometry width="50" height="50" relative="1" as="geometry">
            <mxPoint x="1159.7749999999999" y="584.25" as="sourcePoint" />
            <mxPoint x="1591.161" y="447.3129999999999" as="targetPoint" />
          </mxGeometry>
        </mxCell>
        <mxCell id="1ylkWFcsWydQvVdOaWhc-331" value="&lt;b&gt;.14&lt;/b&gt;" style="text;html=1;strokeColor=none;fillColor=none;align=center;verticalAlign=middle;whiteSpace=wrap;rounded=0;fontFamily=Lucida Console;" parent="1" vertex="1">
          <mxGeometry x="1567" y="422" width="23" height="30" as="geometry" />
        </mxCell>
        <mxCell id="1ylkWFcsWydQvVdOaWhc-333" value="" style="sketch=0;points=[[0.5,0,0],[1,0.5,0],[0.5,1,0],[0,0.5,0],[0.145,0.145,0],[0.8555,0.145,0],[0.855,0.8555,0],[0.145,0.855,0]];verticalLabelPosition=bottom;html=1;verticalAlign=top;aspect=fixed;align=center;pointerEvents=1;shape=mxgraph.cisco19.rect;prIcon=router;fillColor=#FAFAFA;strokeColor=#005073;" parent="1" vertex="1">
          <mxGeometry x="1262" y="406" width="50" height="50" as="geometry" />
        </mxCell>
        <mxCell id="1ylkWFcsWydQvVdOaWhc-335" value="" style="endArrow=none;html=1;rounded=0;exitX=0.75;exitY=0;exitDx=0;exitDy=0;entryX=0.145;entryY=0.855;entryDx=0;entryDy=0;entryPerimeter=0;startArrow=none;" parent="1" source="1ylkWFcsWydQvVdOaWhc-343" target="1ylkWFcsWydQvVdOaWhc-333" edge="1">
          <mxGeometry width="50" height="50" relative="1" as="geometry">
            <mxPoint x="1266" y="493" as="sourcePoint" />
            <mxPoint x="1316" y="443" as="targetPoint" />
          </mxGeometry>
        </mxCell>
        <mxCell id="1ylkWFcsWydQvVdOaWhc-336" value="" style="endArrow=none;html=1;rounded=0;exitX=0.25;exitY=0;exitDx=0;exitDy=0;entryX=0.855;entryY=0.8555;entryDx=0;entryDy=0;entryPerimeter=0;startArrow=none;" parent="1" source="1ylkWFcsWydQvVdOaWhc-345" target="1ylkWFcsWydQvVdOaWhc-333" edge="1">
          <mxGeometry width="50" height="50" relative="1" as="geometry">
            <mxPoint x="1266" y="493" as="sourcePoint" />
            <mxPoint x="1316" y="443" as="targetPoint" />
          </mxGeometry>
        </mxCell>
        <mxCell id="1ylkWFcsWydQvVdOaWhc-339" value="e0/1" style="text;html=1;strokeColor=none;fillColor=none;align=center;verticalAlign=middle;whiteSpace=wrap;rounded=0;" parent="1" vertex="1">
          <mxGeometry x="1143.25" y="547" width="30" height="20" as="geometry" />
        </mxCell>
        <mxCell id="1ylkWFcsWydQvVdOaWhc-340" value="" style="endArrow=none;html=1;rounded=0;exitX=0.5;exitY=0;exitDx=0;exitDy=0;exitPerimeter=0;entryX=0.25;entryY=1;entryDx=0;entryDy=0;" parent="1" source="1ylkWFcsWydQvVdOaWhc-212" target="1ylkWFcsWydQvVdOaWhc-339" edge="1">
          <mxGeometry width="50" height="50" relative="1" as="geometry">
            <mxPoint x="1142" y="576.25" as="sourcePoint" />
            <mxPoint x="1269.25" y="448.75" as="targetPoint" />
          </mxGeometry>
        </mxCell>
        <mxCell id="1ylkWFcsWydQvVdOaWhc-341" value="e0/1" style="text;html=1;strokeColor=none;fillColor=none;align=right;verticalAlign=middle;whiteSpace=wrap;rounded=0;" parent="1" vertex="1">
          <mxGeometry x="1387" y="553" width="30" height="24.5" as="geometry" />
        </mxCell>
        <mxCell id="1ylkWFcsWydQvVdOaWhc-342" value="" style="endArrow=none;html=1;rounded=0;exitX=0.145;exitY=0.145;exitDx=0;exitDy=0;exitPerimeter=0;entryX=0.855;entryY=0.8555;entryDx=0;entryDy=0;entryPerimeter=0;" parent="1" source="1ylkWFcsWydQvVdOaWhc-213" target="1ylkWFcsWydQvVdOaWhc-341" edge="1">
          <mxGeometry width="50" height="50" relative="1" as="geometry">
            <mxPoint x="1422.25" y="584.75" as="sourcePoint" />
            <mxPoint x="1304.75" y="448.77499999999986" as="targetPoint" />
          </mxGeometry>
        </mxCell>
        <mxCell id="1ylkWFcsWydQvVdOaWhc-343" value="e0/1" style="text;html=1;strokeColor=none;fillColor=none;align=center;verticalAlign=middle;whiteSpace=wrap;rounded=0;" parent="1" vertex="1">
          <mxGeometry x="1236" y="460" width="30" height="20" as="geometry" />
        </mxCell>
        <mxCell id="1ylkWFcsWydQvVdOaWhc-344" value="" style="endArrow=none;html=1;rounded=0;exitX=0.75;exitY=0;exitDx=0;exitDy=0;entryX=0.145;entryY=0.855;entryDx=0;entryDy=0;entryPerimeter=0;startArrow=none;" parent="1" source="1ylkWFcsWydQvVdOaWhc-339" target="1ylkWFcsWydQvVdOaWhc-343" edge="1">
          <mxGeometry width="50" height="50" relative="1" as="geometry">
            <mxPoint x="1165.75" y="547" as="sourcePoint" />
            <mxPoint x="1269.25" y="448.75" as="targetPoint" />
          </mxGeometry>
        </mxCell>
        <mxCell id="1ylkWFcsWydQvVdOaWhc-345" value="e0/0" style="text;html=1;strokeColor=none;fillColor=none;align=center;verticalAlign=middle;whiteSpace=wrap;rounded=0;" parent="1" vertex="1">
          <mxGeometry x="1306" y="458" width="30" height="20" as="geometry" />
        </mxCell>
        <mxCell id="1ylkWFcsWydQvVdOaWhc-346" value="" style="endArrow=none;html=1;rounded=0;exitX=0.25;exitY=0;exitDx=0;exitDy=0;entryX=0.75;entryY=1;entryDx=0;entryDy=0;startArrow=none;" parent="1" source="1ylkWFcsWydQvVdOaWhc-341" target="1ylkWFcsWydQvVdOaWhc-345" edge="1">
          <mxGeometry width="50" height="50" relative="1" as="geometry">
            <mxPoint x="1394.5" y="553" as="sourcePoint" />
            <mxPoint x="1304.75" y="448.77499999999986" as="targetPoint" />
          </mxGeometry>
        </mxCell>
        <mxCell id="1ylkWFcsWydQvVdOaWhc-347" value="" style="endArrow=none;html=1;rounded=0;entryX=0.855;entryY=0.8555;entryDx=0;entryDy=0;entryPerimeter=0;exitX=0.164;exitY=0.082;exitDx=0;exitDy=0;exitPerimeter=0;startArrow=none;" parent="1" source="1ylkWFcsWydQvVdOaWhc-351" target="1ylkWFcsWydQvVdOaWhc-3" edge="1">
          <mxGeometry width="50" height="50" relative="1" as="geometry">
            <mxPoint x="1120" y="450" as="sourcePoint" />
            <mxPoint x="1170" y="400" as="targetPoint" />
          </mxGeometry>
        </mxCell>
        <mxCell id="1ylkWFcsWydQvVdOaWhc-348" value="" style="endArrow=none;html=1;rounded=0;entryX=0.145;entryY=0.855;entryDx=0;entryDy=0;entryPerimeter=0;exitX=0.8555;exitY=0.145;exitDx=0;exitDy=0;exitPerimeter=0;startArrow=none;" parent="1" source="1ylkWFcsWydQvVdOaWhc-353" target="1ylkWFcsWydQvVdOaWhc-4" edge="1">
          <mxGeometry width="50" height="50" relative="1" as="geometry">
            <mxPoint x="1367.45" y="420.9999999999999" as="sourcePoint" />
            <mxPoint x="1257" y="288.67499999999995" as="targetPoint" />
          </mxGeometry>
        </mxCell>
        <mxCell id="1ylkWFcsWydQvVdOaWhc-349" value="172.16.0.24/30" style="text;html=1;strokeColor=none;fillColor=none;align=center;verticalAlign=middle;whiteSpace=wrap;rounded=0;fontFamily=Lucida Console;" parent="1" vertex="1">
          <mxGeometry x="1286" y="323" width="60" height="30" as="geometry" />
        </mxCell>
        <mxCell id="1ylkWFcsWydQvVdOaWhc-350" value="172.16.0.20/30" style="text;html=1;strokeColor=none;fillColor=none;align=center;verticalAlign=middle;whiteSpace=wrap;rounded=0;fontFamily=Lucida Console;" parent="1" vertex="1">
          <mxGeometry x="1114" y="322" width="60" height="30" as="geometry" />
        </mxCell>
        <mxCell id="1ylkWFcsWydQvVdOaWhc-351" value="e0/3" style="text;html=1;strokeColor=none;fillColor=none;align=left;verticalAlign=middle;whiteSpace=wrap;rounded=0;" parent="1" vertex="1">
          <mxGeometry x="1160" y="282.5" width="30" height="30" as="geometry" />
        </mxCell>
        <mxCell id="1ylkWFcsWydQvVdOaWhc-352" value="" style="endArrow=none;html=1;rounded=0;entryX=0.855;entryY=0.8555;entryDx=0;entryDy=0;entryPerimeter=0;exitX=0.164;exitY=0.082;exitDx=0;exitDy=0;exitPerimeter=0;startArrow=none;" parent="1" source="1ylkWFcsWydQvVdOaWhc-357" target="1ylkWFcsWydQvVdOaWhc-351" edge="1">
          <mxGeometry width="50" height="50" relative="1" as="geometry">
            <mxPoint x="1270.2" y="410.0999999999999" as="sourcePoint" />
            <mxPoint x="1159.75" y="277.775" as="targetPoint" />
          </mxGeometry>
        </mxCell>
        <mxCell id="1ylkWFcsWydQvVdOaWhc-353" value="e0/3" style="text;html=1;strokeColor=none;fillColor=none;align=left;verticalAlign=middle;whiteSpace=wrap;rounded=0;" parent="1" vertex="1">
          <mxGeometry x="1389" y="283.5" width="30" height="30" as="geometry" />
        </mxCell>
        <mxCell id="1ylkWFcsWydQvVdOaWhc-354" value="" style="endArrow=none;html=1;rounded=0;entryX=0.145;entryY=0.855;entryDx=0;entryDy=0;entryPerimeter=0;exitX=0.8555;exitY=0.145;exitDx=0;exitDy=0;exitPerimeter=0;startArrow=none;" parent="1" source="1ylkWFcsWydQvVdOaWhc-355" target="1ylkWFcsWydQvVdOaWhc-353" edge="1">
          <mxGeometry width="50" height="50" relative="1" as="geometry">
            <mxPoint x="1304.775" y="413.25" as="sourcePoint" />
            <mxPoint x="1422.25" y="277.75" as="targetPoint" />
          </mxGeometry>
        </mxCell>
        <mxCell id="1ylkWFcsWydQvVdOaWhc-355" value="e0/3" style="text;html=1;strokeColor=none;fillColor=none;align=left;verticalAlign=middle;whiteSpace=wrap;rounded=0;" parent="1" vertex="1">
          <mxGeometry x="1311" y="374.5" width="30" height="30" as="geometry" />
        </mxCell>
        <mxCell id="1ylkWFcsWydQvVdOaWhc-356" value="" style="endArrow=none;html=1;rounded=0;entryX=0.145;entryY=0.855;entryDx=0;entryDy=0;entryPerimeter=0;exitX=0.8555;exitY=0.145;exitDx=0;exitDy=0;exitPerimeter=0;" parent="1" source="1ylkWFcsWydQvVdOaWhc-333" target="1ylkWFcsWydQvVdOaWhc-355" edge="1">
          <mxGeometry width="50" height="50" relative="1" as="geometry">
            <mxPoint x="1304.775" y="413.25" as="sourcePoint" />
            <mxPoint x="1393.35" y="309.15" as="targetPoint" />
          </mxGeometry>
        </mxCell>
        <mxCell id="1ylkWFcsWydQvVdOaWhc-357" value="e0/2" style="text;html=1;strokeColor=none;fillColor=none;align=left;verticalAlign=middle;whiteSpace=wrap;rounded=0;" parent="1" vertex="1">
          <mxGeometry x="1239" y="378" width="30" height="30" as="geometry" />
        </mxCell>
        <mxCell id="1ylkWFcsWydQvVdOaWhc-358" value="" style="endArrow=none;html=1;rounded=0;entryX=0.855;entryY=0.8555;entryDx=0;entryDy=0;entryPerimeter=0;exitX=0.164;exitY=0.082;exitDx=0;exitDy=0;exitPerimeter=0;" parent="1" source="1ylkWFcsWydQvVdOaWhc-333" target="1ylkWFcsWydQvVdOaWhc-357" edge="1">
          <mxGeometry width="50" height="50" relative="1" as="geometry">
            <mxPoint x="1270.2" y="410.0999999999999" as="sourcePoint" />
            <mxPoint x="1185.65" y="308.16499999999996" as="targetPoint" />
          </mxGeometry>
        </mxCell>
        <mxCell id="1ylkWFcsWydQvVdOaWhc-359" value="10.3.240.0/30" style="text;html=1;strokeColor=none;fillColor=none;align=center;verticalAlign=middle;whiteSpace=wrap;rounded=0;fontFamily=Lucida Console;rotation=45;" parent="1" vertex="1">
          <mxGeometry x="1320" y="460" width="60" height="30" as="geometry" />
        </mxCell>
        <mxCell id="1ylkWFcsWydQvVdOaWhc-360" value="10.3.240.4/30" style="text;html=1;strokeColor=none;fillColor=none;align=center;verticalAlign=middle;whiteSpace=wrap;rounded=0;fontFamily=Lucida Console;" parent="1" vertex="1">
          <mxGeometry x="1130" y="482" width="60" height="30" as="geometry" />
        </mxCell>
        <mxCell id="1ylkWFcsWydQvVdOaWhc-361" value="10.3.240.12/30" style="text;html=1;strokeColor=none;fillColor=none;align=center;verticalAlign=middle;whiteSpace=wrap;rounded=0;fontFamily=Lucida Console;" parent="1" vertex="1">
          <mxGeometry x="1441" y="446" width="60" height="30" as="geometry" />
        </mxCell>
        <mxCell id="1ylkWFcsWydQvVdOaWhc-362" value="10.3.240.8/30" style="text;html=1;strokeColor=none;fillColor=none;align=center;verticalAlign=middle;whiteSpace=wrap;rounded=0;fontFamily=Lucida Console;" parent="1" vertex="1">
          <mxGeometry x="1566" y="512" width="60" height="30" as="geometry" />
        </mxCell>
        <mxCell id="1ylkWFcsWydQvVdOaWhc-363" value="&lt;b&gt;.2&lt;/b&gt;" style="text;html=1;strokeColor=none;fillColor=none;align=center;verticalAlign=middle;whiteSpace=wrap;rounded=0;fontFamily=Lucida Console;" parent="1" vertex="1">
          <mxGeometry x="1415" y="550.25" width="23" height="30" as="geometry" />
        </mxCell>
        <mxCell id="1ylkWFcsWydQvVdOaWhc-364" value="&lt;b&gt;.1&lt;/b&gt;" style="text;html=1;strokeColor=none;fillColor=none;align=center;verticalAlign=middle;whiteSpace=wrap;rounded=0;fontFamily=Lucida Console;" parent="1" vertex="1">
          <mxGeometry x="1306" y="470" width="23" height="30" as="geometry" />
        </mxCell>
        <mxCell id="1ylkWFcsWydQvVdOaWhc-365" value="&lt;b&gt;.5&lt;/b&gt;" style="text;html=1;strokeColor=none;fillColor=none;align=center;verticalAlign=middle;whiteSpace=wrap;rounded=0;fontFamily=Lucida Console;" parent="1" vertex="1">
          <mxGeometry x="1236" y="472" width="23" height="30" as="geometry" />
        </mxCell>
        <mxCell id="1ylkWFcsWydQvVdOaWhc-366" value="&lt;b&gt;.6&lt;/b&gt;" style="text;html=1;strokeColor=none;fillColor=none;align=center;verticalAlign=middle;whiteSpace=wrap;rounded=0;fontFamily=Lucida Console;" parent="1" vertex="1">
          <mxGeometry x="1145" y="525" width="23" height="30" as="geometry" />
        </mxCell>
        <mxCell id="1ylkWFcsWydQvVdOaWhc-367" value="&lt;b&gt;.21&lt;/b&gt;&lt;span style=&quot;color: rgba(0, 0, 0, 0); font-family: monospace; font-size: 0px; text-align: start;&quot;&gt;%3CmxGraphModel%3E%3Croot%3E%3CmxCell%20id%3D%220%22%2F%3E%3CmxCell%20id%3D%221%22%20parent%3D%220%22%2F%3E%3CmxCell%20id%3D%222%22%20value%3D%22%26lt%3Bb%26gt%3B.9%26lt%3B%2Fb%26gt%3B%22%20style%3D%22text%3Bhtml%3D1%3BstrokeColor%3Dnone%3BfillColor%3Dnone%3Balign%3Dcenter%3BverticalAlign%3Dmiddle%3BwhiteSpace%3Dwrap%3Brounded%3D0%3BfontFamily%3DLucida%20Console%3B%22%20vertex%3D%221%22%20parent%3D%221%22%3E%3CmxGeometry%20x%3D%221207%22%20y%3D%22239.5%22%20width%3D%2223%22%20height%3D%2230%22%20as%3D%22geometry%22%2F%3E%3C%2FmxCell%3E%3C%2Froot%3E%3C%2FmxGraphModel%3E&lt;/span&gt;" style="text;html=1;strokeColor=none;fillColor=none;align=center;verticalAlign=middle;whiteSpace=wrap;rounded=0;fontFamily=Lucida Console;" parent="1" vertex="1">
          <mxGeometry x="1184" y="290" width="23" height="30" as="geometry" />
        </mxCell>
        <mxCell id="1ylkWFcsWydQvVdOaWhc-368" value="&lt;b&gt;.22&lt;/b&gt;" style="text;html=1;strokeColor=none;fillColor=none;align=center;verticalAlign=middle;whiteSpace=wrap;rounded=0;fontFamily=Lucida Console;" parent="1" vertex="1">
          <mxGeometry x="1243" y="360" width="23" height="30" as="geometry" />
        </mxCell>
        <mxCell id="1ylkWFcsWydQvVdOaWhc-369" value="&lt;b&gt;.25&lt;/b&gt;" style="text;html=1;strokeColor=none;fillColor=none;align=center;verticalAlign=middle;whiteSpace=wrap;rounded=0;fontFamily=Lucida Console;" parent="1" vertex="1">
          <mxGeometry x="1395" y="300" width="23" height="30" as="geometry" />
        </mxCell>
        <mxCell id="1ylkWFcsWydQvVdOaWhc-370" value="&lt;b&gt;.26&lt;/b&gt;" style="text;html=1;strokeColor=none;fillColor=none;align=center;verticalAlign=middle;whiteSpace=wrap;rounded=0;fontFamily=Lucida Console;" parent="1" vertex="1">
          <mxGeometry x="1339" y="360" width="23" height="30" as="geometry" />
        </mxCell>
        <mxCell id="1ylkWFcsWydQvVdOaWhc-372" value="ACCESS" style="text;html=1;strokeColor=none;fillColor=none;align=center;verticalAlign=middle;whiteSpace=wrap;rounded=0;" parent="1" vertex="1">
          <mxGeometry x="1455" y="818" width="42" height="20" as="geometry" />
        </mxCell>
        <mxCell id="1ylkWFcsWydQvVdOaWhc-373" value="" style="sketch=0;points=[[0.5,0,0],[1,0.5,0],[0.5,1,0],[0,0.5,0],[0.145,0.145,0],[0.8555,0.145,0],[0.855,0.8555,0],[0.145,0.855,0]];verticalLabelPosition=bottom;html=1;verticalAlign=top;aspect=fixed;align=center;pointerEvents=1;shape=mxgraph.cisco19.rect;prIcon=router;fillColor=#FAFAFA;strokeColor=#005073;" parent="1" vertex="1">
          <mxGeometry x="1807" y="235.25" width="50" height="50" as="geometry" />
        </mxCell>
        <mxCell id="1ylkWFcsWydQvVdOaWhc-375" value="" style="endArrow=none;html=1;rounded=0;exitX=1;exitY=0.5;exitDx=0;exitDy=0;exitPerimeter=0;entryX=0;entryY=0.5;entryDx=0;entryDy=0;entryPerimeter=0;startArrow=none;" parent="1" source="1ylkWFcsWydQvVdOaWhc-417" target="1ylkWFcsWydQvVdOaWhc-373" edge="1">
          <mxGeometry width="50" height="50" relative="1" as="geometry">
            <mxPoint x="1430" y="260" as="sourcePoint" />
            <mxPoint x="1795" y="270" as="targetPoint" />
          </mxGeometry>
        </mxCell>
        <mxCell id="1ylkWFcsWydQvVdOaWhc-376" value="" style="sketch=0;points=[[0.015,0.015,0],[0.985,0.015,0],[0.985,0.985,0],[0.015,0.985,0],[0.25,0,0],[0.5,0,0],[0.75,0,0],[1,0.25,0],[1,0.5,0],[1,0.75,0],[0.75,1,0],[0.5,1,0],[0.25,1,0],[0,0.75,0],[0,0.5,0],[0,0.25,0]];verticalLabelPosition=bottom;html=1;verticalAlign=top;aspect=fixed;align=center;pointerEvents=1;shape=mxgraph.cisco19.rect;prIcon=l2_switch;fillColor=#FAFAFA;strokeColor=#005073;" parent="1" vertex="1">
          <mxGeometry x="1807" y="406" width="50" height="50" as="geometry" />
        </mxCell>
        <mxCell id="1ylkWFcsWydQvVdOaWhc-377" value="" style="endArrow=none;html=1;rounded=0;entryX=0.5;entryY=0;entryDx=0;entryDy=0;entryPerimeter=0;exitX=0.5;exitY=1;exitDx=0;exitDy=0;exitPerimeter=0;" parent="1" source="1ylkWFcsWydQvVdOaWhc-373" target="1ylkWFcsWydQvVdOaWhc-376" edge="1">
          <mxGeometry width="50" height="50" relative="1" as="geometry">
            <mxPoint x="1831" y="290" as="sourcePoint" />
            <mxPoint x="1695" y="450" as="targetPoint" />
          </mxGeometry>
        </mxCell>
        <mxCell id="1ylkWFcsWydQvVdOaWhc-384" value="" style="points=[[0.03,0.03,0],[0.5,0,0],[0.97,0.03,0],[1,0.4,0],[0.97,0.745,0],[0.5,1,0],[0.03,0.745,0],[0,0.4,0]];verticalLabelPosition=bottom;sketch=0;html=1;verticalAlign=top;aspect=fixed;align=center;pointerEvents=1;shape=mxgraph.cisco19.workstation;fillColor=#005073;strokeColor=none;" parent="1" vertex="1">
          <mxGeometry x="1807" y="576" width="50" height="40" as="geometry" />
        </mxCell>
        <mxCell id="1ylkWFcsWydQvVdOaWhc-385" value="" style="endArrow=none;html=1;rounded=0;exitX=0.5;exitY=0;exitDx=0;exitDy=0;exitPerimeter=0;entryX=0.5;entryY=1;entryDx=0;entryDy=0;entryPerimeter=0;startArrow=none;" parent="1" source="1ylkWFcsWydQvVdOaWhc-386" edge="1">
          <mxGeometry width="50" height="50" relative="1" as="geometry">
            <mxPoint x="1987" y="495" as="sourcePoint" />
            <mxPoint x="1832" y="455" as="targetPoint" />
          </mxGeometry>
        </mxCell>
        <mxCell id="1ylkWFcsWydQvVdOaWhc-386" value="e0/1" style="text;html=1;strokeColor=none;fillColor=none;align=center;verticalAlign=middle;whiteSpace=wrap;rounded=0;" parent="1" vertex="1">
          <mxGeometry x="1817" y="462" width="30" height="20" as="geometry" />
        </mxCell>
        <mxCell id="1ylkWFcsWydQvVdOaWhc-387" value="" style="endArrow=none;html=1;rounded=0;exitX=0.5;exitY=0;exitDx=0;exitDy=0;exitPerimeter=0;entryX=0.5;entryY=1;entryDx=0;entryDy=0;entryPerimeter=0;startArrow=none;" parent="1" source="1ylkWFcsWydQvVdOaWhc-388" target="1ylkWFcsWydQvVdOaWhc-386" edge="1">
          <mxGeometry width="50" height="50" relative="1" as="geometry">
            <mxPoint x="1832" y="576" as="sourcePoint" />
            <mxPoint x="1832" y="455" as="targetPoint" />
          </mxGeometry>
        </mxCell>
        <mxCell id="1ylkWFcsWydQvVdOaWhc-388" value="eth0" style="text;html=1;strokeColor=none;fillColor=none;align=center;verticalAlign=middle;whiteSpace=wrap;rounded=0;" parent="1" vertex="1">
          <mxGeometry x="1817" y="548" width="30" height="20" as="geometry" />
        </mxCell>
        <mxCell id="1ylkWFcsWydQvVdOaWhc-389" value="" style="endArrow=none;html=1;rounded=0;exitX=0.5;exitY=0;exitDx=0;exitDy=0;exitPerimeter=0;entryX=0.5;entryY=1;entryDx=0;entryDy=0;entryPerimeter=0;" parent="1" target="1ylkWFcsWydQvVdOaWhc-388" edge="1">
          <mxGeometry width="50" height="50" relative="1" as="geometry">
            <mxPoint x="1832" y="576" as="sourcePoint" />
            <mxPoint x="1832" y="485" as="targetPoint" />
          </mxGeometry>
        </mxCell>
        <mxCell id="1ylkWFcsWydQvVdOaWhc-390" value="" style="points=[[0.03,0.03,0],[0.5,0,0],[0.97,0.03,0],[1,0.4,0],[0.97,0.745,0],[0.5,1,0],[0.03,0.745,0],[0,0.4,0]];verticalLabelPosition=bottom;sketch=0;html=1;verticalAlign=top;aspect=fixed;align=center;pointerEvents=1;shape=mxgraph.cisco19.workstation;fillColor=#005073;strokeColor=none;" parent="1" vertex="1">
          <mxGeometry x="2108" y="577" width="50" height="40" as="geometry" />
        </mxCell>
        <mxCell id="1ylkWFcsWydQvVdOaWhc-396" value="&lt;div style=&quot;text-align: right;&quot;&gt;&lt;span style=&quot;font-family: &amp;quot;Lucida Console&amp;quot;; background-color: initial;&quot;&gt;2ccc:0:f000::/64&lt;/span&gt;&lt;/div&gt;&lt;font face=&quot;Lucida Console&quot;&gt;&lt;div style=&quot;text-align: right;&quot;&gt;&lt;span style=&quot;background-color: initial;&quot;&gt;VLAN 100&lt;/span&gt;&lt;/div&gt;&lt;/font&gt;" style="text;html=1;strokeColor=none;fillColor=none;align=center;verticalAlign=middle;whiteSpace=wrap;rounded=0;" parent="1" vertex="1">
          <mxGeometry x="1742" y="500" width="60" height="30" as="geometry" />
        </mxCell>
        <mxCell id="1ylkWFcsWydQvVdOaWhc-398" value="&lt;b&gt;.a&lt;/b&gt;" style="text;html=1;strokeColor=none;fillColor=none;align=center;verticalAlign=middle;whiteSpace=wrap;rounded=0;fontFamily=Lucida Console;" parent="1" vertex="1">
          <mxGeometry x="1847" y="549" width="23" height="30" as="geometry" />
        </mxCell>
        <mxCell id="1ylkWFcsWydQvVdOaWhc-399" value="&lt;b&gt;.a&lt;/b&gt;" style="text;html=1;strokeColor=none;fillColor=none;align=center;verticalAlign=middle;whiteSpace=wrap;rounded=0;fontFamily=Lucida Console;" parent="1" vertex="1">
          <mxGeometry x="2121.5" y="550.5" width="23" height="30" as="geometry" />
        </mxCell>
        <mxCell id="1ylkWFcsWydQvVdOaWhc-402" value="" style="endArrow=none;html=1;rounded=0;entryX=0.5;entryY=0;entryDx=0;entryDy=0;entryPerimeter=0;exitX=1;exitY=0.75;exitDx=0;exitDy=0;startArrow=none;" parent="1" source="1ylkWFcsWydQvVdOaWhc-394" target="1ylkWFcsWydQvVdOaWhc-390" edge="1">
          <mxGeometry width="50" height="50" relative="1" as="geometry">
            <mxPoint x="1855" y="410" as="sourcePoint" />
            <mxPoint x="1905" y="360" as="targetPoint" />
          </mxGeometry>
        </mxCell>
        <mxCell id="1ylkWFcsWydQvVdOaWhc-394" value="eth0" style="text;html=1;strokeColor=none;fillColor=none;align=center;verticalAlign=middle;whiteSpace=wrap;rounded=0;" parent="1" vertex="1">
          <mxGeometry x="2085" y="554" width="30" height="20" as="geometry" />
        </mxCell>
        <mxCell id="1ylkWFcsWydQvVdOaWhc-404" value="" style="endArrow=none;html=1;rounded=0;entryX=0;entryY=0;entryDx=0;entryDy=0;exitX=0.985;exitY=0.985;exitDx=0;exitDy=0;exitPerimeter=0;startArrow=none;" parent="1" source="1ylkWFcsWydQvVdOaWhc-406" target="1ylkWFcsWydQvVdOaWhc-394" edge="1">
          <mxGeometry width="50" height="50" relative="1" as="geometry">
            <mxPoint x="1856.2500000000005" y="455.25" as="sourcePoint" />
            <mxPoint x="2133" y="576.9999999999998" as="targetPoint" />
          </mxGeometry>
        </mxCell>
        <mxCell id="1ylkWFcsWydQvVdOaWhc-406" value="e0/1" style="text;html=1;strokeColor=none;fillColor=none;align=center;verticalAlign=middle;whiteSpace=wrap;rounded=0;" parent="1" vertex="1">
          <mxGeometry x="1870" y="456" width="30" height="20" as="geometry" />
        </mxCell>
        <mxCell id="1ylkWFcsWydQvVdOaWhc-407" value="" style="endArrow=none;html=1;rounded=0;entryX=0;entryY=0.25;entryDx=0;entryDy=0;exitX=0.985;exitY=0.985;exitDx=0;exitDy=0;exitPerimeter=0;" parent="1" source="1ylkWFcsWydQvVdOaWhc-376" target="1ylkWFcsWydQvVdOaWhc-406" edge="1">
          <mxGeometry width="50" height="50" relative="1" as="geometry">
            <mxPoint x="1856.25" y="455.25" as="sourcePoint" />
            <mxPoint x="2085" y="554" as="targetPoint" />
          </mxGeometry>
        </mxCell>
        <mxCell id="1ylkWFcsWydQvVdOaWhc-408" value="&lt;div style=&quot;text-align: left;&quot;&gt;&lt;span style=&quot;font-family: &amp;quot;Lucida Console&amp;quot;; background-color: initial;&quot;&gt;2ccc:0:f000:1::/64&lt;/span&gt;&lt;/div&gt;&lt;font face=&quot;Lucida Console&quot;&gt;&lt;div style=&quot;text-align: left;&quot;&gt;&lt;span style=&quot;background-color: initial;&quot;&gt;VLAN 110&lt;/span&gt;&lt;/div&gt;&lt;/font&gt;" style="text;html=1;strokeColor=none;fillColor=none;align=center;verticalAlign=middle;whiteSpace=wrap;rounded=0;" parent="1" vertex="1">
          <mxGeometry x="2056" y="500" width="60" height="30" as="geometry" />
        </mxCell>
        <mxCell id="1ylkWFcsWydQvVdOaWhc-409" value="&lt;font style=&quot;font-size: 10px;&quot; face=&quot;Lucida Console&quot;&gt;SVI: VLAN 10:&amp;nbsp;2ccc:0:f000:fffe::29&lt;/font&gt;" style="text;html=1;strokeColor=none;fillColor=none;align=center;verticalAlign=middle;whiteSpace=wrap;rounded=0;" parent="1" vertex="1">
          <mxGeometry x="1857" y="425.25" width="223" height="30" as="geometry" />
        </mxCell>
        <mxCell id="1ylkWFcsWydQvVdOaWhc-410" value="&lt;b&gt;SW29&lt;/b&gt;" style="text;html=1;strokeColor=none;fillColor=none;align=left;verticalAlign=middle;whiteSpace=wrap;rounded=0;" parent="1" vertex="1">
          <mxGeometry x="1857" y="405.25" width="51" height="30" as="geometry" />
        </mxCell>
        <mxCell id="1ylkWFcsWydQvVdOaWhc-411" value="&lt;b&gt;R28&lt;/b&gt;" style="text;html=1;strokeColor=none;fillColor=none;align=center;verticalAlign=middle;whiteSpace=wrap;rounded=0;" parent="1" vertex="1">
          <mxGeometry x="1857" y="239" width="30" height="30" as="geometry" />
        </mxCell>
        <mxCell id="1ylkWFcsWydQvVdOaWhc-412" value="&lt;font style=&quot;font-size: 10px;&quot;&gt;lo:2ccc:0:f000:ffff::28&lt;/font&gt;" style="text;html=1;strokeColor=none;fillColor=none;align=center;verticalAlign=middle;whiteSpace=wrap;rounded=0;fontFamily=Lucida Console;" parent="1" vertex="1">
          <mxGeometry x="1871" y="255" width="119" height="30" as="geometry" />
        </mxCell>
        <mxCell id="1ylkWFcsWydQvVdOaWhc-413" value="&lt;font style=&quot;font-size: 10px;&quot;&gt;VLAN 10: 2ccc:0:f000:fffe::1&lt;br&gt;VLAN 100: 2ccc:0:f000::1&lt;br&gt;VLAN 110: 2ccc:0:f000:1::1&lt;/font&gt;" style="text;html=1;strokeColor=none;fillColor=none;align=left;verticalAlign=middle;whiteSpace=wrap;rounded=0;fontFamily=Lucida Console;" parent="1" vertex="1">
          <mxGeometry x="1859" y="282" width="221" height="30" as="geometry" />
        </mxCell>
        <mxCell id="1ylkWFcsWydQvVdOaWhc-414" value="" style="endArrow=none;html=1;rounded=0;exitX=1;exitY=0.75;exitDx=0;exitDy=0;entryX=0.145;entryY=0.145;entryDx=0;entryDy=0;entryPerimeter=0;startArrow=none;" parent="1" source="1ylkWFcsWydQvVdOaWhc-421" target="1ylkWFcsWydQvVdOaWhc-373" edge="1">
          <mxGeometry width="50" height="50" relative="1" as="geometry">
            <mxPoint x="1655" y="330" as="sourcePoint" />
            <mxPoint x="1705" y="280" as="targetPoint" />
          </mxGeometry>
        </mxCell>
        <mxCell id="1ylkWFcsWydQvVdOaWhc-415" value="e0/1" style="text;html=1;strokeColor=none;fillColor=none;align=center;verticalAlign=middle;whiteSpace=wrap;rounded=0;" parent="1" vertex="1">
          <mxGeometry x="1473.5" y="250" width="30" height="20" as="geometry" />
        </mxCell>
        <mxCell id="1ylkWFcsWydQvVdOaWhc-416" value="" style="endArrow=none;html=1;rounded=0;exitX=1;exitY=0.5;exitDx=0;exitDy=0;exitPerimeter=0;entryX=0;entryY=0.5;entryDx=0;entryDy=0;entryPerimeter=0;" parent="1" source="1ylkWFcsWydQvVdOaWhc-4" target="1ylkWFcsWydQvVdOaWhc-415" edge="1">
          <mxGeometry width="50" height="50" relative="1" as="geometry">
            <mxPoint x="1465" y="260" as="sourcePoint" />
            <mxPoint x="1842" y="260.25" as="targetPoint" />
          </mxGeometry>
        </mxCell>
        <mxCell id="1ylkWFcsWydQvVdOaWhc-417" value="e0/0&lt;span style=&quot;color: rgba(0, 0, 0, 0); font-family: monospace; font-size: 0px; text-align: start;&quot;&gt;%3CmxGraphModel%3E%3Croot%3E%3CmxCell%20id%3D%220%22%2F%3E%3CmxCell%20id%3D%221%22%20parent%3D%220%22%2F%3E%3CmxCell%20id%3D%222%22%20value%3D%22e0%2F2%22%20style%3D%22text%3Bhtml%3D1%3BstrokeColor%3Dnone%3BfillColor%3Dnone%3Balign%3Dcenter%3BverticalAlign%3Dmiddle%3BwhiteSpace%3Dwrap%3Brounded%3D0%3B%22%20vertex%3D%221%22%20parent%3D%221%22%3E%3CmxGeometry%20x%3D%221426%22%20y%3D%22207%22%20width%3D%2230%22%20height%3D%2220%22%20as%3D%22geometry%22%2F%3E%3C%2FmxCell%3E%3C%2Froot%3E%3C%2FmxGraphModel%3E&lt;/span&gt;" style="text;html=1;strokeColor=none;fillColor=none;align=center;verticalAlign=middle;whiteSpace=wrap;rounded=0;" parent="1" vertex="1">
          <mxGeometry x="1765" y="250" width="30" height="20" as="geometry" />
        </mxCell>
        <mxCell id="1ylkWFcsWydQvVdOaWhc-418" value="" style="endArrow=none;html=1;rounded=0;exitX=1;exitY=0.5;exitDx=0;exitDy=0;exitPerimeter=0;entryX=0;entryY=0.5;entryDx=0;entryDy=0;entryPerimeter=0;startArrow=none;" parent="1" source="1ylkWFcsWydQvVdOaWhc-415" target="1ylkWFcsWydQvVdOaWhc-417" edge="1">
          <mxGeometry width="50" height="50" relative="1" as="geometry">
            <mxPoint x="1503.5" y="260" as="sourcePoint" />
            <mxPoint x="1842" y="260.25" as="targetPoint" />
          </mxGeometry>
        </mxCell>
        <mxCell id="1ylkWFcsWydQvVdOaWhc-419" value="e0/3" style="text;html=1;strokeColor=none;fillColor=none;align=center;verticalAlign=middle;whiteSpace=wrap;rounded=0;" parent="1" vertex="1">
          <mxGeometry x="1467" y="105.5" width="30" height="20" as="geometry" />
        </mxCell>
        <mxCell id="1ylkWFcsWydQvVdOaWhc-420" value="" style="endArrow=none;html=1;rounded=0;exitX=0.855;exitY=0.8555;exitDx=0;exitDy=0;exitPerimeter=0;entryX=0;entryY=0.25;entryDx=0;entryDy=0;" parent="1" source="1ylkWFcsWydQvVdOaWhc-2" target="1ylkWFcsWydQvVdOaWhc-419" edge="1">
          <mxGeometry width="50" height="50" relative="1" as="geometry">
            <mxPoint x="1457.75" y="106.77499999999998" as="sourcePoint" />
            <mxPoint x="1849.25" y="242.5" as="targetPoint" />
          </mxGeometry>
        </mxCell>
        <mxCell id="1ylkWFcsWydQvVdOaWhc-421" value="e0/1&lt;span style=&quot;color: rgba(0, 0, 0, 0); font-family: monospace; font-size: 0px; text-align: start;&quot;&gt;%3CmxGraphModel%3E%3Croot%3E%3CmxCell%20id%3D%220%22%2F%3E%3CmxCell%20id%3D%221%22%20parent%3D%220%22%2F%3E%3CmxCell%20id%3D%222%22%20value%3D%22e0%2F2%22%20style%3D%22text%3Bhtml%3D1%3BstrokeColor%3Dnone%3BfillColor%3Dnone%3Balign%3Dcenter%3BverticalAlign%3Dmiddle%3BwhiteSpace%3Dwrap%3Brounded%3D0%3B%22%20vertex%3D%221%22%20parent%3D%221%22%3E%3CmxGeometry%20x%3D%221426%22%20y%3D%22207%22%20width%3D%2230%22%20height%3D%2220%22%20as%3D%22geometry%22%2F%3E%3C%2FmxCell%3E%3C%2Froot%3E%3C%2FmxGraphModel%3E&lt;/span&gt;" style="text;html=1;strokeColor=none;fillColor=none;align=center;verticalAlign=middle;whiteSpace=wrap;rounded=0;" parent="1" vertex="1">
          <mxGeometry x="1765" y="220.5" width="30" height="20" as="geometry" />
        </mxCell>
        <mxCell id="1ylkWFcsWydQvVdOaWhc-422" value="" style="endArrow=none;html=1;rounded=0;exitX=1;exitY=0.75;exitDx=0;exitDy=0;entryX=0.145;entryY=0.145;entryDx=0;entryDy=0;entryPerimeter=0;startArrow=none;" parent="1" source="1ylkWFcsWydQvVdOaWhc-419" target="1ylkWFcsWydQvVdOaWhc-421" edge="1">
          <mxGeometry width="50" height="50" relative="1" as="geometry">
            <mxPoint x="1497.0000000000002" y="120.5" as="sourcePoint" />
            <mxPoint x="1849.25" y="242.5" as="targetPoint" />
          </mxGeometry>
        </mxCell>
        <mxCell id="1ylkWFcsWydQvVdOaWhc-423" value="" style="sketch=0;points=[[0.5,0,0],[1,0.5,0],[0.5,1,0],[0,0.5,0],[0.145,0.145,0],[0.8555,0.145,0],[0.855,0.8555,0],[0.145,0.855,0]];verticalLabelPosition=bottom;html=1;verticalAlign=top;aspect=fixed;align=center;pointerEvents=1;shape=mxgraph.cisco19.rect;prIcon=router;fillColor=#FAFAFA;strokeColor=#005073;" parent="1" vertex="1">
          <mxGeometry x="1807" y="64.25" width="50" height="50" as="geometry" />
        </mxCell>
        <mxCell id="1ylkWFcsWydQvVdOaWhc-425" value="" style="endArrow=none;html=1;rounded=0;exitX=1;exitY=0.5;exitDx=0;exitDy=0;exitPerimeter=0;entryX=0;entryY=0.5;entryDx=0;entryDy=0;entryPerimeter=0;startArrow=none;" parent="1" source="1ylkWFcsWydQvVdOaWhc-428" edge="1">
          <mxGeometry width="50" height="50" relative="1" as="geometry">
            <mxPoint x="1430" y="90" as="sourcePoint" />
            <mxPoint x="1807" y="90.24999999999989" as="targetPoint" />
          </mxGeometry>
        </mxCell>
        <mxCell id="1ylkWFcsWydQvVdOaWhc-426" value="e0/1" style="text;html=1;strokeColor=none;fillColor=none;align=center;verticalAlign=middle;whiteSpace=wrap;rounded=0;" parent="1" vertex="1">
          <mxGeometry x="1473.5" y="80" width="30" height="20" as="geometry" />
        </mxCell>
        <mxCell id="1ylkWFcsWydQvVdOaWhc-427" value="" style="endArrow=none;html=1;rounded=0;exitX=1;exitY=0.5;exitDx=0;exitDy=0;exitPerimeter=0;entryX=0;entryY=0.5;entryDx=0;entryDy=0;entryPerimeter=0;" parent="1" target="1ylkWFcsWydQvVdOaWhc-426" edge="1">
          <mxGeometry width="50" height="50" relative="1" as="geometry">
            <mxPoint x="1465" y="90" as="sourcePoint" />
            <mxPoint x="1842" y="90.25" as="targetPoint" />
          </mxGeometry>
        </mxCell>
        <mxCell id="1ylkWFcsWydQvVdOaWhc-428" value="e0/0&lt;span style=&quot;color: rgba(0, 0, 0, 0); font-family: monospace; font-size: 0px; text-align: start;&quot;&gt;%3CmxGraphModel%3E%3Croot%3E%3CmxCell%20id%3D%220%22%2F%3E%3CmxCell%20id%3D%221%22%20parent%3D%220%22%2F%3E%3CmxCell%20id%3D%222%22%20value%3D%22e0%2F2%22%20style%3D%22text%3Bhtml%3D1%3BstrokeColor%3Dnone%3BfillColor%3Dnone%3Balign%3Dcenter%3BverticalAlign%3Dmiddle%3BwhiteSpace%3Dwrap%3Brounded%3D0%3B%22%20vertex%3D%221%22%20parent%3D%221%22%3E%3CmxGeometry%20x%3D%221426%22%20y%3D%22207%22%20width%3D%2230%22%20height%3D%2220%22%20as%3D%22geometry%22%2F%3E%3C%2FmxCell%3E%3C%2Froot%3E%3C%2FmxGraphModel%3E&lt;/span&gt;" style="text;html=1;strokeColor=none;fillColor=none;align=center;verticalAlign=middle;whiteSpace=wrap;rounded=0;" parent="1" vertex="1">
          <mxGeometry x="1765" y="80" width="30" height="20" as="geometry" />
        </mxCell>
        <mxCell id="1ylkWFcsWydQvVdOaWhc-429" value="" style="endArrow=none;html=1;rounded=0;exitX=1;exitY=0.5;exitDx=0;exitDy=0;exitPerimeter=0;entryX=0;entryY=0.5;entryDx=0;entryDy=0;entryPerimeter=0;startArrow=none;" parent="1" source="1ylkWFcsWydQvVdOaWhc-426" target="1ylkWFcsWydQvVdOaWhc-428" edge="1">
          <mxGeometry width="50" height="50" relative="1" as="geometry">
            <mxPoint x="1503.5" y="90" as="sourcePoint" />
            <mxPoint x="1842" y="90.25" as="targetPoint" />
          </mxGeometry>
        </mxCell>
        <mxCell id="1ylkWFcsWydQvVdOaWhc-430" value="&lt;b&gt;R27&lt;/b&gt;" style="text;html=1;strokeColor=none;fillColor=none;align=center;verticalAlign=middle;whiteSpace=wrap;rounded=0;" parent="1" vertex="1">
          <mxGeometry x="1859" y="67" width="30" height="30" as="geometry" />
        </mxCell>
        <mxCell id="1ylkWFcsWydQvVdOaWhc-431" value="lo:10.1.255.27" style="text;html=1;strokeColor=none;fillColor=none;align=center;verticalAlign=middle;whiteSpace=wrap;rounded=0;fontFamily=Lucida Console;" parent="1" vertex="1">
          <mxGeometry x="1875" y="80" width="76" height="34" as="geometry" />
        </mxCell>
        <mxCell id="1ylkWFcsWydQvVdOaWhc-432" value="VLANs" style="text;html=1;strokeColor=none;fillColor=none;align=center;verticalAlign=middle;whiteSpace=wrap;rounded=0;fontFamily=Lucida Console;" parent="1" vertex="1">
          <mxGeometry x="1808.5" y="340" width="100" height="30" as="geometry" />
        </mxCell>
        <mxCell id="1ylkWFcsWydQvVdOaWhc-433" value="172.16.0.28/30" style="text;html=1;strokeColor=none;fillColor=none;align=center;verticalAlign=middle;whiteSpace=wrap;rounded=0;fontFamily=Lucida Console;" parent="1" vertex="1">
          <mxGeometry x="1622" y="63.5" width="60" height="30" as="geometry" />
        </mxCell>
        <mxCell id="1ylkWFcsWydQvVdOaWhc-434" value="172.16.0.32/30" style="text;html=1;strokeColor=none;fillColor=none;align=center;verticalAlign=middle;whiteSpace=wrap;rounded=0;fontFamily=Lucida Console;" parent="1" vertex="1">
          <mxGeometry x="1622" y="131" width="60" height="30" as="geometry" />
        </mxCell>
        <mxCell id="1ylkWFcsWydQvVdOaWhc-435" value="172.16.0.36/30" style="text;html=1;strokeColor=none;fillColor=none;align=center;verticalAlign=middle;whiteSpace=wrap;rounded=0;fontFamily=Lucida Console;" parent="1" vertex="1">
          <mxGeometry x="1622" y="236" width="60" height="30" as="geometry" />
        </mxCell>
        <mxCell id="1ylkWFcsWydQvVdOaWhc-436" value="&lt;b&gt;.29&lt;/b&gt;&lt;span style=&quot;color: rgba(0, 0, 0, 0); font-family: monospace; font-size: 0px; text-align: start;&quot;&gt;%3CmxGraphModel%3E%3Croot%3E%3CmxCell%20id%3D%220%22%2F%3E%3CmxCell%20id%3D%221%22%20parent%3D%220%22%2F%3E%3CmxCell%20id%3D%222%22%20value%3D%22%26lt%3Bb%26gt%3B.13%26lt%3B%2Fb%26gt%3B%22%20style%3D%22text%3Bhtml%3D1%3BstrokeColor%3Dnone%3BfillColor%3Dnone%3Balign%3Dcenter%3BverticalAlign%3Dmiddle%3BwhiteSpace%3Dwrap%3Brounded%3D0%3BfontFamily%3DLucida%20Console%3B%22%20vertex%3D%221%22%20parent%3D%221%22%3E%3CmxGeometry%20x%3D%221443%22%20y%3D%22134%22%20width%3D%2223%22%20height%3D%2230%22%20as%3D%22geometry%22%2F%3E%3C%2FmxCell%3E%3C%2Froot%3E%3C%2FmxGraphModel%3E&lt;/span&gt;" style="text;html=1;strokeColor=none;fillColor=none;align=center;verticalAlign=middle;whiteSpace=wrap;rounded=0;fontFamily=Lucida Console;" parent="1" vertex="1">
          <mxGeometry x="1507" y="63.5" width="23" height="30" as="geometry" />
        </mxCell>
        <mxCell id="1ylkWFcsWydQvVdOaWhc-437" value="&lt;b&gt;.30&lt;/b&gt;&lt;span style=&quot;color: rgba(0, 0, 0, 0); font-family: monospace; font-size: 0px; text-align: start;&quot;&gt;%3CmxGraphModel%3E%3Croot%3E%3CmxCell%20id%3D%220%22%2F%3E%3CmxCell%20id%3D%221%22%20parent%3D%220%22%2F%3E%3CmxCell%20id%3D%222%22%20value%3D%22%26lt%3Bb%26gt%3B.13%26lt%3B%2Fb%26gt%3B%22%20style%3D%22text%3Bhtml%3D1%3BstrokeColor%3Dnone%3BfillColor%3Dnone%3Balign%3Dcenter%3BverticalAlign%3Dmiddle%3BwhiteSpace%3Dwrap%3Brounded%3D0%3BfontFamily%3DLucida%20Console%3B%22%20vertex%3D%221%22%20parent%3D%221%22%3E%3CmxGeometry%20x%3D%221443%22%20y%3D%22134%22%20width%3D%2223%22%20height%3D%2230%22%20as%3D%22geometry%22%2F%3E%3C%2FmxCell%3E%3C%2Froot%3E%3C%2FmxGraphModel%3E&lt;/span&gt;" style="text;html=1;strokeColor=none;fillColor=none;align=center;verticalAlign=middle;whiteSpace=wrap;rounded=0;fontFamily=Lucida Console;" parent="1" vertex="1">
          <mxGeometry x="1741" y="64" width="23" height="30" as="geometry" />
        </mxCell>
        <mxCell id="1ylkWFcsWydQvVdOaWhc-438" value="&lt;b&gt;.33&lt;/b&gt;" style="text;html=1;strokeColor=none;fillColor=none;align=center;verticalAlign=middle;whiteSpace=wrap;rounded=0;fontFamily=Lucida Console;" parent="1" vertex="1">
          <mxGeometry x="1507" y="104" width="23" height="30" as="geometry" />
        </mxCell>
        <mxCell id="1ylkWFcsWydQvVdOaWhc-439" value="&lt;b&gt;.34&lt;/b&gt;" style="text;html=1;strokeColor=none;fillColor=none;align=center;verticalAlign=middle;whiteSpace=wrap;rounded=0;fontFamily=Lucida Console;" parent="1" vertex="1">
          <mxGeometry x="1741" y="188" width="23" height="30" as="geometry" />
        </mxCell>
        <mxCell id="1ylkWFcsWydQvVdOaWhc-440" value="&lt;b&gt;.37&lt;/b&gt;" style="text;html=1;strokeColor=none;fillColor=none;align=center;verticalAlign=middle;whiteSpace=wrap;rounded=0;fontFamily=Lucida Console;" parent="1" vertex="1">
          <mxGeometry x="1509" y="235" width="23" height="30" as="geometry" />
        </mxCell>
        <mxCell id="1ylkWFcsWydQvVdOaWhc-441" value="&lt;b&gt;.38&lt;/b&gt;" style="text;html=1;strokeColor=none;fillColor=none;align=center;verticalAlign=middle;whiteSpace=wrap;rounded=0;fontFamily=Lucida Console;" parent="1" vertex="1">
          <mxGeometry x="1735" y="236" width="23" height="30" as="geometry" />
        </mxCell>
        <mxCell id="1ylkWFcsWydQvVdOaWhc-442" value="" style="rounded=0;whiteSpace=wrap;html=1;strokeColor=#000000;fillColor=none;dashed=1;" parent="1" vertex="1">
          <mxGeometry x="1730" y="39.5" width="283" height="84.5" as="geometry" />
        </mxCell>
        <mxCell id="1ylkWFcsWydQvVdOaWhc-443" value="&lt;font style=&quot;font-size: 14px;&quot;&gt;&lt;b&gt;ЛАБЫТНАНГИ&lt;/b&gt;&lt;/font&gt;" style="text;html=1;strokeColor=none;fillColor=none;align=center;verticalAlign=middle;whiteSpace=wrap;rounded=0;dashed=1;" parent="1" vertex="1">
          <mxGeometry x="1922" y="44.5" width="60" height="30" as="geometry" />
        </mxCell>
        <mxCell id="1ylkWFcsWydQvVdOaWhc-445" value="&lt;span style=&quot;font-size: 14px;&quot;&gt;&lt;b&gt;ЧОКУРДАХ&lt;/b&gt;&lt;/span&gt;" style="text;html=1;strokeColor=none;fillColor=none;align=center;verticalAlign=middle;whiteSpace=wrap;rounded=0;dashed=1;" parent="1" vertex="1">
          <mxGeometry x="2111" y="188.5" width="60" height="30" as="geometry" />
        </mxCell>
        <mxCell id="1ylkWFcsWydQvVdOaWhc-447" value="CORE/DISTRIBUTION" style="text;html=1;strokeColor=none;fillColor=none;align=center;verticalAlign=middle;whiteSpace=wrap;rounded=0;" parent="1" vertex="1">
          <mxGeometry x="1415" y="660" width="42" height="20" as="geometry" />
        </mxCell>
        <mxCell id="1ylkWFcsWydQvVdOaWhc-450" value="&lt;font style=&quot;font-size: 14px;&quot;&gt;&lt;b&gt;ТРИАДА&lt;br&gt;AS 520&lt;br&gt;&lt;/b&gt;&lt;/font&gt;" style="text;html=1;strokeColor=none;fillColor=none;align=center;verticalAlign=middle;whiteSpace=wrap;rounded=0;dashed=1;" parent="1" vertex="1">
          <mxGeometry x="1259" y="43.5" width="60" height="30" as="geometry" />
        </mxCell>
        <mxCell id="1ylkWFcsWydQvVdOaWhc-453" value="&lt;span style=&quot;font-size: 14px;&quot;&gt;&lt;b&gt;КИТОРН&lt;br&gt;AS 101&lt;br&gt;&lt;/b&gt;&lt;/span&gt;" style="text;html=1;strokeColor=none;fillColor=none;align=center;verticalAlign=middle;whiteSpace=wrap;rounded=0;dashed=1;" parent="1" vertex="1">
          <mxGeometry x="441" y="43.5" width="60" height="30" as="geometry" />
        </mxCell>
        <mxCell id="1ylkWFcsWydQvVdOaWhc-456" value="&lt;span style=&quot;font-size: 14px;&quot;&gt;&lt;b&gt;ЛАМАС&lt;br&gt;AS 301&lt;br&gt;&lt;/b&gt;&lt;/span&gt;" style="text;html=1;strokeColor=none;fillColor=none;align=center;verticalAlign=middle;whiteSpace=wrap;rounded=0;dashed=1;" parent="1" vertex="1">
          <mxGeometry x="690" y="204" width="60" height="30" as="geometry" />
        </mxCell>
        <mxCell id="REEH5sua70is87sAmdiB-4" value="&lt;span style=&quot;font-size: 14px;&quot;&gt;&lt;b&gt;МОСКВА&lt;br&gt;AS 1001&lt;br&gt;&lt;/b&gt;&lt;/span&gt;" style="text;html=1;strokeColor=none;fillColor=none;align=center;verticalAlign=middle;whiteSpace=wrap;rounded=0;dashed=1;" parent="1" vertex="1">
          <mxGeometry x="859" y="360" width="60" height="30" as="geometry" />
        </mxCell>
        <mxCell id="REEH5sua70is87sAmdiB-6" value="&lt;span style=&quot;font-size: 14px;&quot;&gt;&lt;b&gt;САНКТ-ПЕТЕРБУРГ&lt;br&gt;AS 2042&lt;br&gt;&lt;/b&gt;&lt;/span&gt;" style="text;html=1;strokeColor=none;fillColor=none;align=center;verticalAlign=middle;whiteSpace=wrap;rounded=0;dashed=1;" parent="1" vertex="1">
          <mxGeometry x="1576" y="360" width="140" height="30" as="geometry" />
        </mxCell>
        <mxCell id="REEH5sua70is87sAmdiB-7" value="&lt;b&gt;VPC8&lt;/b&gt;" style="text;html=1;strokeColor=none;fillColor=none;align=center;verticalAlign=middle;whiteSpace=wrap;rounded=0;" parent="1" vertex="1">
          <mxGeometry x="1118.5" y="958" width="51" height="30" as="geometry" />
        </mxCell>
        <mxCell id="REEH5sua70is87sAmdiB-8" value="&lt;b&gt;VPC&lt;/b&gt;" style="text;html=1;strokeColor=none;fillColor=none;align=center;verticalAlign=middle;whiteSpace=wrap;rounded=0;" parent="1" vertex="1">
          <mxGeometry x="1419" y="957" width="51" height="30" as="geometry" />
        </mxCell>
        <mxCell id="REEH5sua70is87sAmdiB-9" value="&lt;b&gt;VPC30&lt;/b&gt;" style="text;html=1;strokeColor=none;fillColor=none;align=center;verticalAlign=middle;whiteSpace=wrap;rounded=0;" parent="1" vertex="1">
          <mxGeometry x="1807" y="612" width="51" height="30" as="geometry" />
        </mxCell>
        <mxCell id="REEH5sua70is87sAmdiB-10" value="&lt;b&gt;VPC31&lt;/b&gt;" style="text;html=1;strokeColor=none;fillColor=none;align=center;verticalAlign=middle;whiteSpace=wrap;rounded=0;" parent="1" vertex="1">
          <mxGeometry x="2107.5" y="612" width="51" height="30" as="geometry" />
        </mxCell>
        <mxCell id="REEH5sua70is87sAmdiB-11" value="lo:10.3.255.18" style="text;html=1;strokeColor=none;fillColor=none;align=left;verticalAlign=middle;whiteSpace=wrap;rounded=0;fontFamily=Lucida Console;" parent="1" vertex="1">
          <mxGeometry x="1156" y="426" width="80" height="30" as="geometry" />
        </mxCell>
        <mxCell id="REEH5sua70is87sAmdiB-12" value="&lt;b&gt;R18&lt;/b&gt;" style="text;html=1;strokeColor=none;fillColor=none;align=center;verticalAlign=middle;whiteSpace=wrap;rounded=0;" parent="1" vertex="1">
          <mxGeometry x="1232.5" y="408" width="30" height="30" as="geometry" />
        </mxCell>
        <mxCell id="ZBNOUnaTbNVQ-RyKw_Jw-1" value="&lt;font style=&quot;font-size: 10px;&quot;&gt;2ccc:0:3e9:fffd::1:0/126&lt;/font&gt;" style="text;html=1;strokeColor=none;fillColor=none;align=center;verticalAlign=middle;whiteSpace=wrap;rounded=0;fontFamily=Lucida Console;rotation=-30;" parent="1" vertex="1">
          <mxGeometry x="407" y="686" width="60" height="30" as="geometry" />
        </mxCell>
      </root>
    </mxGraphModel>
  </diagram>
</mxfile>
